<?xml version="1.0" encoding="utf-8"?>
<!-- Generator: Adobe Illustrator 16.0.0, SVG Export Plug-In . SVG Version: 6.00 Build 0)  -->
<!DOCTYPE svg PUBLIC "-//W3C//DTD SVG 1.1//EN" "http://www.w3.org/Graphics/SVG/1.1/DTD/svg11.dtd">
<svg version="1.1" id="Layer_1" xmlns="http://www.w3.org/2000/svg" xmlns:xlink="http://www.w3.org/1999/xlink" x="0px" y="0px"
	 width="800px" height="200px" viewBox="0 0 800 200" enable-background="new 0 0 800 200" xml:space="preserve">
<g>
	<path d="M197.473,139.922l2.171-3.073l2.084-3.09c1.401-2.036,2.716-4.186,4.077-6.271l3.989-6.347l3.925-6.389
		c2.595-4.273,5.155-8.566,7.691-12.874c1.286-2.143,2.513-4.32,3.756-6.487c1.248-2.165,2.508-4.322,3.712-6.51
		c1.208-2.186,2.469-4.344,3.634-6.552l3.581-6.578l3.535-6.6c1.198-2.191,2.303-4.424,3.487-6.625
		c1.195-2.197,2.245-4.454,3.361-6.689c1.144-2.226,2.122-4.515,3.108-6.808c1.05-2.273,1.848-4.627,2.719-6.968
		c0.21-0.587,0.443-1.169,0.635-1.762l0.472-1.804c0.311-1.205,0.598-2.417,0.86-3.631c0.049-0.238,0.282-0.392,0.52-0.342
		c0.214,0.044,0.359,0.24,0.351,0.451v0.001l0.642,13.479l0.352,6.719c0.116,2.238,0.258,4.473,0.404,6.707
		c0.129,2.233,0.267,4.466,0.441,6.695l0.508,6.683c0.175,2.227,0.396,4.447,0.612,6.667c0.217,2.219,0.418,4.441,0.693,6.652
		c0.245,2.215,0.555,4.42,0.856,6.627c0.319,2.202,0.606,4.411,0.991,6.6c0.337,2.2,0.789,4.373,1.177,6.563
		c0.447,2.173,0.86,4.358,1.392,6.511c0.488,2.166,1.062,4.305,1.615,6.454c0.611,2.129,1.237,4.255,1.938,6.356
		c0.323,1.063,0.703,2.101,1.093,3.137c0.392,1.035,0.74,2.093,1.183,3.105c0.43,1.02,0.825,2.061,1.286,3.068l1.393,3.028
		l0.023,0.051c0.217,0.471,0.011,1.028-0.46,1.245c-0.432,0.198-0.937,0.042-1.185-0.349l-1.844-2.896
		c-0.615-0.97-1.118-1.995-1.685-2.993c-0.572-0.997-1.056-2.032-1.546-3.067c-0.499-1.032-0.988-2.069-1.418-3.128
		c-0.938-2.094-1.706-4.247-2.493-6.396c-0.723-2.165-1.474-4.331-2.062-6.535c-0.65-2.192-1.18-4.409-1.744-6.621
		c-0.502-2.223-0.986-4.452-1.397-6.69c-0.448-2.235-0.801-4.481-1.178-6.727c-0.313-2.252-0.633-4.504-0.887-6.761
		c-0.285-2.255-0.496-4.516-0.721-6.775c-0.188-2.262-0.342-4.526-0.471-6.791c-0.125-2.265-0.257-4.528-0.283-6.796
		c-0.055-2.266-0.074-4.532-0.083-6.796c0.019-2.266,0.077-4.53,0.144-6.793c0.062-2.263,0.215-4.524,0.353-6.783
		c0.134-2.259,0.367-4.514,0.579-6.767c0.257-2.252,0.521-4.498,0.904-6.742v-0.001l0.871,0.108
		c-0.323,1.223-0.622,2.448-0.896,3.681l-0.406,1.852l-0.516,1.817c-0.707,2.417-1.348,4.87-2.237,7.226
		c-0.843,2.374-1.62,4.783-2.573,7.114c-0.93,2.34-1.778,4.727-2.812,7.022c-1,2.312-1.977,4.641-3.047,6.92l-3.287,6.803
		c-1.164,2.231-2.32,4.466-3.514,6.682c-1.171,2.229-2.436,4.402-3.649,6.605c-1.216,2.203-2.459,4.388-3.74,6.552
		c-1.276,2.166-2.536,4.343-3.855,6.483c-1.315,2.143-2.586,4.312-3.943,6.428l-4.051,6.361c-2.75,4.21-5.543,8.393-8.459,12.494
		c-1.495,2.035-2.914,4.091-4.469,6.104c-0.771,1.004-1.517,2.033-2.308,3.013l-2.401,2.896c-0.333,0.402-0.93,0.458-1.333,0.124
		c-0.383-0.317-0.452-0.872-0.171-1.271L197.473,139.922z"/>
</g>
<g>
	<path d="M215.084,96.473c0,0,0.183-0.136,0.526-0.39c0.363-0.233,0.812-0.65,1.542-1.034c0.725-0.369,1.67-0.906,2.716-1.323
		c1.036-0.423,2.225-0.939,3.529-1.34c1.3-0.45,2.721-0.906,4.228-1.308c1.508-0.428,3.102-0.816,4.753-1.203
		c3.306-0.766,6.841-1.435,10.377-2.042c1.766-0.294,3.532-0.589,5.27-0.878c1.736-0.27,3.445-0.536,5.098-0.793
		c1.649-0.252,3.244-0.495,4.755-0.726c1.504-0.246,2.927-0.478,4.24-0.692c1.302-0.245,2.496-0.47,3.553-0.669
		c1.022-0.27,1.94-0.463,2.696-0.643c1.421-0.473,2.291-0.739,2.29-0.739l0.08-0.024c0.248-0.076,0.51,0.063,0.585,0.312
		c0.06,0.194-0.015,0.398-0.169,0.514c0,0-0.187,0.138-0.537,0.398c-0.358,0.247-0.875,0.649-1.576,1.098
		c-0.714,0.375-1.579,0.862-2.605,1.363c-1.031,0.424-2.193,0.964-3.491,1.43c-1.297,0.427-2.697,0.991-4.205,1.395
		c-1.503,0.426-3.087,0.918-4.736,1.311c-1.648,0.427-3.357,0.81-5.094,1.188c-1.741,0.371-3.502,0.723-5.273,1.053
		c-1.765,0.342-3.535,0.639-5.275,0.935c-1.739,0.276-3.45,0.547-5.106,0.81c-3.302,0.476-6.384,0.92-9.024,1.301
		c-0.662,0.089-1.293,0.182-1.878,0.298c-0.596,0.094-1.161,0.183-1.692,0.267c-0.552,0.071-0.99,0.191-1.43,0.275
		c-0.443,0.084-0.85,0.161-1.217,0.231c-0.744,0.156-1.356,0.398-1.762,0.502c-0.412,0.118-0.632,0.182-0.632,0.182l-0.014,0.004
		c-0.319,0.09-0.65-0.094-0.741-0.412C214.794,96.873,214.89,96.618,215.084,96.473z"/>
</g>
<g>
	<path d="M287.356,34.594c0,0,0.229,0.349,0.657,1.003c0.104,0.168,0.232,0.337,0.353,0.556c0.11,0.236,0.229,0.494,0.359,0.772
		c0.26,0.56,0.578,1.224,0.775,1.94c0.231,0.723,0.513,1.527,0.691,2.412c0.22,0.883,0.424,1.846,0.568,2.874
		c0.362,2.059,0.576,4.385,0.723,6.921c0.089,1.27,0.102,2.584,0.159,3.951c0.022,1.362,0.018,2.771,0.009,4.217
		c-0.044,2.888-0.113,5.934-0.307,9.067c-0.173,3.137-0.373,6.371-0.65,9.647c-0.287,3.271-0.579,6.593-0.871,9.916
		c-0.646,6.611-1.292,13.222-1.899,19.42c-0.26,3.09-0.54,6.073-0.733,8.896c-0.097,1.411-0.187,2.786-0.25,4.109
		c-0.086,1.326-0.14,2.604-0.17,3.828c-0.078,2.453-0.071,4.684-0.004,6.646c0.085,1.961,0.237,3.642,0.44,4.996
		c0.076,0.691,0.251,1.248,0.337,1.77c0.085,0.526,0.218,0.931,0.332,1.255c0.211,0.662,0.324,1.016,0.324,1.016l0.076,0.237
		c0.27,0.844-0.196,1.747-1.041,2.017c-0.786,0.251-1.623-0.137-1.952-0.873c0,0-0.189-0.422-0.544-1.214
		c-0.185-0.398-0.4-0.892-0.562-1.473c-0.169-0.579-0.433-1.257-0.58-2.007c-0.151-0.749-0.372-1.588-0.51-2.491
		c-0.128-0.9-0.303-1.888-0.394-2.928c-0.215-2.084-0.378-4.431-0.404-6.973c-0.066-2.547-0.016-5.288,0.104-8.179
		c0.111-2.891,0.287-5.926,0.538-9.057c0.264-3.127,0.511-6.357,0.868-9.623c0.348-3.262,0.701-6.576,1.054-9.89
		c0.378-3.302,0.756-6.605,1.128-9.856c0.342-3.248,0.743-6.438,1.036-9.526c0.307-3.089,0.589-6.068,0.81-8.896
		c0.196-2.826,0.365-5.496,0.426-7.954c0.019-1.227,0.055-2.409,0.023-3.52c-0.001-1.118-0.026-2.175-0.104-3.158
		c-0.035-0.995-0.149-1.904-0.25-2.748c-0.069-0.856-0.24-1.603-0.373-2.29c-0.112-0.711-0.305-1.248-0.445-1.747
		c-0.071-0.25-0.138-0.481-0.198-0.694c-0.08-0.215-0.19-0.414-0.269-0.59c-0.335-0.708-0.514-1.084-0.514-1.084l-0.004-0.008
		c-0.167-0.354-0.016-0.777,0.338-0.945C286.783,34.188,287.166,34.302,287.356,34.594z"/>
</g>
<g>
	<path d="M326.381,106.679c0,0-0.232,0.019-0.683,0.053c-0.468,0.026-1.096,0.099-1.889,0.197c-1.637,0.23-4.057,0.659-6.979,1.685
		c-2.907,1.028-6.355,2.662-9.679,5.289c-1.653,1.31-3.261,2.891-4.575,4.758c-1.307,1.86-2.321,4.03-2.574,6.316
		c-0.033,0.285-0.064,0.571-0.06,0.857l-0.012,0.432l0.021,0.455c0.01,0.169,0.009,0.377,0.025,0.517l0.046,0.401
		c0.015,0.259,0.088,0.564,0.132,0.853c0.229,1.156,0.675,2.23,1.332,3.195c1.309,1.937,3.636,3.36,6.362,4.283
		c2.742,0.913,5.839,1.388,9.051,1.581c1.594,0.098,3.279,0.128,4.883,0.106c0.453-0.001,0.825-0.024,1.186-0.048
		c0.365-0.012,0.756-0.068,1.137-0.103c0.755-0.101,1.505-0.222,2.203-0.424c2.86-0.765,4.827-2.447,5.816-5.335
		c0.985-2.881,1.182-6.41,1.244-10.033c0.075-3.663,0.234-7.356,0.041-10.913l-0.206-2.603c-0.064-0.852-0.096-1.701-0.285-2.479
		c-0.032-0.207-0.105-0.383-0.17-0.566c-0.057-0.192-0.136-0.367-0.233-0.525c-0.083-0.164-0.186-0.333-0.327-0.506
		c-0.111-0.146-0.249-0.301-0.375-0.415c-0.123-0.119-0.258-0.204-0.314-0.225c-0.087-0.029,0.075,0.06,0.286-0.03
		c0.176-0.092,0.125-0.102,0.098,0.016c-0.031,0.104-0.066,0.27-0.089,0.449c-0.104,0.738-0.033,1.647,0.07,2.523
		c0.107,0.887,0.268,1.783,0.419,2.682c0.32,1.797,0.586,3.609,0.778,5.436c0.474,3.662,0.945,7.31,1.414,10.929
		c0.951,7.285,1.887,14.454,2.792,21.393c0.45,3.48,0.917,6.903,1.283,10.29c0.201,1.694,0.276,3.596-0.008,5.419
		c-0.256,1.827-0.871,3.629-1.811,5.224c-1.883,3.24-5.029,5.363-8.129,6.512c-3.135,1.174-6.321,1.51-9.298,1.451
		c-2.986-0.068-5.795-0.544-8.38-1.236c-2.589-0.685-4.965-1.576-7.106-2.588c-4.302-2.002-7.664-4.426-10.237-6.59
		c-2.562-2.193-4.338-4.152-5.51-5.506c-0.557-0.703-1.083-1.156-1.179-1.684c-0.075-0.24-0.065-0.477-0.056-0.637
		c-0.002-0.15,0.036-0.26,0.03-0.254c0.095-0.307,0.356-0.518,0.654-0.561l0.012-0.002c-0.006,0.004,0.109-0.016,0.257,0.006
		c0.16,0.014,0.394,0.035,0.615,0.137c0.486,0.164,0.861,0.705,1.488,1.287c1.223,1.189,3.078,2.879,5.644,4.73
		c2.545,1.871,5.831,3.881,9.833,5.605c3.995,1.689,8.785,3.094,14.023,3.219c2.604,0.061,5.314-0.227,7.873-1.086
		c2.542-0.861,4.9-2.404,6.349-4.707c0.725-1.143,1.236-2.457,1.484-3.877c0.275-1.428,0.223-2.885,0.065-4.531
		c-0.295-3.313-0.719-6.711-1.231-10.158c-1.014-6.898-2.369-13.996-3.517-21.27c-0.589-3.635-1.094-7.318-1.484-11.057
		c-0.219-1.865-0.316-3.76-0.221-5.682c0.041-0.961,0.126-1.928,0.239-2.906c0.121-0.984,0.245-1.953,0.536-3.041
		c0.082-0.275,0.177-0.559,0.342-0.879c0.166-0.301,0.385-0.727,0.983-1.033c0.636-0.307,1.309-0.117,1.63,0.061
		c0.362,0.186,0.597,0.395,0.817,0.588c0.216,0.203,0.401,0.385,0.591,0.596c0.171,0.174,0.342,0.381,0.52,0.604
		c0.365,0.428,0.669,0.887,0.946,1.35c1.171,1.857,1.634,3.863,1.828,5.791c0.421,3.854,0.493,7.572,0.594,11.248
		c0.046,1.836,0.075,3.746-0.042,5.67c-0.109,1.928-0.386,3.91-1.027,5.902c-0.628,1.98-1.748,4.004-3.401,5.547
		c-1.646,1.547-3.684,2.514-5.633,3.041c-1.946,0.549-3.927,0.734-5.755,0.779c-1.83,0.033-3.549-0.039-5.313-0.156
		c-3.497-0.252-6.966-0.791-10.303-1.938c-1.661-0.596-3.295-1.33-4.8-2.355c-1.507-1.004-2.875-2.305-3.912-3.84
		c-1.031-1.533-1.708-3.27-2.023-4.969c-0.067-0.432-0.154-0.834-0.186-1.295l-0.06-0.672c-0.016-0.219-0.014-0.369-0.019-0.557
		l-0.01-0.611l0.03-0.631c0.011-0.422,0.063-0.834,0.12-1.242c0.463-3.287,1.919-6.072,3.585-8.326
		c1.685-2.263,3.623-4.052,5.563-5.514c3.889-2.942,7.815-4.552,11.081-5.574c3.287-1.002,5.968-1.384,7.8-1.527
		c0.948-0.07,1.656-0.107,2.091-0.109c0.452-0.01,0.686-0.016,0.686-0.016c0.929-0.022,1.699,0.713,1.722,1.641
		C327.955,105.859,327.265,106.609,326.381,106.679z"/>
</g>
<g>
	<path d="M383.2,127.582c0,0,0.182,1.192-0.472,1.904c-0.7,0.591-1.906,1.406-3.434,2.402c-1.535,0.962-3.465,2.07-5.855,3.066
		c-2.384,0.994-5.277,1.853-8.636,2.035c-1.68,0.059-3.477-0.037-5.301-0.479c-1.821-0.438-3.665-1.205-5.346-2.327
		c-1.687-1.113-3.185-2.588-4.394-4.28c-1.22-1.69-2.089-3.626-2.708-5.631c-0.591-2.019-0.889-4.128-0.891-6.255l0.004-0.798
		l0.006-0.208l0.008-0.09l0.016-0.181l0.032-0.362c0.027-0.253,0.029-0.456,0.078-0.752l0.155-0.887
		c0.225-1.179,0.553-2.186,0.981-3.226c1.725-4.07,4.878-7.513,8.714-9.56c0.925-0.582,1.944-0.944,2.921-1.399l1.523-0.507
		l0.761-0.25l0.774-0.18l1.547-0.356c0.515-0.114,1.036-0.16,1.554-0.242c0.518-0.068,1.036-0.156,1.552-0.207l1.548-0.086
		l0.772-0.042l0.385-0.023l0.097,0.166c0.054,0-0.054,0.172,0.134,0.172h0.046l0.184-0.167l1.463-0.051
		c0.925-0.023,2.049,0.105,3.122,0.251c2.104,0.401,4.221,0.939,6.084,2.375c1.851,1.358,3.27,3.609,3.441,5.968
		c0.19,2.34-0.486,4.599-1.964,6.409c-0.189,0.225-0.429,0.424-0.646,0.631c-0.223,0.205-0.438,0.408-0.731,0.567
		c-0.276,0.169-0.558,0.33-0.84,0.48l-0.644,0.265c-0.774,0.311-1.536,0.617-2.285,0.918c-1.609,0.564-3.176,1.081-4.669,1.465
		c-2.996,0.814-5.821,1.279-8.342,1.423c-2.524,0.135-4.726-0.023-6.52-0.209c-1.796-0.194-3.19-0.455-4.137-0.675
		c-0.949-0.218-1.407-0.643-1.407-0.644c-0.245-0.227-0.259-0.609-0.032-0.854c0.063-0.068,0.137-0.118,0.217-0.15l0.051-0.02
		c0-0.001,0.517-0.206,1.422-0.172c0.906,0.038,2.248,0.049,3.944-0.077c1.697-0.113,3.742-0.391,6.056-0.786
		c2.312-0.421,4.898-0.949,7.675-1.724c1.405-0.376,2.783-0.887,4.227-1.373c0.749-0.298,1.512-0.602,2.285-0.909l0.517-0.209
		c0.08-0.061,0.163-0.113,0.251-0.158c0.093-0.024,0.178-0.124,0.266-0.21c0.086-0.09,0.189-0.152,0.275-0.255
		c0.716-0.826,1.191-2.151,1.11-3.404c-0.066-1.267-0.729-2.418-1.843-3.315c-2.317-1.832-6.084-2.293-9.81-2.191
		c-3.706,0.147-7.498,0.875-10.637,2.746c-3.184,1.771-5.591,4.719-6.665,7.984c-0.268,0.795-0.473,1.683-0.555,2.426l-0.066,0.554
		c-0.024,0.184-0.015,0.469-0.024,0.698l-0.007,0.363l-0.004,0.181l-0.002,0.091c-0.003,0.114,0.003-0.104,0.004-0.067l0.002,0.04
		l0.042,0.648c0.116,1.724,0.479,3.397,1.044,4.938c1.07,3.11,2.964,5.674,5.305,7.24c2.339,1.597,5.103,2.131,7.716,2.122
		c2.633-0.082,5.113-0.645,7.285-1.324c2.167-0.708,4.052-1.481,5.572-2.208c1.521-0.708,2.659-1.323,3.513-1.774
		c0.915-0.31,1.932,0.338,1.932,0.338C383.089,127.285,383.176,127.43,383.2,127.582z"/>
</g>
<g>
	<path d="M393.313,34.893c0,0,0.1,0.723,0.287,2.078c0.189,1.353,0.402,3.36,0.664,5.899c0.467,5.088,0.97,12.364,1.468,21.102
		c0.265,4.368,0.479,9.103,0.646,14.114c0.158,5.01,0.241,10.296,0.242,15.767c-0.012,5.471-0.354,11.123-0.708,16.866
		c-0.434,5.751-0.612,11.559-1.123,17.479c-0.063,0.737-0.169,1.496-0.271,2.252l-0.221,1.185l-0.19,0.676l-0.051,0.168
		l-0.025,0.084l-0.059,0.146l-0.106,0.251c-0.009,0.039-0.147,0.297-0.24,0.446c-0.062,0.094-0.084,0.15-0.185,0.271
		c-0.099,0.116-0.207,0.228-0.322,0.33c-0.069,0.057-0.09,0.087-0.202,0.159c-0.127,0.077-0.269,0.146-0.417,0.199
		c-0.303,0.104-0.581,0.156-0.946,0.084c-0.338-0.051-0.734-0.258-0.813-0.348c-0.149-0.116-0.29-0.252-0.411-0.395
		c-0.145-0.193-0.238-0.359-0.334-0.538l-0.167-0.4c-0.084-0.242-0.157-0.475-0.207-0.686c-0.209-0.849-0.306-1.613-0.39-2.384
		c-0.28-3.048-0.282-6.004-0.045-8.968c0.255-2.952,0.692-5.906,1.725-8.802c0.448-1.281,0.992-2.74,1.615-4.047
		c0.616-1.33,1.306-2.64,2.176-3.886c0.863-1.242,1.877-2.45,3.231-3.441c0.662-0.502,1.461-0.9,2.298-1.211
		c0.862-0.261,1.785-0.453,2.706-0.385c1.861,0.063,3.472,0.865,4.741,1.77c1.266,0.936,2.257,2.03,3.103,3.156
		c1.675,2.266,2.797,4.681,3.586,7.093c0.797,2.412,1.257,4.832,1.429,7.203c0.158,2.372,0.007,4.705-0.538,6.915
		c-0.289,1.102-0.658,2.172-1.158,3.174c-0.523,0.991-1.134,1.921-1.857,2.733c-1.452,1.625-3.274,2.727-5.008,3.323
		c-1.748,0.585-3.393,0.736-4.814,0.725c-2.861-0.021-4.945-0.565-6.341-0.928c-0.716-0.132-1.181-0.515-1.451-0.896
		c-0.276-0.361-0.366-0.697-0.366-0.697c-0.153-0.571,0.038-1.153,0.446-1.526l0.033-0.03c0,0,0.26-0.237,0.662-0.407
		c0.411-0.206,0.94-0.254,1.557-0.086c1.247,0.257,3.12,0.61,5.361,0.493c2.23-0.109,4.81-0.782,6.6-2.875
		c1.789-2.079,2.731-5.652,2.448-9.626c-0.133-1.983-0.514-4.067-1.185-6.129c-0.665-2.057-1.604-4.12-2.877-5.902
		c-0.638-0.883-1.365-1.689-2.157-2.296c-0.796-0.58-1.631-0.976-2.414-1.004c-1.532-0.176-3.353,1.209-4.78,3.17
		c-0.728,0.969-1.365,2.083-1.95,3.248c-0.604,1.179-1.077,2.325-1.601,3.676c-0.941,2.374-1.435,5.084-1.745,7.823
		c-0.282,2.739-0.41,5.585-0.155,8.312c0.066,0.671,0.158,1.349,0.294,1.911c0.031,0.143,0.072,0.257,0.103,0.358
		c0.016,0.033,0.028,0.067,0.039,0.104c-0.005-0.022-0.009-0.028-0.052-0.073c-0.056-0.079-0.131-0.151-0.214-0.205
		c-0.024-0.01-0.318-0.219-0.572-0.239c-0.276-0.025-0.471-0.013-0.688,0.057c-0.106,0.036-0.205,0.089-0.29,0.15l-0.102,0.068
		c-0.052,0.037-0.098,0.083-0.132,0.135c-0.036,0.056-0.025,0.024-0.036,0.044c-0.005-0.01-0.031,0.103,0.022-0.031l0.108-0.25
		c-0.007,0.016,0.053-0.123-0.008,0.02l0.012-0.048l0.025-0.094l0.109-0.372l0.184-0.961c0.095-0.686,0.195-1.367,0.262-2.079
		c0.583-5.674,0.661-11.519,0.498-17.222c-0.119-5.715-0.403-11.342-0.418-16.786c0.002-5.446,0.003-10.711,0.004-15.703
		c0.031-4.995,0.061-9.719,0.088-14.078c0.053-8.721-0.027-15.987-0.078-21.073c0.002-2.544,0.004-4.543,0.005-5.907
		c0.014-1.368,0.021-2.098,0.021-2.098c0.004-0.451,0.373-0.813,0.824-0.809C392.922,34.191,393.259,34.498,393.313,34.893z"/>
</g>
<g>
	<path d="M426.32,102.028c0,0,0.217,0.214,0.535,0.642c0.305,0.405,0.744,1.125,1.114,2.027c0.384,0.901,0.712,2.034,0.911,3.361
		c0.197,1.326,0.406,2.819,0.541,4.454c0.114,1.637,0.216,3.406,0.188,5.281c-0.004,1.872-0.105,3.845-0.289,5.882
		c-0.204,2.042-0.433,4.125-0.958,6.309c-0.153,0.555-0.283,1.096-0.611,1.765c-0.064,0.149-0.228,0.386-0.396,0.582
		c-0.154,0.144-0.313,0.271-0.516,0.368c-0.145,0.054-0.309,0.092-0.471,0.103c-0.08,0.006-0.16,0.005-0.235,0
		c-0.003,0.011-0.474-0.121-0.281-0.07l-0.022-0.011l-0.055-0.025c-0.08-0.039-0.162-0.088-0.238-0.144
		c-0.157-0.112-0.295-0.277-0.303-0.303c-0.09-0.123-0.158-0.242-0.194-0.327c-0.097-0.197-0.146-0.353-0.194-0.511
		c-0.327-1.212-0.411-2.267-0.51-3.371c-0.139-2.184-0.125-4.345-0.009-6.479c0.108-2.133,0.333-4.235,0.721-6.274
		c0.394-2.037,0.991-4.008,1.885-5.801c0.892-1.784,2.128-3.384,3.613-4.517c1.467-1.155,3.117-1.845,4.592-2.136
		c1.48-0.298,2.777-0.28,3.803-0.16c1.029,0.113,1.802,0.318,2.319,0.472c0.51,0.172,0.781,0.263,0.781,0.263
		c0.723,0.243,1.111,1.025,0.869,1.748c-0.2,0.593-0.763,0.96-1.357,0.938l-0.094-0.003c0,0-0.249-0.01-0.716-0.026
		c-0.463-0.019-1.135-0.037-1.961-0.016c-1.65,0.062-3.926,0.303-6.12,1.778c-1.085,0.752-2.149,1.819-3.077,3.195
		c-0.936,1.367-1.72,3.024-2.325,4.838c-1.22,3.628-1.632,7.909-1.118,12.003c0.124,1.002,0.299,2.071,0.628,2.873
		c0.037,0.091,0.083,0.185,0.11,0.22c0.019,0.035,0.023,0.026,0.013,0.01c0.024,0.033-0.062-0.091-0.171-0.157
		c-0.052-0.033-0.109-0.06-0.166-0.076c-0.005-0.001,0.025,0.01,0.036,0.014l0.023,0.008c0.208,0.056-0.249-0.063-0.234-0.06
		c-0.043-0.01-0.09-0.016-0.139-0.016c-0.097,0.001-0.195,0.027-0.274,0.07c-0.094,0.03-0.154,0.063-0.204,0.129
		c-0.02-0.018-0.014,0.011,0.016-0.089c0.105-0.289,0.209-0.781,0.255-1.25c0.211-1.934,0.143-3.978,0.013-5.911
		c-0.128-1.942-0.348-3.818-0.571-5.587c-0.247-1.768-0.468-3.434-0.74-4.957c-0.251-1.526-0.492-2.917-0.75-4.138
		c-0.275-1.216-0.407-2.292-0.46-3.195c-0.062-0.905,0.009-1.598,0.036-2.147c0.046-0.53,0.118-0.826,0.118-0.826
		c0.207-0.847,1.061-1.366,1.907-1.159C425.872,101.689,426.125,101.837,426.32,102.028z"/>
</g>
<g>
	<path d="M449.78,116.713c0-0.001,0.495-0.665,1.31-0.821c0.822-0.076,1.832-0.262,3.274-0.35c0.73-0.063,1.54-0.093,2.42-0.138
		c0.882-0.064,1.837-0.135,2.856-0.21c2.037-0.183,4.337-0.418,6.816-0.744c0.627-0.067,1.238-0.187,1.875-0.271
		c0.627-0.096,1.311-0.172,1.867-0.315c0.295-0.063,0.591-0.126,0.889-0.189l0.113-0.023c-0.083,0.029,0.224-0.074-0.179,0.064
		l0.03-0.013l0.061-0.025l0.121-0.052l0.061-0.024l0.029-0.013l-0.033,0.007c-0.085,0.021-0.168,0.065-0.229,0.126
		c-0.045,0.041-0.039,0.021-0.052,0.043c-0.032,0.09,0.14-0.314,0.126-0.792c-0.008-1.003-0.354-2.275-0.925-3.424
		c-0.571-1.161-1.359-2.265-2.339-3.181c-0.979-0.916-2.149-1.64-3.465-2.072c-0.66-0.209-1.351-0.354-2.063-0.422
		c-0.336-0.026-0.765-0.045-1.037-0.045l-1.247,0.05c-3.024,0.13-6.152,1.19-8.439,3.161c-1.138,0.993-2.059,2.21-2.674,3.544
		c-0.613,1.336-0.884,2.795-0.818,4.186c0.011,0.621,0.165,1.572,0.278,2.313c0.118,0.776,0.266,1.558,0.432,2.313
		c0.325,1.516,0.759,2.964,1.323,4.286c0.555,1.325,1.222,2.544,2.041,3.542c0.364,0.545,0.849,0.946,1.259,1.406
		c0.494,0.36,0.907,0.808,1.438,1.077c1.991,1.295,4.213,1.792,6.547,1.93l0.473,0.037c0.142,0.004,0.245-0.014,0.369-0.018
		c0.236-0.011,0.471-0.021,0.702-0.031c0.453,0.018,0.949-0.113,1.408-0.149c0.466-0.058,0.873-0.202,1.307-0.274
		c0.403-0.136,0.795-0.267,1.174-0.395c1.469-0.604,2.674-1.507,3.482-2.488c0.817-0.972,1.266-1.934,1.489-2.558
		c0.226-0.631,0.556-0.866,0.564-0.894c0.141-0.395,0.574-0.601,0.969-0.461c0.126,0.045,0.232,0.119,0.314,0.213l0.014,0.016
		c0,0,0.102,0.115,0.24,0.401c0.071,0.157,0.105,0.294,0.148,0.487c0.038,0.191,0.061,0.413,0.041,0.638
		c-0.058,0.932-0.272,2.246-0.973,3.827c-0.698,1.55-1.94,3.462-4.109,4.854c-2.137,1.399-5.081,1.979-8.007,1.765
		c-0.316-0.027-0.637-0.054-0.959-0.081l-0.487-0.041l-0.03-0.003c-0.275-0.028-0.097-0.012-0.167-0.02l-0.069-0.014l-0.14-0.026
		l-0.279-0.054c-0.744-0.171-1.512-0.237-2.269-0.528c-0.756-0.278-1.542-0.486-2.28-0.907c-0.373-0.191-0.749-0.385-1.128-0.579
		c-0.358-0.232-0.712-0.482-1.068-0.729c-0.735-0.468-1.327-1.13-1.982-1.719c-0.558-0.675-1.182-1.322-1.634-2.078
		c-1.002-1.462-1.704-3.088-2.24-4.739c-0.545-1.654-0.896-3.355-1.116-5.061c-0.114-0.854-0.202-1.703-0.261-2.569
		c-0.062-0.9-0.116-1.602-0.108-2.649c0.054-3.898,2.028-7.566,4.926-9.944c2.902-2.43,6.497-3.658,10.095-4.056l1.243-0.114
		c0.557-0.034,0.959-0.029,1.446-0.02c0.937,0.043,1.874,0.175,2.789,0.406c1.83,0.477,3.529,1.381,4.94,2.558
		c1.39,1.2,2.532,2.62,3.331,4.191c0.803,1.571,1.37,3.233,1.387,5.152c-0.014,0.492-0.042,0.987-0.187,1.54
		c-0.122,0.53-0.378,1.151-0.851,1.725c-0.136,0.149-0.236,0.273-0.418,0.426c-0.204,0.162-0.429,0.31-0.658,0.431
		c-0.151,0.081-0.114,0.053-0.179,0.083l-0.121,0.049l-0.062,0.023l-0.03,0.013c-0.423,0.146-0.138,0.045-0.241,0.079l-0.145,0.028
		c-0.384,0.074-0.765,0.148-1.142,0.221c-0.779,0.168-1.438,0.217-2.121,0.304c-0.675,0.08-1.346,0.162-1.985,0.2
		c-2.575,0.206-4.921,0.325-7.005,0.405c-2.08,0.081-3.9,0.164-5.405,0.146c-1.521-0.037-2.844-0.188-3.604-0.362
		c-0.77-0.277-1.119-1.005-1.119-1.006c-0.091-0.19-0.063-0.408,0.055-0.567L449.78,116.713z"/>
</g>
<g>
	<path d="M484.314,115.213c0,0,0.716-1.271,1.536-1.377c0.36-0.016,0.77,0.059,1.276,0.093c0.54,0.026,1.144,0.086,1.846,0.098
		c1.386,0.085,3.098,0.092,5.055,0.127c1.958,0.006,4.179,0.025,6.553-0.077c1.18-0.053,2.424-0.146,3.551-0.341l0.423-0.071
		l0.346-0.091c0.102-0.027,0.276-0.06,0.273-0.078c0.018-0.01,0.036-0.251,0.056-0.255l0.031-0.24h0.017h0.009
		c0.05,0-0.418,0.52-0.207,0.375l0.186-0.025c-0.128,0.078-0.242,0.251-0.318,0.378c-0.067,0.082-0.071,0.172-0.074,0.165
		c0.001,0.006,0.041-0.106,0.035-0.296c0.017-0.782-0.352-2.011-0.919-3.081c-0.567-1.1-1.347-2.15-2.284-3.053
		c-0.925-0.917-2.014-1.694-3.23-2.249c-0.604-0.292-1.25-0.496-1.909-0.674c-0.334-0.075-0.667-0.159-1.013-0.203l-0.257-0.042
		l-0.064-0.011l-0.031-0.005c0.068,0.003-0.199-0.015,0.145,0.005l-0.152-0.005l-0.61-0.022c-0.384-0.001-0.868-0.06-1.171-0.014
		c-0.285,0.055-0.57,0.1-0.861,0.133c-0.28-0.005-0.62,0.167-0.935,0.257c-0.315,0.121-0.655,0.17-0.952,0.359l-0.923,0.472
		c-0.306,0.163-0.578,0.401-0.872,0.595c-0.605,0.364-1.087,0.928-1.635,1.393c-1.96,2.149-3.374,4.922-3.92,7.777
		c-0.515,2.859-0.346,5.727,0.768,8.095l0.457,1.065c0.152,0.34,0.305,0.622,0.454,0.935c0.283,0.609,0.646,1.207,0.979,1.77
		c0.686,1.129,1.465,2.053,2.278,2.713c0.807,0.668,1.672,1.071,2.688,1.336c1.012,0.261,2.162,0.402,3.343,0.487
		c0.329,0.033,1.271,0.072,1.593,0.034c0.401-0.013,0.896-0.059,1.36-0.111c0.93-0.132,1.804-0.341,2.626-0.571
		c1.623-0.501,3.022-1.152,3.988-1.93c0.979-0.759,1.605-1.541,1.947-2.119c0.196-0.28,0.356-0.498,0.531-0.634
		c0.171-0.137,0.287-0.207,0.287-0.207l0.1-0.062c0.384-0.235,0.887-0.114,1.122,0.271c0.021,0.034,0.041,0.074,0.056,0.109
		c0,0,0.054,0.127,0.104,0.373c0.031,0.238,0.086,0.615-0.051,1.038c-0.223,0.863-0.732,2.102-1.729,3.464
		c-0.995,1.354-2.509,2.806-4.601,3.889c-1.047,0.525-2.229,0.968-3.529,1.235c-0.656,0.109-1.311,0.238-2.098,0.261
		c-0.863,0.042-1.143,0.026-2.051-0.018c-1.292-0.089-2.733-0.186-4.313-0.614c-1.567-0.414-3.264-1.228-4.625-2.414
		c-1.346-1.2-2.373-2.629-3.177-4.087c-0.396-0.738-0.782-1.458-1.11-2.245c-0.164-0.383-0.349-0.789-0.493-1.158l-0.409-1.085
		c-0.311-0.792-0.518-1.736-0.758-2.607l-0.185-1.355c-0.069-0.453-0.118-0.906-0.105-1.36l-0.011-1.363
		c0.011-0.454,0.08-0.901,0.121-1.353c0.056-0.909,0.29-1.783,0.466-2.671c0.211-0.877,0.502-1.737,0.804-2.589
		c0.366-0.828,0.678-1.682,1.143-2.469c0.802-1.635,1.954-3.094,3.189-4.468c0.691-0.629,1.309-1.332,2.109-1.854
		c0.389-0.271,0.751-0.577,1.167-0.812l1.271-0.676c0.41-0.249,0.895-0.363,1.346-0.535c0.471-0.148,0.884-0.345,1.429-0.419
		c0.52-0.099,1.043-0.185,1.565-0.261c0.505-0.064,0.844-0.024,1.273-0.041c3.86-0.017,7.463,1.561,10.146,3.98
		c1.325,1.223,2.419,2.631,3.258,4.167c0.821,1.559,1.481,3.153,1.551,5.229c0.01,0.521-0.035,1.105-0.243,1.78
		c-0.099,0.332-0.269,0.701-0.514,1.083c-0.187,0.261-0.411,0.51-0.65,0.722l-0.222,0.177c0.193-0.131-0.29,0.201-0.262,0.177
		l-0.05,0.026l-0.103,0.051l-0.205,0.1l-0.416,0.187c-0.31,0.142-0.476,0.165-0.699,0.235l-0.636,0.176l-0.568,0.112
		c-1.507,0.287-2.848,0.415-4.146,0.507c-2.585,0.187-4.922,0.189-6.997,0.073c-2.076-0.1-3.878-0.318-5.372-0.556
		c-0.741-0.113-1.415-0.269-1.992-0.375c-0.604-0.146-1.138-0.239-1.542-0.386c-0.693-0.448-0.785-1.902-0.785-1.902
		C484.173,115.572,484.221,115.379,484.314,115.213z"/>
</g>
<g>
	<path d="M517.102,100.625c0,0,0.405,0.007,1.165,0.02c0.764,0.009,1.857-0.02,3.288-0.052c1.473,0.06,3.28,0.005,5.269,0.073
		c1.987,0.061,4.222,0.098,6.646,0.211c2.427,0.094,5.045,0.29,7.8,0.484c1.366,0.081,2.771,0.164,4.205,0.249
		c0.346,0.012,0.694,0.024,1.044,0.036l0.263,0.01l0.132,0.005l0.065,0.002l0.317,0.032l0.034,0.006
		c-0.008-0.025,0.618,0.176,0.82,0.477c0.287,0.349,0.313,0.537,0.356,0.752c0.042,0.2,0.007,0.516-0.021,0.598
		c-0.019,0.072-0.041,0.144-0.068,0.214c-0.026,0.069-0.059,0.141-0.091,0.202l-0.051,0.086l-0.108,0.166
		c-0.107,0.145-0.204,0.255-0.285,0.343c-0.635,0.662-1.184,1.112-1.769,1.63c-2.287,1.95-4.65,3.965-7.052,6.013
		c-2.387,2.04-4.758,4.165-7.09,6.325c-2.346,2.145-4.626,4.354-6.774,6.612c-2.165,2.243-4.205,4.532-6.013,6.865
		c-0.201,0.261-0.486,0.648-0.805,0.973c-0.311,0.322-0.647,0.615-1.007,0.872c-0.179,0.129-0.363,0.249-0.553,0.36l-0.283,0.16
		l-0.135,0.07c-0.023,0.01-0.127,0.072-0.013,0c-0.49,0.823,1.123-1.034-0.164-2.044c-1.004-0.234-0.361-0.064-0.622-0.11
		c-0.006,0-0.012,0.002,0.011-0.001l0.12-0.02l0.278-0.046l0.562-0.084c1.49-0.201,2.923-0.306,4.318-0.383
		c2.786-0.187,5.409-0.239,7.828-0.302c4.838-0.054,8.864-0.178,11.695-0.43c2.829-0.223,4.459-0.522,4.459-0.522l0.021-0.004
		c1.397-0.257,2.738,0.667,2.995,2.064c0.257,1.396-0.667,2.737-2.064,2.994c-0.404,0.074-0.815,0.046-1.186-0.061
		c0,0-1.573-0.459-4.353-0.887c-2.777-0.443-6.767-0.824-11.55-0.815c-2.391-0.023-4.98,0.034-7.695,0.21
		c-1.354,0.109-2.744,0.247-4.117,0.469l-0.512,0.089l-0.26,0.05l-0.149,0.027l-0.124,0.02c-0.284-0.045,0.336,0.131-0.69-0.108
		c-1.32-1.014,0.34-2.9-0.139-2.083l0.527-0.309c0.125-0.078,0.247-0.163,0.365-0.252c0.236-0.179,0.456-0.381,0.658-0.601
		c0.198-0.214,0.353-0.435,0.602-0.775c1.785-2.489,3.786-4.932,5.915-7.317c2.15-2.365,4.427-4.675,6.765-6.913
		c2.351-2.224,4.784-4.349,7.197-6.411c2.411-2.057,4.863-4.006,7.146-5.908c0.554-0.464,1.148-0.975,1.538-1.377l0.072-0.079
		c-0.013,0.015-0.024,0.032-0.034,0.05l-0.014,0.028c-0.023,0.041-0.047,0.09-0.064,0.139c-0.019,0.048-0.033,0.099-0.043,0.148
		c-0.02,0.062-0.062,0.353-0.019,0.53c0.043,0.19,0.068,0.356,0.332,0.693c0.184,0.287,0.798,0.464,0.766,0.436l-0.033-0.006
		c-0.264-0.026,0.323,0.03,0.248,0.024l-0.07-0.003l-0.145-0.006l-0.285-0.012c-0.381-0.016-0.76-0.032-1.137-0.048
		c-1.453-0.097-2.873-0.191-4.258-0.284c-2.744-0.171-5.33-0.28-7.711-0.328c-1.189-0.01-2.332-0.064-3.414-0.034
		c-1.08,0.047-2.105,0.065-3.065,0.128c-1.919,0.112-3.51,0.382-4.839,0.563c-1.359,0.263-2.448,0.563-3.177,0.749
		c-0.73,0.205-1.121,0.314-1.121,0.314l-0.015,0.004c-1.344,0.377-2.738-0.406-3.115-1.751c-0.379-1.344,0.406-2.739,1.75-3.116
		C516.614,100.651,516.865,100.622,517.102,100.625z"/>
</g>
<g>
	<path d="M556.347,103.232c0,0,0.042,0.604,0.119,1.736c0.089,1.125,0.16,2.768,0.357,4.826c0.186,2.057,0.479,4.544,1.118,7.277
		c0.329,1.361,0.762,2.78,1.373,4.177c0.607,1.396,1.402,2.771,2.476,3.929c1.049,1.182,2.397,2.098,3.979,2.649
		c0.796,0.263,1.641,0.455,2.534,0.525l0.673,0.055l0.042,0.003c-0.039,0.001,0.147,0.003-0.077,0.004l0.095-0.004l0.191-0.007
		l0.383-0.014c0.511-0.019,1.026-0.037,1.545-0.057c0.279,0.008,0.47-0.059,0.687-0.102l0.641-0.133
		c0.429-0.083,0.865-0.14,1.299-0.341c0.433-0.171,0.882-0.311,1.312-0.499c0.406-0.234,0.815-0.471,1.228-0.708
		c1.581-1.059,2.938-2.55,4.01-4.324c1.082-1.77,1.87-3.813,2.424-5.958c0.561-2.146,0.914-4.396,1.09-6.678
		c0.031-0.547,0.083-1.194,0.078-1.662c-0.004-0.288,0.008-0.619-0.009-0.873l-0.069-0.682c-0.082-0.429-0.209-0.923-0.321-1.038
		c-0.04-0.093-0.05-0.003,0.174,0.059c0.083,0.027,0.248,0.056,0.334,0.017c0.066,0.034,0.172-0.088,0.156-0.043
		c0.03-0.023-0.241,0.269-0.332,0.675c-0.135,0.383-0.188,0.861-0.226,1.34c-0.051,0.928,0.172,2.187,0.343,3.238
		c0.865,4.652,1.979,9.435,2.732,14.186c0.795,4.753,1.252,9.527,1.243,14.208c0.007,1.169-0.077,2.338-0.12,3.491
		c-0.135,1.174-0.179,2.268-0.391,3.476c-0.05,0.275-0.079,0.521-0.145,0.82l-0.218,0.919c-0.134,0.629-0.344,1.155-0.514,1.732
		c-0.407,1.113-0.868,2.196-1.447,3.205c-2.239,4.066-5.896,7.136-9.936,8.427c-2.015,0.647-4.093,0.855-6.027,0.682
		c-1.939-0.168-3.719-0.706-5.262-1.405c-3.116-1.406-5.249-3.413-6.829-5.091c-1.58-1.704-2.578-3.192-3.249-4.203
		c-0.64-1.028-0.98-1.577-0.98-1.577c-0.729-1.173-0.369-2.714,0.804-3.442c1.173-0.729,2.714-0.369,3.443,0.804
		c0.007,0.011,0.013,0.021,0.02,0.032l0.075,0.126c0,0,0.286,0.483,0.824,1.389c0.561,0.884,1.396,2.183,2.666,3.605
		c1.265,1.405,2.947,3.024,5.207,4.088c2.226,1.089,5.057,1.57,7.963,0.696c2.887-0.85,5.748-3.069,7.579-6.242
		c0.475-0.781,0.854-1.635,1.199-2.512c0.136-0.442,0.336-0.911,0.428-1.338l0.177-0.653c0.058-0.229,0.102-0.522,0.154-0.782
		c0.19-0.935,0.265-2.047,0.408-3.079c0.059-1.066,0.162-2.139,0.178-3.233c0.103-4.377-0.254-8.955-0.89-13.6
		c-0.611-4.663-1.558-9.326-2.376-14.185c-0.177-1.332-0.393-2.47-0.311-3.96c0.065-0.723,0.161-1.449,0.432-2.205
		c0.262-0.733,0.615-1.556,1.62-2.284c0.202-0.179,0.635-0.319,0.97-0.413c0.372-0.063,0.861-0.056,1.22,0.066
		c0.358,0.131,0.76,0.327,0.948,0.538c0.23,0.21,0.47,0.454,0.571,0.653c0.58,0.882,0.672,1.604,0.828,2.339
		c0.045,0.367,0.072,0.735,0.103,1.104c0.018,0.342,0.005,0.609,0.009,0.917c-0.001,0.726-0.054,1.267-0.091,1.906
		c-0.193,2.457-0.575,4.883-1.198,7.245c-0.622,2.358-1.476,4.67-2.747,6.775c-1.254,2.104-2.928,3.999-4.97,5.37
		c-0.532,0.309-1.061,0.615-1.587,0.92c-0.55,0.251-1.124,0.443-1.683,0.66c-0.544,0.241-1.157,0.35-1.761,0.465
		c-0.585,0.099-1.243,0.271-1.758,0.286c-0.519,0.021-1.033,0.041-1.544,0.062l-0.383,0.015l-0.191,0.008l-0.095,0.004
		c-0.257,0.001-0.102-0.002-0.173-0.003l-0.053-0.004l-0.841-0.063c-1.117-0.088-2.224-0.327-3.28-0.676
		c-2.116-0.72-3.982-1.992-5.338-3.521c-1.384-1.516-2.328-3.202-3.03-4.83c-0.704-1.633-1.177-3.225-1.531-4.724
		c-0.708-3.001-0.946-5.639-1.079-7.791c-0.117-2.156,0.051-3.836,0.064-4.973c0.01-1.131,0.189-1.733,0.189-1.733v-0.006
		c0-0.744,0.441-1.343,1.188-1.336C555.895,101.982,556.297,102.538,556.347,103.232z"/>
</g>
</svg>
