<?xml version="1.0" encoding="utf-8"?>
<!-- Generator: Adobe Illustrator 16.0.0, SVG Export Plug-In . SVG Version: 6.00 Build 0)  -->
<!DOCTYPE svg PUBLIC "-//W3C//DTD SVG 1.1//EN" "http://www.w3.org/Graphics/SVG/1.1/DTD/svg11.dtd">
<svg version="1.1" xmlns="http://www.w3.org/2000/svg" xmlns:xlink="http://www.w3.org/1999/xlink" x="0px" y="0px"
	 width="526.8667px" height="199.9165px" viewBox="0 0 526.8667 199.9165" enable-background="new 0 0 526.8667 199.9165"
	 xml:space="preserve">
<g id="Layer_2" display="none">
	<g display="inline">
		<g>
			<path fill="#00FFFF" d="M-59.1001,113.1274c15.7119-16.0073,27.2148-35.478,40.7134-53.2485
				c-3.8306,4.9585-7.6616,9.917-11.4927,14.8755C-19.5254,61.3892-6.687,50.1699,6.6318,39.8433
				c-4.9585,3.8306-9.917,7.6616-14.8755,11.4927C4.1021,41.8784,17.082,33.334,30.4922,25.4658
				c9.7607-5.7275,19.5811-12.1475,30-16.603c-5.8525,2.4697-11.7051,4.9395-17.5576,7.4097
				c2.5684-1.0337,5.1421-1.896,7.8687-2.4019c-6.5132,0.875-13.0264,1.75-19.5396,2.6255
				c1.3311-0.1787,2.5986-0.2515,3.9395-0.1646c-6.5132-0.8755-13.0264-1.7505-19.5396-2.6255
				c0.5889,0.0596,1.1665,0.1753,1.7329,0.3462C11.5439,11.5825,5.6914,9.1128-0.1611,6.6431
				c0.6084,0.2305,1.1768,0.5361,1.7051,0.9165C-3.4146,3.7285-8.373-0.1025-13.3315-3.9331
				c0.4883,0.355,0.9194,0.7695,1.2939,1.2427c-3.8311-4.9585-7.6616-9.917-11.4927-14.8755
				c0.3696,0.4722,0.6768,0.9814,0.9214,1.5288c-2.4702-5.8525-4.9399-11.7051-7.4097-17.5576
				c0.3545,0.9146,0.5864,1.7749,0.7656,2.7397c-0.875-6.5132-1.75-13.0264-2.6255-19.5396
				c0.1987,1.8286,0.1426,3.5889-0.0498,5.416c0.875-6.5132,1.75-13.0264,2.6255-19.5391
				c-1.2402,8.6909-4.5498,17.5425-7.8857,25.6235c2.4697-5.8525,4.9395-11.7051,7.4092-17.5576
				c-4.832,11.2148-11.4224,21.4199-18.8662,31.0669c3.8311-4.9585,7.6621-9.917,11.4932-14.8755
				C-45.7441-29.2964-55.2695-19.1431-64.7969-8.998c-14.5615,15.5059-27.8018,31.5913-40.5322,48.7046
				c-18.4946,24.8618-32.9268,52.4312-49.188,78.7344c-10.2329,16.5527-12.5244,38.04-7.4092,56.6357
				c2.4697,5.8525,4.9395,11.7051,7.4092,17.5576c6.5347,11.0449,15.3237,19.834,26.3687,26.3682
				c10.6284,8.0713,31.1094,12.5762,44.0752,11.9004c20.4731-1.0674,27.4312-4.6602,45.9629-12.5977
				c7.5645-3.2402,14.3379-8.2422,21.0571-12.917c13.3496-9.2871,26.3765-19.2861,37.7344-30.9717
				c12.8408-13.2119,23.9683-28.292,34.5239-43.332C70.106,109.853,83.0122,87.0308,96.4648,64.8667
				c7.2671-11.9736,14.3472-24.0596,21.0532-36.3569c5.48-10.0498,9.439-21.5923,16.3184-30.7642
				c-3.8306,4.9585-7.6616,9.917-11.4927,14.8755c1.1602-1.4116,2.3677-2.6831,3.7441-3.8853c-34.6479,0-69.2964,0-103.9443,0
				c1.187,0.9985,2.2319,2.0693,3.2129,3.2705c-3.8311-4.9585-7.6621-9.917-11.4927-14.8755
				c1.3589,1.8188,2.4385,3.7373,3.3604,5.8101c-2.4702-5.8525-4.9399-11.7051-7.4097-17.5576
				c1.4932,3.6631,2.3804,7.4521,2.9531,11.3594c-0.875-6.5132-1.75-13.0264-2.6255-19.5391
				c1.2368,9.6611,0.6104,19.4204-0.6792,29.0425c0.875-6.5132,1.7505-13.0259,2.6255-19.5391
				C9.3853,5.8423,3.6655,24.2285-3.8252,42.0176c2.4697-5.853,4.9395-11.7056,7.4092-17.5581
				c-11.3613,26.5449-26.3237,51.2671-41.0444,76.0366c-11.0957,18.6694-21.7412,37.6343-31.9214,56.8208
				c-7.4009,13.9473-13.7993,28.5811-19.2241,43.3818c-1.5093,4.1172-2.7354,8.3369-3.562,12.6445
				c-4.0547,21.127-3.623,28.293-0.4966,49.0674c2.3716,15.7578,12.0112,27.1523,21.3765,39.0918
				c8.8584,11.292,22.6763,16.3623,35.3896,21.3154c7.1631,2.79,15.4639,3.9209,23.1221,3.0361
				c20.0483-2.3164,22.8818-2.2988,41.2295-11.4365c9.4893-4.7266,17.9478-12.3545,25.4258-19.9307
				c8.6763-8.791,16.1201-19.3916,23.4941-29.082c9.5703-12.5762,18.0244-26.0107,26.1689-39.54
				c11.6069-19.2803,23.0664-39.0039,32.7524-59.3438c9.4243-19.791,18.8389-39.5869,28.0894-59.46
				c10.6729-22.9268,20.2842-46.2271,30.0244-69.5537c-2.4697,5.8525-4.9395,11.7051-7.4092,17.5576
				c3.4893-8.2056,7.396-16.1846,12.7397-23.3589c-3.8311,4.9585-7.6616,9.917-11.4927,14.8755
				c2.1216-2.7095,4.3291-5.1104,7.0249-7.2505c-4.9585,3.8306-9.917,7.6616-14.8755,11.4927
				c3.1943-2.3853,6.5869-4.3452,10.2212-5.9814c-5.8525,2.4702-11.7051,4.9399-17.5576,7.4097
				c3.3623-1.3984,6.752-2.4336,10.3589-2.9663c-6.5132,0.875-13.0264,1.7505-19.5396,2.6255
				c2.1108-0.2144,4.1328-0.2334,6.2402,0.0186c-6.5132-0.8755-13.0259-1.7505-19.5391-2.6255
				c1.1885,0.2222,2.2886,0.5088,3.4312,0.9033c-5.8525-2.4697-11.7051-4.9399-17.5576-7.4097
				c0.9854,0.4316,1.8965,0.8999,2.8066,1.4722c-4.9585-3.8311-9.917-7.6621-14.8755-11.4932
				c0.6909,0.5601,1.2393,1.1216,1.7969,1.8145c-3.8311-4.9585-7.6621-9.917-11.4927-14.8755
				c0.5244,0.7886,0.9521,1.5684,1.3535,2.4268c-2.4697-5.8525-4.9399-11.7051-7.4097-17.5576
				c0.9331,2.3638,1.439,4.7803,1.7935,7.291c-0.875-6.5132-1.7505-13.0264-2.6255-19.5391
				c1.5806,13.5464,0.9653,27.8145-0.8345,41.2686c0.875-6.5132,1.75-13.0264,2.6255-19.5391
				c-3.4727,24.1069-10.8062,47.8521-20.229,70.271c2.4697-5.8525,4.9395-11.7051,7.4092-17.5576
				c-7.4819,17.5454-16.2603,34.4766-24.875,51.4814c-6.8408,13.5039-12.6665,27.4805-18.5015,41.4424
				c-6.1528,14.7227-7.9907,28.2988-9.8779,44.4531c0.875,6.5127,1.7505,13.0264,2.6255,19.5391
				c3.4922,12.4512,9.793,23.2627,18.9023,32.4336c17.9492,17.9492,46.8203,26.8066,71.5112,18.9023
				c31.3965-10.0518,57.9907-30.2832,78.2388-56.0234c17.2671-21.9502,32.2554-44.5146,46.0181-68.7656
				c14.1514-24.9346,26.3311-50.6758,38.1162-76.7969c6.2842-13.9297,12.7861-27.7559,19.1611-41.6436
				c5.627-12.2593,11.6455-24.4185,19.8975-35.1548c-3.8311,4.9585-7.6611,9.917-11.4922,14.8755
				c3.2549-4.0825,6.751-7.9834,10.8555-11.2314c-4.959,3.8311-9.917,7.6616-14.876,11.4927
				c2.4004-1.7402,4.874-3.1719,7.5928-4.3545c-5.8525,2.4697-11.7051,4.9395-17.5576,7.4092
				c2.6602-1.0195,5.3135-1.7144,8.1328-2.1216c-6.5127,0.8755-13.0254,1.7505-19.5391,2.6255
				c2.8291-0.2813,5.5693-0.2466,8.3926,0.0903c-6.5127-0.875-13.0264-1.7505-19.5391-2.6255
				c2.8965,0.4712,5.6328,1.2275,8.3711,2.2803c-5.8525-2.4697-11.7051-4.9395-17.5576-7.4092
				c3.3584,1.4463,6.416,3.2368,9.3633,5.3999c-4.959-3.8311-9.917-7.6621-14.876-11.4932c3.0869,2.48,5.8213,5.2383,8.2803,8.3413
				c-3.8311-4.9585-7.6621-9.917-11.4932-14.8755c2.8359,3.7573,5.1201,7.7861,6.9922,12.1021
				c-2.4697-5.8525-4.9395-11.7051-7.4092-17.5576c2.6416,6.4219,4.2568,13.1104,5.2148,19.9775
				c-0.875-6.5132-1.75-13.0264-2.625-19.5391c1.6309,12.8794,0.9951,25.8677-0.7246,38.7031
				c0.875-6.5127,1.75-13.0259,2.625-19.5391c-3.1025,22.1133-9.2217,43.687-17.8311,64.2734
				c2.4697-5.8525,4.9395-11.7051,7.4092-17.5576C252.5386,87,235.6074,117.395,229.5415,150.8979
				c-2.0063,11.0811-3.7925,22.2285-4.7251,33.458c-1.5039,18.1104,4.3145,34.6436,11.9443,50.6191
				c9.3545,19.5879,31.2554,33.5967,51.6304,39.2998c17.0156,4.7637,34.8564,3.5674,51.791-0.6465
				c10.7393-2.6729,21.0156-7.7236,30.8252-12.7773c4.4258-2.2803,8.6406-4.9902,12.666-7.9131
				c8.8857-6.4541,17.624-13.0195,25.2666-20.8936c8.0967-8.3408,15.0293-18.002,21.8242-27.3369
				c6.7061-9.2129,11.9961-19.3984,16.5498-29.8174c7.1055-16.2568,13.6582-32.4785,18.9063-49.4072
				c8.582-27.6831,14.6104-56.2446,25.7607-83.0806c-2.4697,5.8525-4.9395,11.7051-7.4092,17.5576
				c4.2061-9.9419,8.4678-19.8604,12.6162-29.8271c-2.4697,5.8525-4.9395,11.7051-7.4092,17.5576
				c2.002-4.728,4.0986-9.4336,7.0889-13.6318c-3.8311,4.9585-7.6621,9.917-11.4932,14.8755
				c1.0557-1.3564,2.1543-2.5566,3.5088-3.6187c-4.958,3.8306-9.917,7.6616-14.875,11.4927
				c0.4766-0.3467,0.9824-0.6445,1.5176-0.8931c-5.8525,2.4697-11.7051,4.9395-17.5576,7.4092
				c0.5088-0.2358,1.0381-0.4082,1.5889-0.5181c-6.5137,0.875-13.0264,1.7505-19.54,2.6255
				c0.8896-0.1152,1.6367-0.1084,2.5254,0.0103c-6.5127-0.875-13.0264-1.75-19.5391-2.6255
				c0.6182,0.1265,1.2129,0.3228,1.7842,0.5889c-5.8525-2.4697-11.7051-4.9395-17.5576-7.4097
				c0.6582,0.3071,1.2813,0.6738,1.8701,1.0996c-4.959-3.8311-9.917-7.6621-14.876-11.4927c1.9629,1.5269,3.54,3.2852,5.0742,5.2363
				c-3.8311-4.9585-7.6621-9.917-11.4932-14.8755c4.3086,5.9927,7.9297,12.2437,10.8311,19.0371
				c-2.4697-5.8525-4.9395-11.7051-7.4092-17.5576c3.7324,9.1147,6.1309,18.6045,7.5332,28.3442
				c-0.876-6.5132-1.751-13.0259-2.626-19.5391c1.8447,13.9268,1.6445,27.9619-0.1748,41.8799
				c0.875-6.5127,1.75-13.0259,2.625-19.5391c-2.334,16.7109-7.2881,32.603-13.7617,48.1538
				c2.4697-5.8525,4.9395-11.7051,7.4092-17.5576c-9.4893,22.3711-20.9512,43.7441-30.2451,66.2256
				c2.4697-5.8525,4.9395-11.7051,7.4092-17.5576c-9.6133,22.5205-20.7148,43.3213-19.9736,68.6348
				c0.4463,15.2568,4.1738,31.6494,12.3955,44.7354c3.7227,5.9248,8.04,12.5156,13.6035,17.1602
				c16.2529,13.5703,15.2998,12.2441,35.0791,20.3789c8.2041,3.374,18.0186,4.082,26.915,3.3779
				c9.3223-0.7383,20.0977-1.7793,29.334-4.9785c13.4854-4.6709,26.7969-10.71,39.0146-18.165
				c19.2383-11.7402,37.8594-25.7441,52.3145-43.1162c12.0029-14.4248,23.1592-29.4043,31.7354-46.1055
				c8.5176-16.5879,15.5322-34.1299,21.502-51.7969c5.0186-14.8525,8.9561-30.0537,12.7969-45.2451
				c1.9375-7.6606,3.8379-15.3306,5.8037-22.9844c1.6816-6.5454,2.6338-13.6914,5.2168-19.9492
				c-2.4697,5.8525-4.9395,11.7051-7.4092,17.5576c0.4424-0.916,0.9121-1.7446,1.4883-2.583
				c-3.8311,4.9585-7.6621,9.917-11.4932,14.8755c0.377-0.5029,0.8037-0.96,1.2783-1.3721
				c-4.958,3.8311-9.917,7.6621-14.875,11.4932c0.4756-0.4102,0.9941-0.7549,1.5566-1.0347
				c-5.8525,2.4697-11.7051,4.9395-17.5576,7.4092c0.9941-0.4165,1.8809-0.6479,2.9482-0.8101
				c-6.5127,0.8755-13.0264,1.7505-19.5391,2.6255c0.8125-0.0713,1.625-0.0625,2.4365,0.0269
				c-6.5137-0.875-13.0264-1.7505-19.5391-2.6255c1.46,0.2148,2.8115,0.4463,4.1934,0.9697
				c-5.8525-2.4702-11.7051-4.9399-17.5576-7.4097c0.8779,0.3975,1.6729,0.8521,2.4629,1.4028
				c-4.959-3.8306-9.917-7.6616-14.876-11.4927c0.9746,0.7666,1.8154,1.6025,2.6094,2.5532
				c-3.8311-4.9585-7.6621-9.917-11.4932-14.8755c1.1523,1.5137,2.0586,3.1221,2.8457,4.8516
				c-2.4697-5.8525-4.9395-11.7051-7.4092-17.5576c1.7383,4.1431,2.6582,8.5049,3.2588,12.9438
				c-0.875-6.5132-1.75-13.0259-2.625-19.5391c1.3037,10.7466,0.8105,21.6777-0.5693,32.3921
				c0.875-6.5132,1.75-13.0259,2.626-19.5391c-2.3848,17.6357-10.5547,33.6768-16.9521,50.1099
				c-4.1602,10.6885-7.75,21.6455-9.3633,33.0332c-3.2686,23.0703-5.5645,45.7529,2.877,68.3379
				c2.4697,5.8525,4.9395,11.7051,7.4092,17.5576c6.5342,11.0449,15.3232,19.834,26.3682,26.3682
				c16.9746,9.9443,37.665,12.6279,56.6357,7.4092c18.3721-5.0527,34.3018-17.3467,43.9258-33.7773
				c9.2207-15.7402,14.0176-38.9541,7.4092-56.6357c-1.3984-3.7441-2.373-7.5303-2.9824-11.4805
				c0.875,6.5137,1.75,13.0264,2.625,19.54c-0.7529-5.9482-0.626-11.8369,0.1064-17.7803c-0.875,6.5127-1.75,13.0264-2.625,19.5391
				c3.6133-25.5039,17.1748-47.8252,24.3271-72.2725c0.7832-2.6768,1.1895-5.5,1.6162-8.249
				c1.5908-10.2529,3.0957-20.5884,3.8994-30.9497c1.1904-15.3521-0.958-29.8892-3.25-45.1831
				C657.2388,7.729,646.772-12.668,633.1587-24.6699c-11.085-9.772-24.5518-19.4985-39.6523-21.7173
				c-17.0762-2.5088-26.3486-4.3672-43.5684,0.4082c-12.2012,3.3843-27.9004,11.8135-36.1631,21.6841
				C500.5005-8.438,500.98-7.6836,492.9819,11.6968c-0.8711,2.1089-1.3213,4.4092-1.8066,6.6284
				c-1.3545,6.2007-3.0107,12.3203-4.5713,18.4722c-3.2314,12.7393-6.3467,25.5068-9.8174,38.1836
				c-4.1074,14.998-8.8252,29.8379-14.8369,44.1895c2.4697-5.8525,4.9395-11.7051,7.4092-17.5576
				c-6.2881,14.7451-14.0068,28.7549-23.7646,41.499c3.8311-4.959,7.6621-9.917,11.4922-14.876
				c-6.3564,8.1328-13.3369,15.9316-21.5088,22.2803c4.959-3.8301,9.917-7.6611,14.876-11.4922
				c-11.0986,8.5547-23.0469,16.4746-35.9316,22.0674c5.8525-2.4697,11.7051-4.9395,17.5576-7.4092
				c-4.3301,1.8223-8.7734,3.3652-13.4453,4.001c6.5127-0.875,13.0264-1.75,19.5391-2.626
				c-1.6826,0.1826-3.333,0.2334-5.0195,0.0693c6.5137,0.875,13.0264,1.75,19.54,2.625c-1.2842-0.1797-2.4844-0.4795-3.6836-0.9727
				c5.8525,2.4697,11.7051,4.9395,17.5576,7.4102c-0.7412-0.3564-1.4131-0.7568-2.0771-1.2422
				c4.959,3.8301,9.917,7.6611,14.876,11.4922c-0.6465-0.5391-1.2041-1.1074-1.7354-1.7598
				c3.8311,4.958,7.6621,9.917,11.4932,14.875c-0.5303-0.7402-0.9658-1.4932-1.3584-2.3145
				c2.4697,5.8525,4.9395,11.7051,7.4092,17.5576c-0.6172-1.4932-0.998-3-1.2568-4.5928c0.875,6.5127,1.75,13.0264,2.625,19.5391
				c-0.2168-2.2363-0.1172-4.3682,0.1787-6.5928c-0.876,6.5137-1.751,13.0264-2.626,19.5391
				c0.9658-5.4775,2.9043-10.6377,5.0537-15.749c-2.4697,5.8525-4.9395,11.7051-7.4092,17.5576
				c4.3369-10.0723,8.8643-20.042,12.9023-30.252c-2.4707,5.8525-4.9404,11.7051-7.4102,17.5576
				c13.126-28.1299,27.8545-55.6523,37.2227-85.376c5.0293-15.957,6.8623-32.7217,8.876-49.252
				c1.333-10.937,1.4619-22.0122,0.4912-32.9824c-1.4736-16.6489-3.5547-33.9209-9.2578-49.7808
				c-8.1455-22.6504-17.6191-39.8833-33.4229-58.0645c-5.1611-5.938-12.4639-10.6772-18.7939-14.7998
				c-13.9141-9.0605-24.7988-9.1035-40.667-11.2217c-7.4355-0.9927-15.7344,0.4761-22.792,3.248
				c-16.3184,6.4097-22.1719,8.9551-35.4004,21.0244c-15.7822,14.3994-22.8359,35.6382-30.6055,54.686
				c2.4707-5.8525,4.9404-11.7051,7.4102-17.5576c-11.1611,24.4702-19.5498,49.1816-26.7402,75.0063
				c-5.8467,21.001-11.5381,42.1182-20.0303,62.2417c2.4697-5.8525,4.9395-11.7051,7.4092-17.5571
				c-5.2197,12.1567-11.4814,23.7983-19.5146,34.3403c3.8311-4.959,7.6611-9.917,11.4922-14.876
				c-5.0293,6.4482-10.6338,12.3281-16.9141,17.5713c4.959-3.8311,9.917-7.6611,14.876-11.4922
				c-6.1719,4.6904-12.8701,8.6855-19.9834,11.7725c5.8525-2.4697,11.7051-4.9395,17.5576-7.4092
				c-3.9443,1.6221-7.9414,2.9004-12.1729,3.5088c6.5127-0.875,13.0264-1.751,19.5391-2.626
				c-1.9307,0.2012-3.8008,0.2451-5.7354,0.0742c6.5137,0.876,13.0264,1.751,19.54,2.626
				c-1.4541-0.2129-2.8027-0.5371-4.1865-1.0303c5.8525,2.4697,11.7051,4.9395,17.5576,7.4092
				c-1.3447-0.5928-2.5146-1.2813-3.6855-2.1699c4.959,3.8311,9.917,7.6611,14.876,11.4922c-0.25-0.2773-0.499-0.5547-0.748-0.8311
				c3.8301,4.958,7.6611,9.917,11.4922,14.875c-0.6855-0.9404-1.2217-1.8516-1.7236-2.9023
				c2.4707,5.8525,4.9404,11.7051,7.4102,17.5576c-0.583-1.5225-0.9658-3.0166-1.2441-4.623
				c0.875,6.5137,1.75,13.0264,2.626,19.5391c-0.4834-3.9951-0.2461-7.9355,0.2451-11.9189
				c-0.875,6.5127-1.751,13.0264-2.626,19.5391c2.4717-17.7334,7.6104-34.5713,14.4902-51.0723
				c-2.4697,5.8525-4.9395,11.7051-7.4092,17.5576c12.4287-29.4453,27.1699-58.0293,35.333-89.0679
				c4.207-15.9951,6.2725-32.1284,8.4697-48.5254c1.4395-10.748,2.0996-21.5723,1.3682-32.4048
				c-0.75-11.1172-2.2568-22.2744-4.5459-33.1831c-2.2783-10.8604-7.4844-21.2847-11.8174-31.2725
				c-4.1455-9.5576-11.7656-18.0093-18.0156-25.895c-6.9414-8.7598-16.7119-15.5269-25.7627-21.6758
				c-6.8477-4.6523-18.084-8.5718-24.3135-10.9673c-2.7383-1.0527-5.4746-1.8091-8.3711-2.2803
				c-18.626-3.0317-35.8232-4.6245-54.2783,1.5229c-17.8438,5.9443-31.064,13.8818-44.8574,26.7866
				c-9.1577,8.5679-16.5459,19.231-23.5117,29.5874c-10.9336,16.2554-18.3213,35.1577-26.4829,52.8882
				c-9.2871,20.1758-18.1211,40.5576-27.9287,60.4907c-14.6875,29.8521-31.4741,60.0557-51.7593,86.4971
				c3.8311-4.958,7.6621-9.917,11.4927-14.875c-7.6841,9.8926-16.085,19.2637-25.98,27.001
				c4.9585-3.8311,9.917-7.6621,14.8755-11.4922c-4.7944,3.6465-9.8525,6.8213-15.3682,9.2627
				c5.8525-2.4697,11.7051-4.9395,17.5576-7.4092c-1.7485,0.7314-3.5117,1.3857-5.3169,1.9629
				c31.0127,23.625,62.0259,47.25,93.0391,70.875c0.0645-0.5508,0.1289-1.1016,0.1929-1.6533
				c-0.875,6.5137-1.75,13.0264-2.6255,19.54c1.207-8.0947,3.915-15.7373,7.0596-23.2617
				c-2.4697,5.8525-4.9395,11.7051-7.4092,17.5576c5.8872-13.751,12.7061-27.0059,19.4443-40.3506
				c9.5376-18.8887,18.0649-38.0957,26.0566-57.7061c5.9087-14.498,10.5464-29.6099,14.2285-44.8198
				c3.1797-13.1362,4.709-26.4609,6.501-39.8574c1.0068-7.5215,2.1963-15.6099,1.5586-23.2065
				c-1.252-14.937,0.5078-30.5737-5.1426-44.8926c-7.7705-19.6929-7.4302-18.9155-20.8022-35.5396
				c-4.8232-5.9961-11.7876-10.9707-18.9321-14.0991c-20.1353-8.8169-19.3052-8.4023-41.7334-11.082
				c-8.9795-1.0732-18.4277,1.52-27.1699,3.1909c-2.6763,0.5112-5.2563,1.4839-7.7627,2.5264
				c-7.7285,3.2144-16.1963,6.1812-23.5767,10.5229c-9.606,5.6509-19.168,12.7549-26.103,21.6108
				c-7.6582,9.7793-14.8579,18.5464-20.3076,29.5308c-5.647,11.3823-10.2471,23.2983-14.915,35.1108
				c-1.7085,4.3237-3.3984,8.6538-5.2036,12.939c2.4697-5.8525,4.9395-11.7056,7.4092-17.5581
				C38.2627,32.9419,23.5337,62.5708,9.3643,92.3276c-3.3984,7.1362-7.2222,14.085-10.9766,21.0371
				c-14.4419,26.7422-29.5981,53.5566-47.9448,77.8467c-0.3438,0.4531-0.689,0.9053-1.0361,1.3564
				c3.8311-4.959,7.6616-9.917,11.4927-14.876c-5.1592,6.6758-10.6357,13.4092-17.3472,18.5986
				c4.9585-3.8311,9.917-7.6611,14.8755-11.4922c-1.6758,1.2588-3.4209,2.3965-5.3457,3.2402
				c5.8525-2.4697,11.7051-4.9395,17.5576-7.4102c-0.9614,0.3916-1.9282,0.6904-2.9551,0.8516
				c6.5132-0.876,13.0264-1.751,19.5391-2.626c-0.6826,0.0791-1.3438,0.0898-2.0273,0.0127c6.5132,0.875,13.0264,1.75,19.5396,2.625
				c-0.5405-0.0879-1.0454-0.2246-1.5557-0.4229c5.8525,2.4697,11.7051,4.9395,17.5576,7.4092
				c-0.5117-0.2314-0.9736-0.5059-1.4263-0.8379c4.9585,3.8311,9.917,7.6621,14.8755,11.4932
				c-0.5781-0.4697-1.0708-0.9902-1.5303-1.5762c3.8311,4.959,7.6616,9.917,11.4927,14.876
				c-0.5068-0.7012-0.9092-1.4365-1.2817-2.2158c2.4697,5.8535,4.9395,11.7051,7.4092,17.5586
				c-0.5938-1.4473-0.96-2.8984-1.1924-4.4434c0.875,6.5127,1.7505,13.0254,2.6255,19.5391
				c-0.2969-2.6943-0.1655-5.3447,0.1797-8.0283c-0.875,6.5127-1.7505,13.0264-2.6255,19.5391
				c1.1104-7.3545,3.6309-14.3867,6.4741-21.2305c-2.4697,5.8525-4.9395,11.7051-7.4097,17.5576
				c7.2114-17.0049,16.6904-33.1553,25.6436-49.291c13.9575-25.1572,29.6118-49.334,43.104-74.7559
				c9.4438-17.793,17.4829-36.3682,24.7129-55.1558c3.7485-9.7407,6.8589-19.748,9.1738-29.9268
				c3.5459-15.5933,5.7754-31.6777,6.6973-47.6289c0.2788-4.8213,0.2046-9.6582-0.2461-14.4663
				c-0.9624-10.272-1.7148-22.1797-5.4707-32.2485c-5.7979-15.543-12.7393-31.4121-25.8555-42.4448
				c-4.9585-3.8311-9.917-7.6621-14.8755-11.4932c-11.4639-6.6484-23.8291-9.9937-37.0967-10.0347
				c-20.5161,0-36.8989,8.3652-51.9722,21.5278C7.9463-82.8115,1.7266-66.6787-6.6909-50.7515
				c-7.7363,14.6392-16.1729,28.8999-24.7622,43.0513c-15.4126,25.394-30.0898,51.748-48.1665,75.3745
				c3.8311-4.9585,7.6621-9.917,11.4927-14.8755c-9.481,12.2246-20,23.5557-32.2354,33.0718
				c4.9585-3.8311,9.917-7.6621,14.8755-11.4932c-8.606,6.5278-17.8994,13.1772-27.853,17.4409
				c5.8525-2.4697,11.7051-4.9395,17.5576-7.4092c-2.2559,0.9004-4.5122,1.6255-6.9136,2.0176
				c6.5132-0.8755,13.0264-1.7505,19.5396-2.6255c-1.1914,0.1313-2.3257,0.1665-3.521,0.0664
				c6.5132,0.875,13.0264,1.7505,19.5396,2.6255c-0.8213-0.1348-1.5591-0.3193-2.3433-0.5981
				c5.8525,2.4702,11.7051,4.9399,17.5576,7.4097c-0.7476-0.3525-1.3735-0.7324-2.0317-1.2324
				c8.7896,33.521,17.5791,67.0415,26.3687,100.562c17.5107-28.3252,33.0527-57.9336,53.4556-84.3672
				c-3.8306,4.958-7.6616,9.917-11.4927,14.875c8.7031-11.1318,18.375-21.377,28.0352-31.6719
				c13.1919-14.0586,25.0542-28.6392,36.853-43.9307C91.1489,32.1372,98.585,15.3936,105.7373-2.731
				c1.8511-4.6904,3.3867-9.5864,4.8506-14.4121c3.1992-10.5444,5.7192-22.3428,4.5337-33.2515
				c-2.0366-18.7446-2.3896-23.7266-11.2168-40.6338c-6.2212-11.9155-17.8364-21.8545-28.9663-28.8442
				c-19.4673-12.2261-44.8389-13.1597-66.48-7.2524c-15.2451,4.1611-28.8496,12.231-42.3418,20.0845
				c-30.3008,17.6377-59.5083,37.1904-85.0464,61.4248c-18.1123,17.187-30.8892,38.7666-45.917,58.4839
				c3.8311-4.9585,7.6621-9.917,11.4927-14.8755c-3.0381,3.9067-6.2227,7.6572-9.6904,11.1904
				c-28.0493,28.5771-28.5151,75.4297,0,103.9443C-134.9253,141.2466-87.1548,141.7104-59.1001,113.1274L-59.1001,113.1274z"/>
		</g>
	</g>
	<g display="inline">
		<g>
			<path fill="#E6E6E6" d="M-106.6553-41.7261c-17.6792,3.5825-27.8242,22.6675-22.1348,39.4985
				c5.6494,16.7104,19.6313,26.2256,36.6953,28.2095c7.4185,0.8623,17.0542-2.2251,22.9014-6.7109
				c7.6553-5.873,12.4385-12.6743,16.3101-21.377c1.0776-2.4219,2.2729-4.7456,3.7441-6.9526
				c2.6016-3.9028-3.5024,3.8247-0.1387,0.6392c-4.7339,4.4829-0.9253,0.8398,0.7793-0.1787
				c7.666-4.5815,14.8794-9.2275,19.4487-17.2363c-13.7085-5.7788-27.4165-11.5581-41.1245-17.3374
				c-5.9956,22.2593,0.8418,47.8491,24.4868,55.7324c13.124,4.3755,27.6563-1.6514,36.4297-11.5781
				c7.5015-8.4878,11.769-18.3027,16.082-28.6157c-14.4644-3.9878-28.9282-7.9751-43.3926-11.9629
				c-2.52,9.1206-5.5195,17.6216-5.9487,27.23c-0.7471,16.7231,10.5967,29.1587,25.6309,34.3047
				c12.9961,4.4478,26.9087-0.7856,36.3994-9.8262c6.4067-6.1025,10.1929-14.2788,15.0737-21.501
				c-13.9761-3.7852-27.9521-7.5708-41.9282-11.356c0.7344,22.0928,17.0259,37.5532,38.9453,38.23
				c12.2646,0.3784,22.5-10.5215,22.5-22.5c0-12.5513-10.2441-22.1216-22.5-22.5c-5.0342-0.1553,5.293,1.21,0.6704,0.1279
				c-2.2695-0.7437-1.6118-0.4331,1.9731,0.9316c-1.9775-1.2158-1.4087-0.7031,1.707,1.5396
				c-1.6069-1.6392-1.1816-0.9741,1.2759,1.9951c-1.1616-1.9961-0.9346-1.2295,0.6802,2.2993
				c-0.2813-0.752-0.5044-1.521-0.6699-2.3066c0.4038,3.9331,0.543,4.6611,0.418,2.1831
				c-0.334-10.0498-6.624-18.9746-16.5186-21.6963C10.9238-45.251,1.4287-40.5327-4.2695-32.1006
				c-2.8188,4.1709-5.1543,8.6406-8.0542,12.7607c3.9507-5.6138,1.9014-2.4209,0.7578-1.1372
				c-1.3989,1.5713-5.3623,3.9521,0.6104-0.1367c-3.3125,2.2676,5.5503-1.8477,1.7324-0.6108
				c-2.2739,0.5068-1.3027,0.3887,2.915-0.354c-2.3271-0.0894-1.4634,0.0586,2.5918,0.4443
				c-1.9155-0.356-4.7979-2.4004,0.5161,0.396c2.8804,2.4751,3.5166,2.9385,1.9092,1.3901c1.8511,1.7568,3.0864,3.875,3.7051,6.354
				c-1.519-3.8389,0.3564,6.0298,0.0767,1.7598c-0.1245-1.9004,0.9243-7.272-0.2983,0.1167
				c0.9331-5.6396,3.1143-11.0234,4.6318-16.5156C10.0889-39.4492,2.9175-52.063-8.8906-55.311
				c-5.8076-1.5977-12.1411-0.7759-17.3374,2.2681c-5.5493,3.251-7.9595,7.7539-10.3403,13.4468
				c3.3462-8.002,0.0366-0.2021-0.8179,1.6069c-1.2549,2.6558-2.6846,5.2173-4.2544,7.6982
				c-0.8418,1.3301-3.7178,4.6938,0.563-0.5464c-0.7515,0.9199-1.6045,1.7412-2.4668,2.5542c4.356-4.106,2.791-2.0215,0.9312-0.9922
				c3.8042-1.4302,4.6064-1.8374,2.4072-1.2222c2.5112-0.7637,5.0264-0.7881,7.5454-0.0742
				c-4.1201-0.6699,4.98,2.6646,1.4878,0.7998c4.6978,2.5083,3.3677,2.9321,1.5972,1.0405
				c4.2261,4.5142,2.4429,3.2974,1.4019,1.2925c3.27,6.2988,1.1855,2.7803,0.668,0.5356c-0.9526-4.1294,0.5835,6.0366,0.2505,1.7744
				c-0.1108-1.418-0.0649-2.8447-0.0039-4.2637c0.0776-1.7954,0.8306-5.8301-0.3481,1.8862
				c0.1914-1.2515,0.4966-2.4814,0.8257-3.7026c2.6279-9.7559-1.6045-20.2925-10.3403-25.4097
				c-10.4951-6.1479-24.7158-2.5645-30.7842,8.0723c-1.1938,1.9888-0.7036,1.4277,1.4707-1.6841
				c-1.6807,1.5615-1.0806,1.1655,1.8008-1.1885c-1.6963,1.2656-3.6113,2.2642-5.4453,3.311
				c-6.5654,3.748-11.7495,8.2871-16.3389,14.2612c-2.7349,3.5605-4.5879,7.374-6.4014,11.4619
				c-0.894,2.0156-1.8604,3.9766-2.9707,5.8818c-1.3066,1.9556-0.9004,1.4873,1.2192-1.4048
				c-2.9287,3.5469,4.459-2.6924,0.418-0.1001c-3.2046,2.0557,5.5015-1.5391,0.0991-0.394
				c4.2856-0.4492,5.2671-0.6377,2.9434-0.5649c-4.0508,0.0498,6.0254,1.1855,2.1538,0.2432
				c-2.1548-0.6973-1.2485-0.269,2.7183,1.2847c-0.8564-0.3735-1.6479-0.8818-2.4321-1.3838
				c6.1182,3.9131,2.1504,1.7339,0.5063-0.1538c2.5376,3.436,3.1963,4.2402,1.9761,2.4136
				c-1.0132-1.5542-2.1069-4.8838,0.7915,2.3726c-0.1836-0.4966-0.3389-1.0015-0.4653-1.5156
				c-0.9536-3.4561,0.4946,6.5103,0.4727,3.0322c0.0308,4.9312-1.3555,7.4292-4.5537,10.9512
				c-3.7192,2.6196-4.6362,3.356-2.7515,2.2085c-5.1084,3.0137-4.5688,1.7017-1.9971,1.1807
				c12.0259-2.437,18.7959-16.4771,15.7148-27.6777C-82.3945-38.4341-94.646-44.1597-106.6553-41.7261L-106.6553-41.7261z"/>
		</g>
	</g>
	<g display="inline">
		<g>
			<path fill="#E6E6E6" d="M446.1235,25.9277c15.7051-0.7725,31.1943,1.9414,46.752,3.6235
				c17.1064,1.8496,33.6504,0.3232,50.6104-2.2456c3.7178-0.5635,7.4209-1.2207,11.1201-1.8857
				c1.373-0.2471,7.5303-0.8926,0.6768-0.3081c1.1709-0.0996,2.3486-0.1362,3.5215-0.1987
				c9.5029-0.5068,18.8506-2.8179,25.5264-10.1211c14.8926-16.2915,8.7217-39.083-5.0342-53.729
				c-8.0479-8.5684-23.834-8.9487-31.8203,0c-8.6133,9.6519-11.4756,21.0615-11.5947,33.7852c15,0,30,0,45,0
				c-1.3105-14.6831-7.5117-25.8052-19.8408-34.0469c-7.7207-5.1611-19.5049-8.2085-28.7607-7.7856
				c-11.0537,0.5054-20.625,3.9561-29.1973,10.9429c-13.0273,10.6187-9.1777,29.5786,0.7783,40.3643
				c7.6514,8.2886,24.3574,9.3286,31.8203,0c8.6084-10.7598,14.6709-24.7939,9.2793-38.6182
				c-5.2217-13.3921-14.8008-21.6655-28.0557-26.7427c-10.3145-3.9502-24.498-2.8472-33.6279,3.5786
				c-12.6396,8.896-18.4678,23.4072-16.752,38.7227c1.1328,10.1108,6.0518,18.8169,16.5186,21.6963
				c10.9063,3,25.6338-3.6074,27.6777-15.7148c1.8008-10.6685,2.4268-20.1499-2.376-30.1719
				c-5.3418-11.1475-17.4014-15.6523-28.8691-16.6948c-13.9814-1.2705-26.8086,4.7988-34.9248,16.1357
				c-9.4639,13.2183-4.9453,30.542,5.6826,41.374c8.5869,8.752,23.2139,8.6069,31.8203,0c8.7305-8.73,8.584-23.0698,0-31.8193
				c-1.8291-1.9268-1.6787-1.6807,0.4531,0.7378c1.1807,1.9746,1.7959,4.1167,1.8467,6.4272
				c0.1367,5.2808-2.3311,8.5566-6.2969,11.562c2.0322-1.1782,1.3945-1.0112-1.9121,0.5015
				c2.3525-0.6421,1.665-0.6631-2.0635-0.0635c0.9307-0.0693,1.8613-0.082,2.793-0.0381c4.9033,0.0786-5.4004-1.0615-1.1191-0.2563
				c5.293,0.9951-3.6074-2.0913-1.0879-0.5723c-2.5127-1.4277-4.4785-3.4004-5.8975-5.9194
				c2.0537,2.7671-2.0352-5.9609-1.0508-2.5269c0.916,3.1929-0.3613-6.9307-0.4043-1.4614
				c-0.0205,0.7026-0.0645,1.4033-0.1309,2.1025c-0.3447,4.4009,0.9307-5.9365,0.1445-1.2798
				c14.7324,1.9937,29.4639,3.9878,44.1963,5.9814c-0.2002-1.7852-0.3135-3.5537-0.3105-5.3506
				c0.0029-1.8428,0.6016-5.8057-0.501,2.2959c0.1123-0.8228,0.3135-1.6284,0.5186-2.4312c1.2188-4.7734-2.8604,5.3804-0.5713,1.334
				c1.6289-2.8784-4.0703,4.8955-1.96,2.4399c0.4082-0.4751,0.8848-0.8867,1.3574-1.2949c-3.8135,2.7925-4.832,3.6133-3.0547,2.4629
				c1.5586-0.9878,4.7373-1.9517-3.1924,1.2183c2.2627-0.9048,7.2607-0.998-1.79-0.1069c1.0527-0.1035,2.1152-0.0557,3.167,0.0205
				c-8.7559-0.6372-3.9834-0.6377-1.5039,0.0811c5.0977,1.4775-4.0352-1.9277-1.668-0.79c1.2031,0.5786,2.3291,1.3022,3.416,2.0713
				c-6.7344-4.7607-3.1514-2.521-1.5869-0.9229c3.082,3.1484-3.5928-5.6367-0.8398-0.9541c2.2607,3.8452-2.083-6.1489-0.8252-1.8779
				c0.5469,1.8584,0.5488,5.1279-0.3633-3.4746c0.0693,0.6504,0.0459,1.3057,0.0234,1.9575
				c-0.1191,3.3843,1.1494-6.6548,0.3867-3.2842c-0.3926,1.7349-1.8955,4.918,1.2959-2.5967
				c-0.8564,2.0151-4.7012,6.7417,0.3379,0.4429c10.6064,0,21.2139,0,31.8203,0c2.1572,3.1289,2.6729,3.7944,1.5488,1.9956
				c4.6553,7.6543,2.2764,15.4302-2.874,21.8193c1.54-1.4805,0.6436-0.8164-2.6875,1.9917c1.4551-1.001,4.9092-2.0547-2.0449,0.6699
				c1.5537-0.6084,3.2021-0.9697,4.832-1.2949c4.0313-0.8032-6.1064,0.6372-2.1758,0.3306c0.832-0.0649,1.665-0.0503,2.498-0.0269
				c-8.1816-0.2329-1.5967-0.1621,0.9287,0.5024c0.8115,0.2266,1.6143,0.4814,2.4092,0.7637
				c-6.0781-2.0439-2.4473-1.0791-0.8398-0.2246c0.71,0.3989,1.3984,0.833,2.0635,1.3032
				c-5.1299-3.4292-2.3047-1.7305-0.9912-0.2915c-0.6934-0.8687-1.3877-1.7373-2.0811-2.6064
				c1.1221,2.0415,0.9121,1.3735-0.6318-2.0034c0.6563,1.6514,0.8086,5.7148,0.2461-0.584c1.0898,12.2114,9.4102,22.5,22.5,22.5
				c12.3525,0,22.3848-10.2363,22.5-22.5c0.0166-1.7891,1.1445-9.9487-0.0654-3.0342c0.1904-0.9629,0.4375-1.9106,0.7412-2.8438
				c-0.3916,0.9141-0.7842,1.8281-1.1758,2.7417c1.2383-2.042,0.877-1.6519-1.085,1.1704c-10.6064,0-21.2139,0-31.8203,0
				c1.46,1.6118,1.0391,0.9863-1.2637-1.8765c0.835,1.0903,1.5273,2.2837,2.2188,3.4663c1.0928,2.167,0.9395,1.6567-0.46-1.5308
				c0.7861,1.9121,0.873,5.7769,0.3135-0.9805c0.7861-4.2729,0.8369-5.0586,0.1523-2.3569
				c0.9707-3.4971,3.2158-6.2349,6.2646-8.1641c3.8887-1.4517,4.7227-1.8633,2.5029-1.2354
				c6.4355-1.667,3.8525-0.4399,1.5996-0.2915c-6.7061,0.4419-13.2402,1.605-19.8486,2.771
				c-3.0918,0.5454-6.1914,1.041-9.2949,1.5112c-6.2637,0.9487,4.7998-0.5708-1.4512,0.187
				c-1.8359,0.2227-3.6768,0.395-5.5186,0.564c-25.7568,2.3682-50.8682-5.2822-76.5674-4.0186
				c-12.2461,0.6021-22.5,9.7793-22.5,22.5C423.6235,15.2368,433.8638,26.5308,446.1235,25.9277L446.1235,25.9277z"/>
		</g>
	</g>
	<g display="inline">
		<g>
			<path fill="#E6E6E6" d="M-67.356,192.1411c-3.3286,7.3555-4.3271,14.4629-0.373,21.8428
				c3.9624,7.3955,13.4092,10.6543,21.2866,10.6279c15.999-0.0547,21.9912-14.96,26.7603-27.5117
				c-7.8569-1.0635-15.7144-2.127-23.5713-3.1904c0.3071,17.7988,12.5532,33.7129,31.5737,32.4658
				c16.1875-1.0615,31.1704-14.5703,28.8921-31.7529c-0.7153-5.3955-3.1484-10.0137-8.8101-11.5713
				c-6.4995-1.7881-12.7729,2.1563-14.7612,8.3809c-6.3423,19.8584,11.3345,32.7529,29.4463,32.3516
				c8.0991-0.1797,16.0376-2.5859,22.1743-7.9795c7.2168-6.3428,7.3911-17.7363,1.7725-25.0928
				c-6.0288-7.8926-18.8311-8.0264-21.9331,2.8662c-1.7339,6.0879-2.3447,8.1572-5.1396,12.6514
				c-0.3032,0.4873-2.2607,2.8682-0.3276,0.5381c-0.5522,0.666-1.1763,1.2656-1.8003,1.8623
				c-2.0718,1.9795,2.1382-1.4307-0.1929,0.166c-0.9116,0.625-1.9063,1.1182-2.9009,1.5918
				c2.8955-1.3789,0.3159-0.2246-0.3438-0.0146c-0.8618,0.2734-1.7471,0.4707-2.6279,0.6699
				c-0.9351,0.2119-1.8848,0.3555-2.8315,0.5029c3.0884-0.4805-1.4561,0.0596-2.0137,0.1006
				c-4.8706,0.3525-9.7598,0.2471-14.6382,0.3105c-9.1724,0.1211-18.3203,0.4189-27.4766-0.3545
				c-1.1514-0.0977-2.2993-0.2324-3.4468-0.3682c2.6309,0.3125-1.002-0.21-1.2651-0.2568c-2.4258-0.4287-4.8071-1.0576-7.1431-1.835
				c-3.0957-1.0303,2.144,1.0771-0.6777-0.2666c-0.6353-0.3027-3.8813-2.5-1.2734-0.4756c-0.6489-0.5039-1.2085-1.1045-1.7607-1.708
				c2.1113,2.3066,0.2427-0.0049-0.1631-0.9648c-1.4351,5.4727-2.8701,10.9453-4.3052,16.418
				c-3.6914,1.6572-0.1079,0.1934,0.9038-0.0547c0.4683-0.1074,0.9395-0.2031,1.4126-0.2871
				c2.6514-0.5039-2.9458,0.3203-0.1709,0.0176c3.0625-0.333,6.1602-0.3623,9.2378-0.4072
				c6.8765-0.0996,13.6416-0.2695,20.4375-1.4805c7.4419-1.3252,14.1074-5.3066,18.4663-11.4854
				c5.4082-7.666,4.833-17.5801,3.1333-26.3096c-1.251-6.4238-8.8242-10.0137-14.7612-8.3809
				c-6.6616,1.832-9.6304,8.3467-8.3813,14.7617c0.1724,0.8232,0.3218,1.6504,0.4487,2.4824
				c-0.1816-1.248-0.2061-1.1807-0.0723,0.2012c0.0703,0.9824-0.5215,5.9072,0.084,2.4805c-0.166,0.9404-1.5635,4.0547-0.0459,0.833
				c-1.374,2.917,1.5752-1.2686-0.6343,0.9355c-1.3906,1.3867,2.4106-1.4775-0.376,0.1543c-2.832,1.6592,2.0479-0.5586-1.1958,0.457
				c-1.2534,0.3926-2.5508,0.6396-3.8413,0.8691c-1.3213,0.2031-1.0767,0.1748,0.7334-0.0859
				c-0.8447,0.1025-1.6943,0.167-2.5425,0.2344c-11.8716,0.9414-23.771-0.6748-34.9492,4.3418
				c-6.4961,2.915-6.6255,10.9336-4.3052,16.418c4.6353,10.957,17.9131,15.2441,28.6851,16.8154
				c11.729,1.7109,23.4321,1.4941,35.2451,1.3008c12.0957-0.1973,24.1528,0.1123,35.3213-5.2051
				c11.7896-5.6123,17.293-19.0498,20.6377-30.793c-7.311,0.9551-14.6221,1.9111-21.9331,2.8662
				c0.5654,0.7402,1.0664,1.4873,1.5117,2.3057c-0.7573-1.9639-0.9468-2.3789-0.5684-1.2432
				c0.6592,2.0693-0.1846-3.2363-0.1738-1.1729c0.4136-2.3877,0.4824-2.9854,0.207-1.7939
				c-0.3838,1.1279-0.1616,0.6035,0.667-1.5732c-0.4121,0.8037,2.2871-2.2275-0.0562-0.168
				c2.8887-2.5391,1.0972-0.8916,0.0952-0.3428c-1.1006,0.5342-0.6968,0.3848,1.2114-0.4512
				c-0.5898,0.248-1.2017,0.4404-1.8105,0.6348c-1.0718,0.3418-2.1787,0.5654-3.2837,0.7676
				c-1.2842,0.2012-0.915,0.1514,1.1079-0.1465c-0.708,0.0791-1.4199,0.1104-2.1309,0.1426
				c-0.9551,0.042-1.9111,0.0098-2.8652-0.0332c-3.4639-0.1582,2.3403,0.5352-1.02-0.1182
				c-1.1177-0.2178-2.2061-0.5537-3.2788-0.9297c3.5996,1.2617,0.3457,0.083-0.5903-0.502
				c-1.7124-1.0693,2.2422,2.1221,0.1055-0.0674c-0.7983-0.9258-0.5361-0.583,0.7861,1.0293
				c-0.5576-0.8086-1.0996-2.6807,0.1709,0.7197c-1.0806-2.8916-0.1279,2.6523-0.0991-0.6494
				c0.0967-1.2822,0.0415-0.9541-0.166,0.9824c0.1401-0.8184,0.4014-1.6133,0.6533-2.4023
				c-7.8569-1.0635-15.7144-2.127-23.5713-3.1904c0.1548,1.166,0.2285,2.3027,0.2144,3.4785
				c-0.0269,2.1777,0.6758-2.5381-0.2114,0.7617c-0.5381,1.999,1.3125-2.2861-0.3062,0.6074
				c-1.5977,2.8574,0.9604-0.9268-0.3716,0.5313c-0.5874,0.6436-3.2627,2.5762-0.4087,0.5313
				c-0.8149,0.584-1.7061,1.0527-2.5986,1.5029c3.1396-1.584,0.2129-0.1494-0.6724,0.1084
				c-0.874,0.2549-4.2983,0.6172-0.5376,0.2314c-1.0044,0.1025-2.0166,0.0752-3.0229,0.0273
				c-2.1299-0.1006,2.8091,0.6484-0.5186-0.1924c-3.2158-0.8115,1.1797,0.7354-0.6309-0.1758
				c-0.7915-0.3975-3.2954-2.5-0.7153-0.3115c-0.6279-0.5322-2.6665-3.2471-0.771-0.5996
				c-0.4121-0.5752-1.9609-3.9287-0.7979-1.0391c-0.4897-1.2168-0.7798-2.5039-1.0498-3.7832
				c0.5747,2.7236-0.0566-1.7637-0.0674-2.3916c-0.0923-5.3496-3.5952-10.1367-8.8101-11.5713
				c-6.7583-1.8594-12.4404,2.2725-14.7612,8.3809c-0.4458,1.1738-0.8857,2.3496-1.3252,3.5264
				c-0.2935,0.7842-0.5933,1.5664-0.9004,2.3457c0.4258-0.9473,0.3438-0.7715-0.2456,0.5293
				c-0.4897,1.0742-1.0762,2.0928-1.6792,3.1055c-0.4897,0.8223-1.0527,1.0156-0.1592,0.3975
				c-1.8315,1.2686-0.2021,0.0752,0.6919-0.0117c-0.6563,0.0635-2.6787-0.6318-1.7271-0.1592
				c0.874,0.4336,1.2524,1.6426,1.5542,2.4609c0.1992,0.7178,0.165,1.4219-0.103,2.1104c0.4263-1.291,0.4546-1.5469,0.0859-0.7695
				c2.6968-5.959,1.7686-12.8604-4.3052-16.418C-56.1348,184.7915-64.6582,186.1802-67.356,192.1411L-67.356,192.1411z"/>
		</g>
	</g>
	<g display="inline">
		<g>
			<path fill="#E6E6E6" d="M313.6763,29.4707c1.5918-0.2627-1.9102,0.1934-0.1426,0.0435c0.542-0.0464,1.0879-0.0596,1.6318-0.0757
				c1.2773-0.0376,2.5576,0.0068,3.834,0.0562c3.4932,0.1348,6.9795,0.4766,10.457,0.812
				c8.2939,0.8003,16.5713,1.7314,24.8887,2.2637c14.6143,0.9351,33.5537,1.8125,45.0986-8.9082
				c6.3955-5.939,7.9961-16.3687,4.127-24.0679c-6.2588-12.4551-22.3389-12.4541-29.6699-0.9751
				c-5.1416,8.0498-0.2754,20.3696,9.5479,21.0566c5.2031,0.3643,8.6455-4.5264,10.0244-8.8452
				c1.8574-5.8169,0.3037-12.0688-2.9326-17.0371c-7.168-11.0024-23.8281-17.2363-33.0215-5.2695
				c-6.8701,8.9424-6.9316,25.751,4.0029,31.6123c2.8945,1.5518,6.7529,1.3564,9.0889-1.1729
				c13.6084-14.7388-2.7734-29.73-17.9932-32.1079c-7.1641-1.1196-16.1143-0.4897-20.0146,6.6953
				c-5.0469,9.2979,2.9609,19.4946,8.8105,26.127c2.7783,3.1499,7.7559,2.644,10.6074,0
				c13.9092-12.9004-9.8496-36.0278-23.1211-37.0693c-9.8467-0.7729-16.6016,6.4897-17.5742,15.7207
				c-0.9854,9.3584,5.9287,17.8105,14.0918,21.1313c3.6309,1.4771,8.457-1.5723,9.2266-5.2383
				c3.5605-16.978-16.2334-27.4775-30.9316-24.6714c-7.7939,1.4883-15.2852,7.647-14.3848,16.269
				c0.8955,8.5723,8.0254,14.5708,16.0713,16.5024c7.9512,1.9092,13.7861-10.0508,5.7793-13.708
				c-7.0752-3.2314-15.5391-4.0464-22.7246-0.793c-10.25,4.6401-5.8242,18.0283,1.4551,22.7705
				c7.2891,4.749,18.3721,4.71,26.792,5.0161c13.8975,0.5054,28.1367-0.7607,41.3057-5.4219
				c9.0527-3.2041,5.1543-17.7002-3.9883-14.4639c-15.5928,5.5195-32.2334,5.7578-48.5264,4.0137
				c-2.373-0.2539-4.7148-0.8232-6.9795-1.564c-0.8223-0.269-1.125-0.5405-1.6875-1.1021c1.0342,1.0327,0.5195,2.2832-0.418,3.3228
				c-0.9668,1.0718-0.1426,0.394-0.2764,0.4092c1.2109-0.1382,2.4453-0.064,3.6563,0.0107
				c0.9424,0.0586,1.1963,0.1592,2.3906,0.4258c0.4004,0.0894,3.2305,1.1504,1.4307,0.3281
				c1.9258-4.5693,3.8525-9.1387,5.7793-13.708c-1.916-0.46-4.5186-1.3887-5.1309-3.1641c0.1455,0.4229-0.5586,0.8086-0.1943,0.5469
				c1.1055-0.791,2.4248-1.0684,3.6855-1.1489c3.0938-0.1968,13.291,2.0469,12.4316,6.1426
				c3.0752-1.7461,6.1514-3.4922,9.2266-5.2383c-1.8867-0.7676-3.0439-4.1128-3.1074-5.8013
				c-0.0371-0.9854,0.2754-1.3535,0.3926-1.4785c0.0684-0.0728,1.418-0.1396,1.8008-0.0444c3.3018,0.8237,6.6846,4.3198,9.083,7.02
				c1.083,1.2197,2.418,3.2056,2.8809,4.3481c0.0283,0.0693,0.6016,2.6094,0.4492,1.1353c0.1768,1.7075,1.7471-2.2524,0.5088-1.1045
				c3.5361,0,7.0713,0,10.6074,0c-2.2764-2.5801-4.3086-5.2471-5.7959-8.3667c0.7666,1.6084-0.3994-3.4414-0.1709-0.5605
				c-0.1426-1.8008-0.541,1.0547-0.3203,0.6484c0.2676-0.4941-1.9307,1.4883-0.4688,0.667
				c1.3174-0.7397-1.7305,0.6128-0.2305,0.1328c0.4336-0.1392,0.8838-0.2222,1.3301-0.3081
				c-2.3682,0.4546,0.7998,0.0386,1.5146,0.0532c0.5449,0.0112,1.0889,0.062,1.6309,0.1118
				c-2.0547-0.188-0.1523-0.0122,0.248,0.0586c1.1563,0.2046,2.292,0.5117,3.416,0.8472c0.5703,0.1699,1.1299,0.3716,1.6885,0.5732
				c1.8789,0.6777-1.417-0.6631,0.3936,0.1528c1.0527,0.4746,2.0586,1.0425,3.04,1.6479c0.4727,0.291,0.9219,0.6157,1.3701,0.9414
				c-1.5615-1.1333-0.1816-0.0747,0.1084,0.1929c0.373,0.3428,0.71,0.7212,1.0439,1.1006
				c-1.3057-1.4805-0.3252-0.3936-0.0547,0.0415c0.2939,0.4746,0.7393,1.8623,0.0059-0.1372
				c0.1982,0.5396,0.3447,2.0068,0.0918-0.2563c0.1865,1.6699,0.5938-1.1147-0.2168,1.2095
				c0.3066-0.8804,0.1943-0.3696-0.6416,0.5356c3.0303-0.3911,6.0596-0.7817,9.0889-1.1729
				c-1.833-0.9829-1.6104-10.1006,0.7637-10.3525c2.8994-0.3081,6.1201,2.3779,7.7324,4.5327
				c0.7969,1.0659,1.5918,2.3618,1.6699,3.7158c0.0107,0.1851-0.4072,2.27-0.123,1.6382c1.0615-2.3643,5.6758-2.5625,7.3213-0.9888
				c0.9902,0.9478,0.4346,1.0068,0.4473-0.0449c-0.0137,1.1274,0.7393-0.2783,1.4443-0.7275
				c0.8174-0.52,1.2949,0.4365,1.6826,1.0381c0.5176,0.8022,0.6191,1.7368,0.668,2.6597c0.1162,2.1982,0.3154-1.1182-0.0586,0.918
				c-0.0928,0.4487-0.208,0.8916-0.3447,1.3291c-0.5771,2.0132,0.667-1.1831-0.2783,0.623
				c-0.9023,1.7236,0.1855,0.1431-1.1797,1.5303c-0.9961,1.0132-2.9443,1.998-4.6064,2.5811
				c-11.8066,4.1392-26.4561,2.3506-39.2217,1.2085c-11.499-1.0288-23.7988-3.7388-35.3213-1.8379
				C300.1616,16.5781,304.2163,31.0313,313.6763,29.4707L313.6763,29.4707z"/>
		</g>
	</g>
	<g display="inline">
		<g>
			<path fill="#E6E6E6" d="M373.4517,236.2954c1.5918-0.2627-1.9102,0.1924-0.1426,0.043c0.542-0.0459,1.0879-0.0596,1.6318-0.0752
				c1.2783-0.0381,2.5576,0.0059,3.835,0.0557c3.4922,0.1348,6.9785,0.4766,10.457,0.8125
				c8.293,0.7998,16.5713,1.7305,24.8877,2.2627c14.6152,0.9355,33.5537,1.8125,45.0996-8.9082
				c6.3955-5.9385,7.9961-16.3682,4.127-24.0674c-6.2588-12.4551-22.3398-12.4551-29.6709-0.9756
				c-5.1416,8.0508-0.2754,20.3691,9.5479,21.0566c5.2031,0.3643,8.6455-4.5264,10.0244-8.8447
				c1.8574-5.8164,0.3037-12.0684-2.9326-17.0371c-7.167-11.0029-23.8281-17.2373-33.0215-5.2705
				c-6.8701,8.9434-6.9307,25.752,4.0039,31.6123c2.8945,1.5518,6.7529,1.3574,9.0889-1.1719
				c13.6074-14.7402-2.7744-29.7305-17.9941-32.1084c-7.1641-1.1191-16.1152-0.4902-20.0156,6.6953
				c-5.0459,9.2979,2.9619,19.4951,8.8115,26.1279c2.7783,3.1494,7.7559,2.6436,10.6074,0
				c13.9092-12.9004-9.8486-36.0293-23.1211-37.0713c-9.8457-0.7725-16.6006,6.4912-17.5732,15.7217
				c-0.9863,9.3594,5.9287,17.8115,14.0918,21.1328c3.6299,1.4766,8.458-1.5723,9.2266-5.2383
				c3.5586-16.9795-16.2324-27.4785-30.9316-24.6729c-7.7949,1.4873-15.2852,7.6475-14.3848,16.2686
				c0.8945,8.5723,8.0244,14.5703,16.0703,16.5029c7.9512,1.9092,13.7861-10.0508,5.7793-13.708
				c-7.0752-3.2324-15.54-4.0469-22.7246-0.7939c-10.25,4.6416-5.8242,18.0293,1.4551,22.7715
				c7.2891,4.749,18.373,4.71,26.793,5.0156c13.8975,0.5059,28.1367-0.7598,41.3057-5.4209
				c9.0527-3.2051,5.1543-17.7002-3.9883-14.4648c-15.5928,5.5195-32.2334,5.7578-48.5264,4.0146
				c-2.374-0.2549-4.7148-0.8232-6.9805-1.5645c-0.8223-0.2686-1.124-0.54-1.6865-1.1016c1.0342,1.0322,0.5176,2.2832-0.4189,3.3223
				c-0.9668,1.0713-0.1426,0.3936-0.2764,0.4092c1.2109-0.1387,2.4453-0.0645,3.6563,0.0107
				c0.9424,0.0576,1.1973,0.1582,2.3906,0.4248c0.4004,0.0898,3.2305,1.1504,1.4307,0.3281
				c1.9258-4.5693,3.8525-9.1387,5.7793-13.708c-1.916-0.46-4.5176-1.3877-5.1309-3.1631c0.1465,0.4229-0.5586,0.8086-0.1934,0.5469
				c1.1045-0.791,2.4229-1.0684,3.6855-1.1494c3.0928-0.1963,13.291,2.0469,12.4316,6.1436
				c3.0752-1.7461,6.1514-3.4922,9.2266-5.2383c-1.8877-0.7676-3.0439-4.1123-3.1084-5.8008
				c-0.0371-0.9854,0.2754-1.3535,0.3936-1.4795c0.0693-0.0732,1.418-0.1406,1.8008-0.0449
				c3.3008,0.8232,6.6846,4.3203,9.082,7.0205c1.083,1.2197,2.418,3.2051,2.8809,4.3477c0.0283,0.0703,0.6016,2.6104,0.4492,1.1367
				c0.1768,1.707,1.7471-2.2529,0.5088-1.1055c3.5361,0,7.0713,0,10.6074,0c-2.2764-2.5801-4.3086-5.2461-5.7959-8.3662
				c0.7666,1.6084-0.4004-3.4414-0.1709-0.5605c-0.1436-1.8008-0.541,1.0537-0.3213,0.6475
				c0.2686-0.4932-1.9307,1.4883-0.4688,0.668c1.3184-0.7402-1.7305,0.6123-0.2295,0.1318
				c0.4336-0.1387,0.8838-0.2217,1.3291-0.3076c-2.3672,0.4551,0.8008,0.0381,1.5156,0.0527
				c0.5449,0.0117,1.0879,0.0625,1.6299,0.1113c-2.0537-0.1875-0.1514-0.0117,0.249,0.0596c1.1563,0.2041,2.292,0.5107,3.416,0.8467
				c0.5703,0.1699,1.1289,0.3721,1.6885,0.5732c1.8789,0.6777-1.417-0.6631,0.3936,0.1523c1.0527,0.4746,2.0586,1.043,3.04,1.6484
				c0.4727,0.291,0.9219,0.6162,1.3701,0.9414c-1.5605-1.1328-0.1816-0.0752,0.1094,0.1934c0.3721,0.3428,0.709,0.7207,1.043,1.1006
				c-1.3047-1.4805-0.3252-0.3936-0.0547,0.041c0.2949,0.4746,0.7393,1.8623,0.0068-0.1367
				c0.1973,0.5391,0.3447,2.0068,0.0908-0.2568c0.1875,1.6699,0.5938-1.1143-0.2158,1.21c0.3066-0.8809,0.1943-0.3691-0.6416,0.5352
				c3.0303-0.3906,6.0596-0.7813,9.0889-1.1719c-1.834-0.9834-1.6113-10.1016,0.7627-10.3535
				c2.8994-0.3076,6.1201,2.3789,7.7324,4.5342c0.7969,1.0654,1.5918,2.3613,1.6699,3.7158
				c0.0107,0.1855-0.4072,2.2695-0.123,1.6377c1.0615-2.3643,5.6748-2.5635,7.3213-0.9893
				c0.9902,0.9482,0.4346,1.0068,0.4473-0.0449c-0.0137,1.127,0.7393-0.2783,1.4453-0.7275
				c0.8164-0.5205,1.2949,0.4365,1.6826,1.0381c0.5176,0.8027,0.6191,1.7373,0.668,2.6602c0.1162,2.1982,0.3154-1.1182-0.0586,0.918
				c-0.0928,0.4482-0.208,0.8916-0.3447,1.3291c-0.5771,2.0137,0.666-1.1836-0.2783,0.623
				c-0.9023,1.7236,0.1855,0.1426-1.1797,1.5303c-0.9971,1.0127-2.9453,1.998-4.6074,2.5811
				c-11.8066,4.1387-26.4551,2.3506-39.2207,1.208c-11.499-1.0283-23.7998-3.7383-35.3223-1.8379
				C359.937,223.4028,363.9917,237.856,373.4517,236.2954L373.4517,236.2954z"/>
		</g>
	</g>
</g>
<g id="Layer_3" display="none">
	
		<path display="inline" fill="none" stroke="#FF0000" stroke-width="1.8" stroke-linecap="round" stroke-linejoin="round" stroke-miterlimit="10" d="
		M7.4795,174.8413c122.6396-35.04,398.3511,13.5957,497.6489-20.0176"/>
</g>
<g id="Layer_1">
	<g>
		<g>
			<path d="M5.7354,153.6548l1.5449-2.2051l1.4648-2.1943c0.9619-1.4854,1.9678-2.9541,2.9189-4.46
				c1.9253-2.9941,3.8369-6.0088,5.7256-9.0342l5.6284-9.1104l5.5469-9.1641c1.8442-3.0576,3.6782-6.1211,5.4858-9.2002
				l5.4351-9.229l5.3506-9.2749l5.3003-9.2998c1.7471-3.1099,3.4888-6.2231,5.1855-9.3584l5.1304-9.3828l5.1333-9.3765
				c0.8794-1.5522,1.7144-3.124,2.5669-4.689c0.8564-1.564,1.7212-3.123,2.5562-4.6968c1.6929-3.1377,3.3682-6.2856,4.9761-9.4673
				c1.6152-3.1787,3.1772-6.3848,4.626-9.6396c1.4624-3.2485,2.8247-6.5444,4.0146-9.8965c0.2964-0.8379,0.6128-1.6724,0.894-2.5161
				l0.7559-2.5547c0.5337-1.7002,0.8228-3.4497,1.1519-5.189c0.0903-0.4771,0.7148-0.7905,1.1924-0.7002
				c0.4277,0.0811,0.8799,0.4604,0.8799,0.8823v0.0342l0,0l0.6426,9.6499l0.6436,9.6177l1.3887,19.1563l0.7261,9.5444l0.7983,9.5234
				l0.4146,4.7544l0.4609,4.7471c0.3203,3.1611,0.6187,6.3267,1.0215,9.4741c0.335,3.1577,0.7603,6.2988,1.1748,9.4429
				c0.4487,3.1348,0.8594,6.2803,1.396,9.397c0.4531,3.1357,1.0596,6.2344,1.5928,9.3525c0.6162,3.0947,1.1963,6.2051,1.8989,9.2773
				c0.6484,3.0928,1.4331,6.1387,2.188,9.2031l1.2456,4.5586c0.4126,1.5225,0.9063,3.0107,1.3472,4.5264
				c0.2329,0.752,0.4424,1.5166,0.6948,2.2607l0.7759,2.2275c0.5313,1.4805,0.9907,2.999,1.5864,4.4531
				c0.5771,1.4619,1.1084,2.959,1.728,4.4072c0.6191,1.4492,1.2583,2.8945,1.8613,4.3701l0.0435,0.1064
				c0.3931,0.9619-0.0684,2.0615-1.0308,2.4541c-0.8306,0.3389-1.7632,0.041-2.2559-0.666
				c-0.9404-1.3486-1.8442-2.7266-2.7681-4.1016c-0.9185-1.3779-1.6719-2.8379-2.5186-4.2607
				c-0.856-1.4219-1.5859-2.8955-2.3159-4.375l-1.1016-2.2197c-0.3613-0.7432-0.6772-1.501-1.0181-2.252
				c-0.6543-1.5098-1.3813-3.0029-1.9604-4.542l-1.7817-4.6094c-1.0708-3.1055-2.1807-6.2139-3.0708-9.3721
				c-0.9873-3.1396-1.7554-6.3252-2.5845-9.502c-0.7397-3.1904-1.4702-6.3887-2.0874-9.6006
				c-0.6523-3.21-1.1592-6.4365-1.7065-9.6597c-0.4624-3.2324-0.9385-6.4644-1.3169-9.7031c-0.397-3.2393-0.6885-6.4844-1.001-9.728
				c-0.2612-3.2471-0.5029-6.4941-0.6641-9.7441c-0.1475-3.2505-0.2979-6.5-0.3237-9.7515c-0.0747-3.25-0.0405-6.5015-0.0024-9.7495
				c0.0728-3.2485,0.1714-6.4951,0.3516-9.7383c0.1738-3.2432,0.4023-6.4834,0.7065-9.7183
				c0.2798-3.2354,0.7026-6.4639,1.0957-9.6865c0.4722-3.2231,0.9517-6.4321,1.6406-9.6406l0,0l1.7417,0.2168
				c-0.8472,3.5308-1.5786,7.0732-2.5273,10.5635c-0.4321,1.7598-0.9541,3.4878-1.4688,5.2217
				c-0.4956,1.7422-1.0591,3.4561-1.5996,5.1836c-1.1157,3.4399-2.2808,6.8657-3.5171,10.2646
				c-0.5981,1.7095-1.2559,3.3906-1.8926,5.084c-0.6279,1.6982-1.3018,3.3745-1.9834,5.0483
				c-1.3252,3.3667-2.7788,6.6724-4.2432,9.9741c-1.4868,3.291-3.0386,6.5488-4.6372,9.7827
				c-1.6475,3.207-3.2539,6.437-4.9976,9.5908c-1.7075,3.1738-3.459,6.3218-5.2158,9.4663
				c-1.7642,3.1401-3.5308,6.2778-5.3545,9.3828l-5.5488,9.2651c-1.8672,3.0781-3.7368,6.1533-5.6802,9.1836
				c-1.9287,3.0391-3.8838,6.0615-5.8481,9.0771c-1.9575,3.0215-3.9951,5.9912-6.0234,8.9658
				c-2.0415,2.9678-4.0908,5.9297-6.2163,8.8418c-2.124,2.915-4.2402,5.833-6.4761,8.6768
				c-1.103,1.4316-2.2251,2.8477-3.3804,4.2549l-1.7627,2.1064l-1.7729,2.0254c-0.6895,0.7871-1.8862,0.8672-2.6738,0.1777
				C5.3042,155.5288,5.1924,154.436,5.7354,153.6548z"/>
		</g>
		<g>
			<path d="M31.1475,91.5815c0,0,0.2368-0.2358,0.6968-0.6479c0.1162-0.1025,0.2451-0.2173,0.3877-0.3438
				c0.1675-0.1235,0.3501-0.2588,0.5474-0.4043c0.3911-0.29,0.8896-0.6445,1.3882-0.9458c2.0449-1.3115,5.0903-2.8188,8.8135-4.2227
				c1.8628-0.708,3.8892-1.3848,6.0435-2.0498c2.1528-0.6455,4.4346-1.2681,6.7935-1.8555
				c2.3652-0.5742,4.8071-1.1182,7.2954-1.6187c2.4888-0.4883,5.0132-0.9722,7.5439-1.3813
				c2.5249-0.4429,5.0571-0.813,7.5386-1.2026c2.4844-0.3462,4.9287-0.6865,7.2949-1.0161
				c4.709-0.6152,9.1045-1.1895,12.8716-1.6821c0.936-0.1304,1.833-0.2549,2.686-0.374c0.8491-0.1284,1.6548-0.2505,2.4116-0.3652
				c0.7461-0.1333,1.4492-0.2568,2.1099-0.354c0.6465-0.127,1.2397-0.2432,1.7759-0.3486c1.04-0.2642,1.9131-0.4126,2.4492-0.603
				c0.5698-0.1553,0.8735-0.2383,0.8735-0.2383l0.1021-0.0283c0.5083-0.1387,1.0327,0.1606,1.1719,0.6689
				c0.0981,0.3594-0.0239,0.7275-0.2827,0.9609c0,0-0.2563,0.231-0.7373,0.6636c-0.4927,0.439-1.2314,1.0166-2.2314,1.6934
				c-0.5059,0.3164-1.0654,0.6665-1.6748,1.0474c-0.6143,0.3599-1.2915,0.7266-2.021,1.1162
				c-1.458,0.7412-3.1299,1.5229-4.9751,2.27c-1.8433,0.7495-3.8589,1.5063-6.0039,2.1997
				c-2.1426,0.7246-4.416,1.3828-6.7739,2.0278c-2.355,0.6455-4.8018,1.23-7.2827,1.8057c-2.4893,0.54-5.0117,1.084-7.5425,1.5503
				c-2.5254,0.499-5.0576,0.9175-7.5449,1.3271c-1.2441,0.1919-2.4785,0.3823-3.6982,0.5698
				c-1.2192,0.1714-2.4238,0.3403-3.6084,0.5068c-2.3735,0.3037-4.6558,0.5977-6.8267,0.8438
				c-2.1621,0.2437-4.2056,0.4741-6.0923,0.687c-0.9419,0.1021-1.8472,0.1895-2.6948,0.3018
				c-0.8618,0.085-1.665,0.1846-2.4204,0.2837c-1.52,0.1748-2.8252,0.3652-3.8931,0.5366c-0.562,0.0742-0.9629,0.1694-1.3716,0.2271
				c-0.2007,0.0332-0.3867,0.0635-0.5571,0.0913c-0.1826,0.0498-0.3486,0.0957-0.4976,0.1362
				c-0.5962,0.165-0.9229,0.2373-0.9229,0.2373l-0.0088,0.002c-0.6631,0.146-1.3193-0.2729-1.4658-0.936
				C30.7212,92.2944,30.8643,91.8687,31.1475,91.5815z"/>
		</g>
		<g>
			<path d="M129.2485,3.1514c0,0,0.0845,0.1226,0.249,0.3599c0.1636,0.2549,0.4097,0.541,0.7246,1.1245
				c0.6724,1.1226,1.4019,2.667,2.0674,4.7773c1.3311,4.1841,2.333,10.27,2.6216,17.5225c0.312,7.2544,0.1948,15.6763-0.314,24.645
				c-0.2642,4.4829-0.5586,9.1074-0.9517,13.793c-0.4048,4.6777-0.8159,9.4297-1.2271,14.1821
				c-0.4463,4.7358-0.8921,9.4722-1.3315,14.1343c-0.4165,4.6499-0.8267,9.2256-1.2236,13.6533
				c-0.7192,8.8428-1.3369,17.0752-1.4019,24.0732c-0.0273,3.4971,0.0049,6.6807,0.1543,9.4658
				c0.1509,2.7852,0.4253,5.166,0.7671,7.0557c0.3525,1.8857,0.7021,3.3057,1.02,4.2021c0.1362,0.4707,0.292,0.7744,0.3706,1.0078
				c0.0864,0.2246,0.1309,0.3408,0.1309,0.3408l0.0952,0.248c0.6157,1.6045-0.186,3.4053-1.791,4.0215
				c-1.5366,0.5898-3.2568-0.1299-3.9409-1.5996c0,0-0.0728-0.1572-0.2139-0.4629c-0.1289-0.3037-0.375-0.7607-0.5894-1.3516
				c-0.4819-1.1865-1.0537-2.9189-1.5283-5.1162c-0.9512-4.3916-1.5957-10.5615-1.5757-17.8516
				c-0.0073-3.6465,0.1108-7.5703,0.3101-11.7031c0.2017-4.1328,0.4761-8.4766,0.8813-12.9482
				c0.3994-4.4727,0.8169-9.0845,1.3364-13.7544c0.5195-4.6631,1.0469-9.3999,1.5747-14.1367
				c0.5474-4.7227,1.0947-9.4453,1.6338-14.0938c0.5078-4.646,1.0439-9.209,1.4717-13.6274
				c0.8623-8.8315,1.5781-17.0718,1.6533-24.104c0.0352-3.5132-0.0029-6.7241-0.1953-9.5415
				c-0.1968-2.8149-0.5464-5.2329-0.9893-7.1587c-0.4414-1.9048-0.9526-3.4131-1.3545-4.2471
				c-0.1587-0.4292-0.4238-0.8364-0.5479-1.0806c-0.1392-0.2529-0.2114-0.3833-0.2114-0.3833
				c-0.3672-0.6621-0.1289-1.4961,0.5327-1.8638C128.0747,2.3901,128.8506,2.5854,129.2485,3.1514z"/>
		</g>
		<g>
			<path d="M177.7271,108.4976c0,0-0.3013-0.0273-0.8848-0.0791c-0.2793-0.0205-0.6821-0.0693-1.0566-0.084
				c-0.3521-0.0098-0.7603-0.0205-1.2222-0.0332c-1.9702-0.0176-4.9688,0.2061-8.6699,1.2588
				c-3.688,1.0488-8.1187,2.9766-12.5186,6.2305c-2.2046,1.6094-4.3706,3.5684-6.3643,5.8447
				c-1.9521,2.291-3.7593,4.9355-4.8418,7.8594c-0.543,1.4531-0.9014,2.9668-0.9712,4.457l-0.0181,0.2803l-0.0049,0.0703
				c-0.0005,0.1182-0.0054-0.083-0.0034-0.0283l0.0039,0.1777l0.0171,0.7129l0.0103,0.3564l0.0303,0.2617l0.0522,0.5264
				c0.1011,0.75,0.2549,1.5391,0.4995,2.2705c0.9023,2.9814,3.1748,5.5293,6.3022,7.3584
				c3.1406,1.8213,6.9932,2.9355,11.0425,3.4922c2.0278,0.2842,4.1172,0.415,6.2339,0.4355
				c2.0728,0.0107,4.4116-0.042,6.1392-0.4258c1.8936-0.4004,3.6641-1.1289,5.1797-2.2295
				c1.5254-1.0889,2.7686-2.5771,3.7192-4.3115c1.9087-3.4912,2.6162-7.8701,2.6123-12.29
				c-0.0698-4.7754,0.2031-9.6963,0.3281-14.4229c0.0713-2.3643,0.0029-4.6924,0.0503-6.8252
				c-0.0024-1.0635-0.0713-2.0742-0.3252-2.8994c-0.0728-0.1982-0.1528-0.3857-0.2373-0.5625
				c-0.0347-0.0898-0.0547-0.0469,0.2363,0.2285c0.0645,0.0508,0.2388,0.2012,0.4795,0.3047
				c0.2588,0.1279,0.7329,0.249,1.2568,0.1641c0.5508-0.0986,0.8989-0.334,1.1304-0.5518c0.1689-0.1504,0.2979-0.3418,0.3359-0.4053
				c0.1973-0.3594,0.1338-0.2998,0.146-0.2793c-0.0073,0.0361-0.0195,0.1309-0.0254,0.2314
				c-0.0146,0.207-0.0229,0.4619-0.0254,0.7236c0.0322,2.1797,0.4585,4.6045,0.9043,6.9414
				c0.4482,2.3584,0.8486,4.7256,1.0605,7.1074c0.4131,4.7656,0.8613,9.5293,1.2134,14.2666
				c0.3584,4.7432,0.7144,9.4473,1.0654,14.0967c0.3438,4.6523,0.7178,9.249,1.1582,13.7656
				c0.4355,4.5166,0.9077,8.9561,1.4292,13.3076c0.0688,0.7441,0.1152,1.0781,0.1514,1.7695
				c0.0308,0.6699,0.0522,1.3389,0.0288,1.9561c-0.0264,1.2598-0.1328,2.5352-0.373,3.8018
				c-0.4478,2.5313-1.4155,5.0332-2.833,7.2158c-1.4077,2.1953-3.2524,4.0381-5.2505,5.4883
				c-2.0039,1.4473-4.1621,2.5156-6.3252,3.2715c-2.1611,0.7852-4.335,1.252-6.46,1.5234c-2.125,0.2744-4.207,0.3799-6.2207,0.293
				c-2.0142-0.0742-3.9634-0.2764-5.8413-0.5752c-1.8755-0.3193-3.6758-0.7383-5.4023-1.2207
				c-3.4561-0.96-6.6152-2.1846-9.4541-3.5742c-5.6826-2.7842-10.0859-6.1006-13.4048-9.083
				c-3.3022-3.0186-5.5752-5.6719-7.0654-7.5088c-0.6968-0.9609-1.4302-1.5234-1.3887-2.3623
				c-0.0137-0.3887,0.0986-0.7842,0.1909-1.0615c0.064-0.2539,0.1841-0.4551,0.1699-0.4434
				c-0.3452-0.4092-0.2935-1.0205,0.1157-1.3662c0.4092-0.3447,1.0205-0.293,1.3657,0.1162
				c-0.0142,0.0117,0.2051-0.0752,0.4639-0.1035c0.2871-0.0537,0.6909-0.1133,1.0605-0.0596
				c0.376,0.0498,0.7354,0.1982,1.0142,0.5059c0.3042,0.2832,0.6567,0.6123,1.0557,0.9844c1.6089,1.4688,4.0479,3.5439,7.3804,5.79
				c3.3101,2.2646,7.5049,4.7285,12.5615,6.8438c2.5332,1.0371,5.2661,2.0273,8.2065,2.7588
				c1.4688,0.3682,2.9863,0.6777,4.5415,0.8975c1.5513,0.2432,3.1421,0.4111,4.7539,0.4697
				c3.2163,0.123,6.5439-0.1309,9.6602-1.0283c3.1006-0.9092,5.9673-2.4883,7.8442-4.9814
				c1.9038-2.4619,2.8076-5.8672,2.5254-9.6865c-0.2715-4.3438-0.6597-8.7822-1.1064-13.293
				c-0.4429-4.5107-0.9775-9.0918-1.5405-13.7295c-0.5347-4.6445-1.0757-9.3457-1.6211-14.084
				c-0.5186-4.7471-0.915-9.5469-1.229-14.3906c-0.1494-2.4229-0.0815-4.873,0.1099-7.3408
				c0.2144-2.4873,0.3867-4.9023,0.6396-7.5586c0.0327-0.3408,0.0723-0.6895,0.1367-1.082
				c0.0356-0.2002,0.0698-0.4043,0.1318-0.6621c0.082-0.2725,0.0972-0.5098,0.4487-1.1309c0.0732-0.1299,0.2529-0.377,0.4731-0.584
				c0.2896-0.2666,0.7017-0.542,1.3286-0.6553c0.5991-0.0947,1.1484,0.041,1.4766,0.2012c0.3062,0.1387,0.5479,0.3271,0.665,0.4316
				c0.5146,0.4805,0.6582,0.7832,0.7764,0.9521c0.2139,0.3506,0.4019,0.7051,0.5703,1.0605
				c0.6768,1.4111,1.0908,2.7949,1.3745,4.127c0.6045,2.6729,0.4546,5.1885,0.4238,7.6377
				c-0.1489,4.9072-0.3174,9.5781-0.3687,14.3291c-0.105,5.0527-0.9375,10.3145-3.6074,15.0234
				c-1.3315,2.332-3.1729,4.4521-5.3901,6.0566c-2.2168,1.6104-4.7754,2.6377-7.3149,3.168
				c-0.6289,0.124-1.272,0.2373-1.9551,0.3154c-0.6992,0.0791-1.0679,0.1123-1.8174,0.1533
				c-1.1738,0.0693-2.3452,0.1191-3.5142,0.1191c-2.3374,0.0107-4.6631-0.1016-6.9639-0.3896
				c-4.5898-0.5752-9.1304-1.752-13.2422-4.0459c-2.0317-1.1738-3.9702-2.6025-5.5547-4.4189
				c-1.6055-1.7871-2.8398-3.9238-3.5811-6.1602c-0.3848-1.1201-0.6274-2.2383-0.7959-3.3906l-0.0991-0.9033l-0.0449-0.4512
				l-0.0151-0.3584l-0.0317-0.7119l-0.0078-0.1777c-0.002-0.0039-0.0054-0.2637-0.002-0.2051l0.0029-0.1074l0.0142-0.4268
				c0.0601-2.2852,0.543-4.4238,1.2251-6.3789c1.3774-3.9258,3.5249-7.1406,5.7896-9.9209c2.3066-2.75,4.7803-5.0693,7.2954-6.9902
				c5.0239-3.8584,10.0815-6.3008,14.4873-7.6826c4.4131-1.3965,8.1147-1.7969,10.668-1.8477
				c0.6719,0.0029,1.2651,0.0049,1.7773,0.0059c0.4897,0.0117,0.8105,0.0439,1.1162,0.0576
				c0.585,0.0352,0.8867,0.0527,0.8867,0.0527c2.0601,0.123,3.6304,1.8936,3.5073,3.9531c-0.123,2.0605-1.8926,3.6309-3.9526,3.5078
				C177.8052,108.5034,177.7568,108.4995,177.7271,108.4976z"/>
		</g>
		<g>
			<path d="M248.9702,140.7993c0,0,0.0371,0.1387,0.1104,0.4121c0.0601,0.2529,0.1357,0.6094,0.1797,0.9941
				c0.085,0.7637,0.0942,1.7188-0.3525,2.2588c-0.502,0.4756-1.1411,0.9219-2.0166,1.5283c-0.8545,0.5781-1.8428,1.29-2.9731,1.9658
				c-1.1289,0.6865-2.3882,1.4297-3.8296,2.1543c-1.4067,0.7773-3.0273,1.4678-4.7842,2.1582
				c-3.5166,1.3691-7.7998,2.4746-12.7256,2.6055c-2.4668,0.0225-5.0884-0.2178-7.7461-0.9082
				c-2.6533-0.6885-5.3242-1.8584-7.7627-3.5107c-2.4375-1.6543-4.6104-3.8008-6.3657-6.2617
				c-1.7515-2.4668-3.0713-5.2412-3.9941-8.1484c-0.9067-2.917-1.4165-5.9756-1.4731-9.0732l-0.0371-1.1631v-0.0723l0.0303-0.2607
				l0.02-0.1289l0.0234-0.2588l0.0381-0.5176c0.0332-0.3682,0.0278-0.6406,0.0947-1.0889l0.209-1.3281
				c0.125-0.9248,0.3657-1.666,0.5737-2.4688c0.186-0.8037,0.5171-1.5508,0.792-2.3213c2.4136-6.0537,7.0566-11.2363,12.7319-14.249
				l1.0469-0.5947c0.3535-0.1865,0.7231-0.333,1.084-0.5l2.1826-0.9609l2.2397-0.7417l1.1206-0.3647l1.1357-0.2603l2.2695-0.5103
				c0.7563-0.1567,1.5171-0.2188,2.2739-0.3306c0.7578-0.0923,1.5151-0.2144,2.269-0.2773l2.2554-0.1045l1.124-0.0493l0.561-0.2627
				l0.1401-0.2432h0.2139l0.2622,0.2402c0.7241,0.019,1.3433,0.1162,2.1479,0.1689c1.6001,0.0889,3.0942,0.2783,4.6279,0.5723
				c1.5249,0.2607,3.0605,0.707,4.5723,1.2871c1.5103,0.5674,3.0054,1.3779,4.375,2.4326c1.3652,1.0537,2.5972,2.4063,3.4873,3.9775
				c0.8945,1.5664,1.4395,3.3379,1.5732,5.084c0.2607,3.5078-0.7686,6.8555-3.0273,9.5166
				c-0.5928,0.6543-1.2466,1.2773-2.0581,1.793c-0.3818,0.2686-0.8389,0.4893-1.2817,0.7012l-0.2139,0.0918l-0.1045,0.04
				l-0.2095,0.082l-0.4175,0.1611c-1.1113,0.4316-2.2056,0.8564-3.2822,1.2744c-1.1636,0.3848-2.3076,0.7637-3.4307,1.1357
				c-1.124,0.3848-2.2183,0.6309-3.2944,0.9424c-4.3091,1.1465-8.3604,1.8213-11.9736,2.124
				c-3.6182,0.2949-6.792,0.1826-9.3877-0.0215c-2.5977-0.2402-4.6221-0.5859-6.0054-0.8848
				c-0.6919-0.1592-1.1895-0.4766-1.5186-0.752c-0.3188-0.2695-0.4878-0.5107-0.4878-0.5107
				c-0.4536-0.6475-0.3433-1.5215,0.228-2.0381l0.3062-0.2783c0,0,0.1792-0.1621,0.5405-0.3076
				c0.3501-0.1484,0.8652-0.2979,1.499-0.2793c1.2666,0.0693,3.1563,0.1113,5.5532-0.0313
				c2.3965-0.1006,5.2983-0.3838,8.5986-0.8477c3.2974-0.5059,6.9878-1.251,10.9341-2.3779
				c0.9731-0.3057,2.0117-0.5605,2.9873-0.9219c0.9854-0.3457,1.9893-0.6992,3.0103-1.0586
				c1.0664-0.4395,2.1514-0.8867,3.2529-1.3398l0.4141-0.1709l0.2075-0.0859l0.104-0.043l0.0518-0.0215
				c-0.1489,0.0615-0.0317,0.0107-0.0601,0.0215c0.0894-0.0645,0.187-0.0889,0.2925-0.1816
				c0.2134-0.1318,0.4424-0.3672,0.668-0.6221c0.9365-1.0713,1.5371-2.8955,1.3735-4.5225
				c-0.1396-1.6484-0.9731-3.1035-2.4771-4.2598c-1.4937-1.1689-3.6572-1.9629-6.0171-2.3799
				c-1.1709-0.2324-2.4453-0.3379-3.6235-0.4102c-0.584-0.0488-1.3628-0.0322-2.0371-0.0508
				c-0.5405-0.0117-1.272,0.0547-1.9004,0.0811l-1.9629,0.1006c-0.6499,0.0596-1.2876,0.1738-1.9336,0.2568
				c-0.6406,0.1006-1.2979,0.1514-1.9282,0.29l-1.8828,0.4424l-0.9438,0.2178l-0.9058,0.3096l-1.8159,0.6094l-1.7251,0.7832
				c-0.2852,0.1338-0.583,0.248-0.8579,0.3975l-0.8066,0.4775c-0.5234,0.3379-1.1025,0.5996-1.584,0.9893l-1.4863,1.1074
				c-0.9087,0.8242-1.8379,1.627-2.6001,2.5752c-1.5835,1.835-2.8154,3.9424-3.6045,6.1592
				c-0.1714,0.5605-0.4111,1.1035-0.5098,1.6748c-0.1216,0.5557-0.2969,1.1523-0.3262,1.6162l-0.1099,0.7334
				c-0.0425,0.2383-0.0347,0.6631-0.0552,0.9854l-0.0205,0.5186l-0.0103,0.2588l-0.0049,0.1299
				c-0.0054,0.1934,0.0034-0.1914,0.0039-0.1309l0.0024,0.0566l0.04,0.9043c0.1108,2.4092,0.5664,4.7637,1.313,6.9375
				c0.7241,2.1797,1.7256,4.1982,2.9824,5.917c1.2627,1.7139,2.7563,3.1348,4.3955,4.208
				c3.2783,2.1865,7.1426,2.7969,10.7534,2.6367c3.6445-0.2471,7.0464-1.1738,10.0464-2.1982
				c2.9849-1.085,5.6113-2.1797,7.729-3.2314c2.1187-1.0088,3.6875-1.8486,4.9448-2.4795c0.6743-0.1904,1.543,0.2041,2.207,0.5908
				c0.334,0.1963,0.6294,0.4092,0.8364,0.5664c0.2202,0.1777,0.332,0.2676,0.332,0.2676
				C248.6899,140.1577,248.8813,140.4663,248.9702,140.7993z"/>
		</g>
		<g>
			<path d="M260.8286,8.0654c0,0,0.1143,1.0449,0.3291,3.0039c0.2246,1.9653,0.4717,4.8452,0.7783,8.5142
				c0.2998,3.6685,0.6621,8.123,0.9619,13.2373c0.3008,5.1143,0.6699,10.8833,0.916,17.1816
				c0.2646,6.2974,0.5313,13.1206,0.7051,20.3398c0.2217,7.2188,0.2744,14.835,0.1582,22.7144
				c-0.0889,7.8794-0.374,16.021-0.7217,24.2974c-0.3887,8.29-0.6309,16.6553-1.4443,25.1943
				c-0.1182,1.0781-0.2461,2.1523-0.4463,3.2891c-0.1016,0.5703-0.2178,1.1543-0.4326,1.8564
				c-0.6338,0.8662,0.9043-0.5654-1.3496,1.5547c-3.8018,0.4141-2.9609-1.5313-3.2988-1.2422
				c-0.1006-0.2227-0.1396-0.3584-0.1582-0.4209l-0.0605-0.2295c-0.0605-0.2559-0.082-0.4092-0.1113-0.585
				c-0.0488-0.3262-0.0801-0.6123-0.1094-0.9004c-0.21-2.248-0.2549-4.3584-0.2646-6.5078
				c-0.002-4.2754,0.2275-8.5244,0.7666-12.7461c0.2725-2.1104,0.6279-4.2119,1.1094-6.2998c0.2402-1.043,0.5156-2.083,0.834-3.1172
				c0.1611-0.5244,0.3193-1.0137,0.5098-1.5674l0.5186-1.4375c1.4932-3.9395,3.1865-7.7617,5.8398-11.2383
				c1.3379-1.7109,2.9453-3.3687,5.1299-4.5161c1.0898-0.5605,2.3301-0.9702,3.6289-1.083c1.293-0.123,2.6123,0.0488,3.7852,0.4395
				c2.373,0.7866,4.1631,2.2515,5.6113,3.772c1.4521,1.54,2.583,3.2119,3.5508,4.9072c1.9092,3.4063,3.1592,6.9248,4.0645,10.3955
				c0.8643,3.4805,1.3896,6.9297,1.4766,10.3066c0.1133,3.373-0.1846,6.6836-1.0244,9.8105
				c-0.8301,3.1201-2.2598,6.0664-4.2813,8.4473c-2.0098,2.3945-4.6045,4.0723-7.1064,5.0596
				c-2.5244,0.9805-4.9414,1.3115-7.0459,1.4072c-2.1162,0.1074-3.9492-0.1074-5.5078-0.3262
				c-1.5586-0.2334-2.8506-0.5137-3.8799-0.7744c-1.0586-0.1602-1.7354-0.7773-2.0859-1.4727
				c-0.1855-0.3213-0.2969-0.6484-0.3662-0.8799c-0.0605-0.2578-0.0918-0.3887-0.0918-0.3887
				c-0.249-1.0596,0.0928-2.1191,0.8115-2.835l0.0889-0.0869c0,0,0.0947-0.0938,0.2813-0.2793
				c0.1777-0.1572,0.4365-0.377,0.7383-0.5537c0.3076-0.1934,0.6611-0.3555,1.04-0.4287c0.3828-0.0859,0.7744,0,1.2119,0.1084
				c1.748,0.3984,4.3701,0.8936,7.4883,0.8027c3.1055-0.0967,6.667-0.915,9.4404-3.8008c1.3896-1.4355,2.5625-3.4082,3.3789-5.7754
				c0.8164-2.3662,1.2813-5.1025,1.376-8.0166c0.0605-2.9141-0.1973-6.0156-0.917-9.1299c-0.6934-3.1123-1.7969-6.2705-3.4043-9.165
				c-0.8037-1.4385-1.7344-2.8174-2.8145-3.9766c-1.0732-1.1592-2.3115-2.1006-3.5518-2.5088
				c-1.2383-0.4131-2.4355-0.3252-3.7012,0.3135c-1.2598,0.6367-2.4883,1.7939-3.5635,3.165
				c-2.167,2.7646-3.8232,6.3115-5.209,9.9141l-0.5234,1.417c-0.1406,0.4053-0.3066,0.8799-0.4365,1.3301
				c-0.2734,0.9131-0.5146,1.8496-0.7256,2.8008c-0.4238,1.9033-0.7422,3.8633-0.9824,5.8486
				c-0.4785,3.9736-0.6699,8.0537-0.6357,12.1318c0.0225,2.0273,0.0898,4.1064,0.2852,6.0293l0.085,0.6582l0.0352,0.1875
				c0.002,0.0098,0.001,0.002-0.0107-0.04c-0.001-0.002-0.0195-0.0732-0.0928-0.2354c-0.3154,0.3418,0.5654-1.5205-3.1709-1.123
				c-2.1973,2.0811-0.6475,0.5781-1.2559,1.3857c0.0859-0.3018,0.1855-0.7451,0.2598-1.208
				c0.1572-0.9297,0.2715-1.9395,0.374-2.9463c0.3789-4.0645,0.5918-8.2422,0.6992-12.3896
				c0.1152-4.1533,0.1953-8.2998,0.1748-12.416c-0.0029-8.2344-0.1563-16.3447-0.2178-24.1924
				c-0.0908-7.8481-0.1289-15.4351-0.0713-22.6318c0.0039-7.1973,0.0068-14.0015,0.0098-20.2827
				c-0.0283-6.2813-0.0547-12.0386-0.0771-17.1421c-0.0547-5.1021,0.1084-9.5503,0.0693-13.2134
				c-0.1357-7.3252-0.002-11.5107-0.002-11.5107V8.2603c0-0.8447,0.4453-1.5425,1.291-1.5581
				C260.2866,6.6875,260.7417,7.29,260.8286,8.0654z"/>
		</g>
		<g>
			<path d="M304.1401,97.7896c0.332,0.9751,0.6426,2.0078,0.9004,3.0161c0.2549,1.0181,0.5186,2.0337,0.7227,3.0601
				c0.4316,2.0488,0.7451,4.1143,1.0137,6.1797c0.5332,4.1318,0.9033,8.2686,1.0859,12.4131
				c0.1729,4.1465,0.1934,8.293,0.0215,12.458c-0.0898,2.084-0.2256,4.1699-0.4736,6.2871c-0.127,1.0615-0.2764,2.126-0.5098,3.2412
				c-0.1211,0.5615-0.2461,1.1299-0.4648,1.7793c-0.1172,0.333-0.2363,0.6719-0.5,1.1377
				c-0.1426,0.2344-0.3037,0.5078-0.6816,0.8682c-0.2148,0.1885-0.4521,0.3857-0.8838,0.5654
				c-0.4121,0.1738-0.9775,0.2568-1.4834,0.168l-0.0635-0.0117c-1.0557-0.1865-1.8213-1.0537-1.9277-2.0693
				c-0.1357-1.3076-0.2227-2.5234-0.2969-3.7803c-0.0732-1.2471-0.124-2.4932-0.1563-3.7393c-0.0488-2.4941-0.0752-4.9893,0-7.4912
				s0.2559-5.0059,0.5127-7.5195c0.2607-2.5137,0.6729-5.0293,1.2539-7.542c0.6074-2.5078,1.3779-5.0244,2.5703-7.4551
				c1.1904-2.416,2.7803-4.791,5.0039-6.7129c2.2041-1.9277,5.0938-3.2261,7.9873-3.6162c1.4482-0.1987,2.8857-0.209,4.2842-0.0981
				c1.3975,0.124,2.7383,0.4082,4.0508,0.7349c1.4668,0.3647,2.3594,1.8486,1.9951,3.3154
				c-0.3584,1.4404-1.7979,2.3281-3.2393,2.0127l-0.0801-0.0176c-2.1357-0.4697-4.2559-0.6641-6.2031-0.374
				c-1.9561,0.2578-3.6982,1.0547-5.2178,2.292c-1.5244,1.2363-2.793,2.9492-3.8096,4.8799
				c-1.0293,1.9297-1.8145,4.0791-2.4434,6.2949c-0.6191,2.2266-1.0654,4.5332-1.3945,6.8711
				c-0.3457,2.3379-0.5059,4.7148-0.6064,7.0967c-0.0947,2.3838-0.1074,4.7793,0.0059,7.1709
				c0.0498,1.1963,0.1191,2.3916,0.21,3.583c0.0889,1.1816,0.1992,2.4023,0.335,3.5244l-1.9912-2.0811
				c-0.3789-0.0693-0.8154-0.0049-1.1084,0.1211c-0.3115,0.1348-0.4482,0.249-0.5674,0.3564
				c-0.1924,0.1836-0.209,0.2451-0.2246,0.2588c-0.0107,0.0234,0.0527-0.1172,0.0977-0.2666
				c0.1006-0.3184,0.2021-0.7461,0.2773-1.1846c0.1533-0.8857,0.2588-1.8467,0.3398-2.8115
				c0.1592-1.9395,0.2217-3.9277,0.2383-5.918c0.0273-3.9854-0.1533-7.9971-0.4678-11.9883
				c-0.3115-3.9922-0.7363-7.9756-1.3506-11.916c-0.3066-1.9697-0.6592-3.9277-1.002-5.8809l-1.0596-5.8525
				c-0.2705-1.4907,0.7188-2.9185,2.21-3.1885c1.3555-0.2456,2.6582,0.5493,3.0869,1.8159L304.1401,97.7896z"/>
		</g>
		<g>
			<path d="M335.7261,121.1421c0,0,0.8311-1.0859,1.9951-1.2334c0.5957-0.001,1.209-0.0703,1.9648-0.1123
				c0.3701-0.0127,0.7676-0.0264,1.1914-0.04c0.21,0.001,0.4258,0.0029,0.6484,0.0049c0.2422-0.002,0.4922-0.0156,0.7471-0.0078
				c1.0225,0,2.1484,0.0693,3.376,0.124c1.2344,0.0352,2.5684,0.0732,3.9951,0.1143c2.8525,0.0498,6.0791,0.0518,9.5635,0.0264
				c0.8818,0.0098,1.7412-0.0498,2.6348-0.0723c0.8779-0.0361,1.8447-0.0371,2.6123-0.1475
				c0.4082-0.0391,0.8193-0.0791,1.2334-0.1201l0.1563-0.0137c-0.1436,0.0352,0.375-0.084-0.3115,0.0781l0.0439-0.0137
				l0.0879-0.0264l0.1758-0.0527l0.0879-0.0264l0.04-0.0127l-0.0615,0.0088c-0.1631,0.0293-0.3232,0.1006-0.4521,0.2002
				c-0.0986,0.0713-0.1016,0.0557-0.1445,0.1045c-0.1953,0.2646,0.1035-0.1836,0.1348-0.791
				c0.1289-1.2832-0.1982-3.0469-0.8506-4.6387c-0.6367-1.623-1.6162-3.1582-2.8252-4.4512
				c-1.2275-1.2783-2.7002-2.29-4.3594-2.9365c-0.834-0.3125-1.709-0.542-2.6172-0.6934c-0.2246-0.0469-0.4619-0.0527-0.6914-0.084
				l-0.3477-0.0381l-0.0869-0.0107l-0.0439-0.0049c-0.1426-0.0088,0.1475,0.0068,0.0967,0.0049l-0.2178-0.0068l-1.7461-0.0518
				c-0.627-0.04-1.0732,0.0156-1.5518,0.0459c-0.4844,0.0469-0.9434,0.0215-1.4512,0.1143l-1.5068,0.2266
				c-0.498,0.0879-0.9756,0.2393-1.4658,0.3506c-1.9268,0.5283-3.7451,1.334-5.3203,2.4375
				c-3.1729,2.1582-5.3096,5.6416-5.584,9.1455c-0.0889,0.708-0.0742,2.1494-0.0605,3.1445
				c0.0088,1.0713,0.0566,2.1641,0.1357,3.2178c0.1455,2.1191,0.4482,4.1572,0.9492,6.0479
				c0.4785,1.8975,1.1201,3.6777,2.0195,5.1895c0.3867,0.8105,0.96,1.4414,1.4268,2.1514c0.2842,0.3057,0.5674,0.6094,0.8477,0.9121
				c0.1426,0.1484,0.2676,0.3154,0.4219,0.4492l0.4727,0.3867c0.3096,0.2627,0.6172,0.5244,0.9229,0.7842
				c0.3428,0.2148,0.6836,0.4297,1.0215,0.6416c0.6367,0.4814,1.4238,0.7373,2.127,1.0938
				c0.3467,0.1885,0.7305,0.3096,1.1182,0.4199c0.3818,0.1201,0.7607,0.2393,1.1357,0.3574l0.2803,0.0908l0.1396,0.0449
				l0.0693,0.0225c-0.0684-0.0137,0.2021,0.0469-0.1436-0.0273l0.042,0.0088l0.6709,0.1299
				c0.4453,0.0859,0.8857,0.1719,1.3223,0.2559l0.6514,0.126c0.1973,0.0283,0.3447,0.0225,0.5176,0.0371
				c0.334,0.0244,0.6641,0.0488,0.9893,0.0732l0.4873,0.0449l0.5078-0.0225c0.3379-0.0127,0.6709-0.0244,1.001-0.0361
				c0.6631-0.0098,1.248-0.1973,1.8564-0.2637c0.5723-0.1563,1.1211-0.3223,1.6514-0.4893
				c2.0469-0.8184,3.5703-2.0762,4.6719-3.3115c1.125-1.2227,1.7588-2.4482,2.0723-3.1953
				c0.3457-0.7363,1.2764-0.7939,1.2959-0.8643c-0.0615-0.8027,0.54-1.5049,1.3438-1.5664c0.8027-0.0615,1.5049,0.54,1.5664,1.3438
				c-0.0049-0.0771,1.0498,1.082,0.7656,2.4863c-0.2969,1.3779-0.9092,3.2275-2.2578,5.3428
				c-1.3535,2.0752-3.6328,4.3896-6.9316,5.8359c-0.8213,0.3271-1.6914,0.6436-2.5938,0.8926
				c-0.9072,0.1611-1.8545,0.4277-2.8115,0.4844c-0.4795,0.0313-0.9648,0.0635-1.457,0.0957l-0.7441,0.04l-0.7783-0.042
				c-0.5225-0.0352-1.0508-0.0703-1.5859-0.1064c-0.2598-0.0215-0.5508-0.0361-0.7891-0.0684l-0.6533-0.1143
				c-3.7451-0.5479-8.3203-2.0088-12.0684-5.1934l-0.708-0.5908c-0.2305-0.2031-0.4297-0.4414-0.6455-0.6631
				c-0.4219-0.4541-0.8457-0.9121-1.2715-1.3721c-0.7197-1.0068-1.541-1.9932-2.1074-3.1074
				c-1.2871-2.1699-2.1494-4.5439-2.7695-6.9434c-0.623-2.4092-0.9648-4.8643-1.124-7.3066
				c-0.0859-1.2275-0.1328-2.4346-0.1377-3.6758c-0.0098-0.6309-0.0068-1.2266,0.0039-1.7959
				c-0.0088-0.5186,0.0342-1.2979,0.0996-2.0225c0.5098-5.8477,3.9658-11.1133,8.6279-14.2666
				c2.3291-1.5928,4.9219-2.6904,7.5498-3.3745c0.6602-0.1494,1.3184-0.333,1.9805-0.4438l1.9863-0.2759
				c0.6514-0.1035,1.374-0.0913,2.0557-0.1353c0.6904-0.0293,1.4121-0.0659,1.9512-0.022l1.7441,0.0723l0.2178,0.0088l0.2051,0.0137
				l0.0645,0.0073l0.1289,0.0146l0.5166,0.061c0.3438,0.0474,0.6875,0.0713,1.0293,0.1411c1.3721,0.2378,2.7227,0.623,4.0186,1.1455
				c2.5898,1.0645,4.8838,2.7236,6.6875,4.6943c1.79,1.9883,3.1416,4.2373,4.0264,6.6133c0.874,2.3877,1.4053,4.8379,1.1553,7.625
				c-0.0938,0.7148-0.21,1.4346-0.5078,2.2324c-0.2627,0.7646-0.7393,1.6611-1.5498,2.4609c-0.2314,0.207-0.4033,0.377-0.7061,0.584
				c-0.3428,0.2207-0.7178,0.4131-1.0938,0.5635l-0.1416,0.0547l-0.0479,0.0146l-0.0889,0.0254l-0.1758,0.0518l-0.0879,0.0254
				l-0.0439,0.0137c-0.7158,0.1699-0.2285,0.0498-0.4014,0.0898l-0.208,0.0215c-0.5557,0.0547-1.1064,0.1094-1.6523,0.1631
				c-1.1348,0.1348-2.0566,0.1182-3.0264,0.1523c-0.9551,0.0205-1.9082,0.0605-2.8057,0.0381
				c-3.626-0.001-6.917-0.1631-9.8369-0.3291c-2.9141-0.1719-5.4688-0.3174-7.5674-0.582
				c-0.5107-0.0596-1.0234-0.1523-1.5361-0.2451c-0.4951-0.1064-0.959-0.2061-1.3906-0.2988
				c-0.8447-0.2207-1.6035-0.3574-2.0957-0.6016c-1.0225-0.5381-1.3584-1.833-1.3584-1.833
				c-0.1152-0.4453-0.0098-0.8955,0.2471-1.2354L335.7261,121.1421z"/>
		</g>
		<g>
			<path d="M381.5903,122.0103c0.001-0.001,0.791-1.3604,1.8818-1.498c0.4883-0.0342,1.0566,0.0254,1.752,0.0371
				c0.7363-0.0078,1.5635,0.0264,2.5186-0.0117c1.8916,0,4.2188-0.1279,6.8789-0.2637c2.6592-0.1689,5.6748-0.3643,8.8848-0.7539
				c1.5947-0.1953,3.2734-0.4492,4.7842-0.8359l0.5654-0.1436l0.4619-0.1641c0.1377-0.0488,0.3672-0.1104,0.3633-0.1396
				c0.0244-0.0166,0.0488-0.0293,0.0762-0.0391l0.042-0.1445l0.0225-0.1367h0.0117c-0.5791,1-0.1416,0.2402-0.2627,0.334
				c0.0723-0.0654,0.2119-0.1172,0.2285-0.1406c-0.165,0.1133-0.3076,0.3076-0.3984,0.4834
				c-0.0811,0.1045-0.0859,0.2031-0.0928,0.1895c0,0,0.0332-0.165,0.001-0.4229c-0.0371-0.5039-0.209-1.2109-0.4912-1.9131
				c-0.2822-0.709-0.6611-1.4336-1.1074-2.1367c-0.8906-1.4111-2.0576-2.7314-3.4141-3.8271
				c-2.7109-2.2256-6.1465-3.5059-9.9092-3.3965l-0.2031,0.0039l-0.1338,0.0186l-0.2666,0.0313
				c-0.1836,0.0264-0.3398,0.0166-0.5615,0.0703c-0.418,0.0742-0.8359,0.1475-1.2451,0.2783
				c-0.8252,0.2227-1.6299,0.5576-2.4023,0.9912c-1.5586,0.8379-2.9707,2.0781-4.2002,3.5195
				c-2.416,2.9395-4.0137,6.7227-4.5762,10.5117c-0.2822,1.8945-0.3281,3.7979-0.0781,5.5986
				c0.0996,0.9072,0.3203,1.7715,0.5488,2.6182c0.2803,0.8496,0.5479,1.5898,0.9736,2.4297c0.2295,0.4736,0.458,0.9463,0.6855,1.417
				c0.2266,0.4521,0.4443,0.8164,0.6631,1.2275c0.4141,0.8008,0.9365,1.583,1.415,2.3193c0.9863,1.4766,2.0781,2.668,3.2002,3.5088
				c1.1211,0.8389,2.3027,1.3213,3.6904,1.6084c1.3818,0.2852,2.9512,0.3516,4.5566,0.3643l0.4609,0.0049l0.6221-0.0244
				l0.6143-0.0254c0.1963-0.0098,0.3018-0.0391,0.4551-0.0547c0.5371-0.0479,1.1943-0.1807,1.8096-0.3027
				c1.2295-0.291,2.3545-0.7295,3.3818-1.1865c2.0215-0.9912,3.5879-2.1572,4.6436-3.2598
				c1.0684-1.0947,1.7197-2.0898,2.0498-2.8096c0.2217-0.3418,0.5381-0.5684,0.8896-0.7168
				c0.1943-0.0742,0.3408-0.1299,0.4395-0.167c0.126-0.0361,0.1895-0.0547,0.1895-0.0547l0.5156-0.1465
				c0.9639-0.2754,1.959,0.0361,2.6035,0.7188c0,0,0.0469,0.0498,0.1396,0.1484c0.0654,0.0967,0.1631,0.2412,0.292,0.4316
				c0.1904,0.3711,0.4141,0.959,0.2441,1.5977c-0.3096,1.2832-1.0225,3.125-2.4512,5.0752
				c-1.4199,1.9551-3.6191,3.8887-6.4961,5.3623c-1.4404,0.7285-3.0469,1.3477-4.8057,1.791
				c-0.8887,0.1924-1.7734,0.3945-2.8457,0.4961c-0.2471,0.0273-0.543,0.0674-0.7549,0.0791l-0.6143,0.0283l-0.6221,0.1748
				l-0.2998,0.1533h-0.165h-0.332c-1.7617,0-3.7246-0.1914-5.9131-0.6182c-2.1719-0.4121-4.5664-1.4307-6.541-2.9209
				c-1.9639-1.4961-3.5225-3.375-4.7764-5.2754c-0.6211-0.9648-1.2266-1.9209-1.7598-2.9619
				c-0.2646-0.5039-0.5635-1.0527-0.7998-1.5371c-0.2227-0.4717-0.4473-0.9502-0.6719-1.4268
				c-0.5146-1.0488-0.9805-2.3125-1.3379-3.5059c-0.3223-1.2197-0.6016-2.4619-0.7295-3.7139
				c-0.3057-2.5049-0.2031-5.0332,0.2012-7.5078c0.8213-4.9434,2.8838-9.7236,6.2266-13.707
				c3.3076-3.9678,8.2705-7.0815,14.0264-7.2383c2.5156-0.0571,5.168,0.3462,7.5742,1.2148
				c2.4248,0.8535,4.6445,2.1553,6.541,3.7334c1.8945,1.5889,3.4766,3.4414,4.7197,5.4805
				c0.6221,1.0205,1.1611,2.0889,1.5928,3.2295c0.4258,1.1475,0.7715,2.3477,0.874,3.7734c0.0527,0.7031,0.0342,1.5-0.1934,2.4248
				c-0.1055,0.4551-0.3096,0.9697-0.6035,1.4961c-0.2295,0.3672-0.5107,0.7197-0.8135,1.0244l-0.2969,0.2637
				c-0.1436,0.1113,0.2754-0.209-0.3311,0.2568l-0.0664,0.0381l-0.1338,0.0762l-0.2695,0.1494l-0.5459,0.2832
				c-0.4053,0.2129-0.6318,0.2598-0.9277,0.3691l-0.8447,0.2822l-0.7617,0.1914c-2.0176,0.4932-3.8213,0.7598-5.5723,0.9736
				c-3.4863,0.4287-6.6484,0.6025-9.4658,0.6143c-2.8154,0.0293-5.2705-0.1035-7.3086-0.293
				c-1.0127-0.084-1.9346-0.2314-2.7246-0.3223c-0.8242-0.1387-1.5488-0.2246-2.1074-0.3711
				c-0.9912-0.4707-1.3105-2.0078-1.3096-2.0088C381.2661,122.896,381.3599,122.4097,381.5903,122.0103z"/>
		</g>
		<g>
			<path d="M424.3765,103.7222c0,0,0.5146-0.0381,1.4785-0.1104c0.9668-0.0811,2.3848-0.2002,4.1904-0.3516
				c0.9541-0.0303,2.0107-0.0635,3.1611-0.0996c1.1426-0.0156,2.4082-0.126,3.6748-0.0859
				c1.2832,0.0088,2.6494,0.0186,4.0898,0.0283c1.4307,0.04,2.9355,0.082,4.5059,0.126c3.1338,0.0986,6.5156,0.3145,10.0596,0.5488
				c1.7725,0.1025,3.5918,0.2344,5.3779,0.3174c0.4316,0.0156,0.8672,0.0303,1.3037,0.0459l0.3281,0.0117l0.1641,0.0059
				l0.082,0.0039l0.6396,0.0645l0.0439,0.0059c-0.0791-0.0635,1.2686,0.3418,1.6865,0.9668
				c0.6045,0.7295,0.666,1.1348,0.7549,1.5674c0.0889,0.415,0.0176,1.0547-0.04,1.2393c-0.0352,0.1416-0.0801,0.2842-0.1328,0.4219
				c-0.0527,0.1387-0.1143,0.2744-0.1816,0.4023l-0.0908,0.1563c-0.0625,0.1025-0.1299,0.2051-0.1982,0.3018l-0.2559,0.3232
				l-0.1982,0.2236c-0.4814,0.5127-0.8477,0.8359-1.2393,1.1924l-1.1348,0.9941c-2.9492,2.4912-5.9961,5.0664-9.0928,7.6826
				c-3.0654,2.6016-6.1123,5.3047-9.0986,8.0586c-3.001,2.7373-5.916,5.5557-8.6592,8.4307
				c-2.7617,2.8555-5.3604,5.7676-7.6582,8.7227l-0.4678,0.5996l-0.3193,0.3818l-0.3291,0.3574
				c-0.4453,0.458-0.9268,0.874-1.4395,1.2393c-0.2568,0.1836-0.5205,0.3545-0.7891,0.5117l-0.4023,0.2256l-0.1855,0.0967
				l-0.0654,0.0332c-0.0156,0.0078-0.0146,0.0068,0.0039-0.0039l0.1309-0.083c-1.0928,1.5586,2.4521-1.8809-0.209-4.3506
				c-2.4043-0.6357-0.8633-0.1758-1.4883-0.3037c-0.042,0.0049-0.0664,0.0107-0.041,0.0068l0.1416-0.0215l0.3643-0.0586
				l0.7441-0.1074c1.9639-0.2568,3.8223-0.3818,5.6328-0.4746c3.6123-0.208,6.9951-0.2451,10.1152-0.2803
				c6.2363-0.0068,11.4121-0.0068,15.0459-0.1338c3.6309-0.1016,5.7139-0.2891,5.7139-0.2891l0.0244-0.002
				c1.8359-0.165,3.457,1.1895,3.6221,3.0254c0.165,1.835-1.1895,3.4561-3.0254,3.6211c-0.3125,0.0283-0.6357,0.0078-0.9297-0.0469
				c0,0-2.0313-0.3916-5.6045-0.7578c-3.5693-0.373-8.6904-0.7031-14.8115-0.6289c-3.0586,0.0146-6.3711,0.1182-9.8242,0.376
				c-1.7197,0.1475-3.4883,0.333-5.2021,0.6191l-0.6367,0.1143l-0.3262,0.0645l-0.2041,0.0391l-0.2148,0.0322
				c-0.6543-0.127,0.8574,0.3418-1.5762-0.3008c-2.6982-2.4766,0.9033-5.9512-0.1738-4.4023l0.7129-0.4229
				c0.1348-0.0859,0.2646-0.1777,0.3906-0.2754c0.2529-0.1953,0.4854-0.4141,0.6992-0.6504l0.1514-0.1777l0.1357-0.1758
				l0.4023-0.5547c2.3164-3.2393,4.9102-6.4043,7.6631-9.4932c2.7793-3.0645,5.7178-6.0508,8.7314-8.9424
				c3.0264-2.8779,6.1523-5.6348,9.252-8.3018c3.0938-2.6611,6.2471-5.1924,9.1455-7.6299l1.042-0.8975
				c0.3213-0.2832,0.6631-0.5986,0.8311-0.7764l0.0391-0.042c-0.0098,0.0098-0.0254,0.0293-0.0342,0.0459
				c-0.0361,0.0479-0.0713,0.1006-0.1016,0.1533l-0.0439,0.082c-0.0557,0.0996-0.1064,0.209-0.1475,0.3193
				c-0.042,0.1113-0.0762,0.2256-0.1006,0.3398c-0.0488,0.1563-0.1289,0.7656-0.0381,1.1523
				c0.0908,0.4004,0.1484,0.7783,0.7236,1.4912c0.3936,0.6074,1.7266,0.9814,1.6172,0.9141l-0.0439-0.0068
				c-0.5479-0.0557,0.6992,0.0664,0.5527,0.0537l-0.0947-0.0039l-0.1885-0.0068l-0.377-0.0156c-0.501-0.0205-1-0.042-1.4971-0.0625
				c-1.9248-0.1045-3.7324-0.252-5.4932-0.3672c-3.5195-0.2363-6.8223-0.4131-9.8643-0.4971
				c-1.5176-0.0264-2.9785-0.1016-4.3564-0.084c-1.376,0.0313-2.6816,0.0605-3.9072,0.0869
				c-1.2451,0.0049-2.3223,0.1143-3.3496,0.2021c-1.0176,0.0879-1.9531,0.1689-2.7979,0.2422
				c-1.752,0.2285-3.167,0.5293-4.1123,0.6787c-0.9512,0.1748-1.458,0.2686-1.458,0.2686l-0.0215,0.0039
				c-1.9043,0.3516-3.7324-0.9072-4.084-2.8115c-0.3506-1.9043,0.9082-3.7324,2.8115-4.083
				C424.1255,103.7476,424.2534,103.7319,424.3765,103.7222z"/>
		</g>
		<g>
			<path d="M475.5786,107.3911c0,0,0.0674,0.877,0.1943,2.5205c0.1299,1.6328,0.251,4.0107,0.5098,6.9951
				c0.2471,2.9814,0.6094,6.5869,1.3828,10.5742c0.4004,1.9873,0.9189,4.0674,1.6572,6.1387
				c0.7402,2.0625,1.6973,4.1328,3.0029,5.9287c1.2842,1.8066,2.9102,3.3125,4.9248,4.1875
				c1.0088,0.4355,2.1084,0.7334,3.2939,0.8623c0.5879,0.0703,1.1904,0.0967,1.8887,0.0918c0.5479,0.002,1.2227-0.0518,1.8271-0.123
				c2.4688-0.3232,4.8037-1.2881,6.8164-2.9941c2.0283-1.6826,3.7139-4.0566,5.0635-6.751
				c1.3428-2.7051,2.3555-5.7275,3.0791-8.8828c0.7246-3.1563,1.2266-6.4492,1.4199-9.7852
				c0.1133-1.6758,0.1426-3.3125,0.0146-4.8945c-0.0625-0.7793-0.1689-1.5625-0.334-2.1758c-0.04-0.1484-0.084-0.2842-0.1221-0.377
				c-0.0254-0.082-0.0908-0.1621,0.0098-0.0137c0.0654,0.0664,0.1543,0.2275,0.583,0.4346c0.1982,0.0879,0.54,0.1807,0.8672,0.1504
				c0.3262-0.0146,0.6309-0.1377,0.8047-0.2393c0.3701-0.2266,0.4404-0.373,0.4971-0.4395
				c0.0488-0.0752,0.0449-0.0664,0.0449-0.0635c-0.0313,0.0811-0.1162,0.4053-0.1563,0.7295
				c-0.0479,0.3301-0.0752,0.7031-0.0918,1.0811c-0.0332,0.75-0.0156,1.5918,0.0625,2.3496
				c0.1572,1.7871,0.3535,3.3486,0.6221,5.1123c1.0342,6.8955,2.2129,13.8701,2.9248,20.8018
				c0.708,6.9336,0.9551,13.8291,0.834,20.5527c-0.0303,1.6807-0.0732,3.3486-0.1875,5.0098
				c-0.0527,0.8301-0.083,1.6533-0.1523,2.4766c-0.082,0.8242-0.1641,1.6436-0.2451,2.459l-0.123,1.2197l-0.0381,0.3564
				l-0.041,0.291l-0.0801,0.5811l-0.2227,1.3223c-0.0889,0.4229-0.1631,0.8457-0.2637,1.2637
				c-0.3809,1.6748-0.876,3.3066-1.4834,4.8779c-2.4121,6.2676-6.793,11.6514-12.5039,14.4736
				c-2.8369,1.4014-5.9746,2.0742-8.9326,1.9541c-2.9658-0.0977-5.6738-0.9521-7.9238-2.0859
				c-4.5-2.3682-7.3115-5.5508-9.3477-8.1621c-2.0195-2.6553-3.2598-4.9004-4.0635-6.4375
				c-0.4043-0.7686-0.6953-1.3643-0.8857-1.7666c-0.1934-0.4014-0.2939-0.6094-0.2939-0.6094
				c-0.7178-1.4883-0.0938-3.2773,1.3945-3.9961c1.4414-0.6953,3.1641-0.1318,3.9248,1.2549l0.0439,0.0811
				c0,0,0.0986,0.1816,0.292,0.5352c0.1895,0.3555,0.4766,0.877,0.8701,1.543c0.79,1.3271,1.9736,3.2646,3.7324,5.4375
				c1.7598,2.1367,4.1699,4.5586,7.3281,6.0654c3.1104,1.5371,7.0049,1.8945,10.749-0.0537c3.75-1.8857,7.042-5.8955,8.9502-10.8203
				c0.4746-1.2344,0.8662-2.5283,1.1689-3.8652c0.0811-0.332,0.1377-0.6719,0.21-1.0098l0.165-0.9814l0.0801-0.5811l0.04-0.291
				l0.0225-0.2285l0.1113-1.1318c0.1592-1.5098,0.3115-3.04,0.3896-4.6055c0.1211-1.5557,0.1738-3.1406,0.2158-4.7412
				c0.1943-6.4023-0.1123-13.0791-0.4463-19.8877c-0.165-3.416-0.3311-6.8604-0.499-10.3174
				c-0.2129-3.4814-0.4268-6.9766-0.6406-10.4717c-0.0859-1.7188-0.2627-3.6396-0.292-5.3457
				c-0.0283-0.9873-0.0186-1.8965,0.0449-2.8906c0.0371-0.4932,0.0859-0.9912,0.1777-1.5215
				c0.0977-0.5361,0.1982-1.0723,0.5059-1.7959c0.0908-0.1943,0.1787-0.3838,0.3525-0.6387
				c0.1797-0.2451,0.3945-0.5615,0.9531-0.9004c0.2656-0.1602,0.6777-0.3135,1.1113-0.3398
				c0.4355-0.0313,0.8887,0.0742,1.1846,0.2129c0.6299,0.2949,0.877,0.6152,1.0771,0.8496c0.374,0.4893,0.4912,0.8105,0.6309,1.1309
				c0.123,0.3115,0.209,0.5908,0.2822,0.8623c0.2793,1.0703,0.3867,2.0195,0.4658,2.9688c0.1445,1.8779,0.0967,3.709,0.0293,5.4727
				c-0.3496,7.0742-1.3213,14.1016-4.0859,20.6563c-1.3945,3.252-3.3457,6.3828-6.0908,8.8682
				c-2.7344,2.4795-6.2979,4.1074-9.7988,4.5508c-0.8877,0.1123-1.7041,0.1904-2.6396,0.1982
				c-0.7842,0.0137-1.6563-0.0117-2.5215-0.1055c-1.7227-0.1709-3.4375-0.6025-5.0342-1.2773
				c-3.2197-1.3574-5.749-3.7188-7.502-6.1699c-1.7539-2.4854-2.873-5.0586-3.7217-7.501
				c-0.8408-2.4492-1.3906-4.7939-1.8086-6.9932c-0.8311-4.3984-1.0908-8.2256-1.2354-11.3535
				c-0.1133-3.1309-0.3008-5.5674-0.2598-7.2148c0.042-1.6367-0.1396-2.5098-0.1396-2.5098v-0.0146
				c0-1.374,1.3828-2.459,2.7559-2.4238C474.2407,105.1284,475.4771,106.1392,475.5786,107.3911z"/>
		</g>
	</g>
</g>
</svg>
