<?xml version="1.0" encoding="utf-8"?>
<!-- Generator: Adobe Illustrator 16.0.0, SVG Export Plug-In . SVG Version: 6.00 Build 0)  -->
<!DOCTYPE svg PUBLIC "-//W3C//DTD SVG 1.1//EN" "http://www.w3.org/Graphics/SVG/1.1/DTD/svg11.dtd">
<svg version="1.1" id="Layer_1" xmlns="http://www.w3.org/2000/svg" xmlns:xlink="http://www.w3.org/1999/xlink" x="0px" y="0px"
	 width="800px" height="200px" viewBox="0 0 800 200" enable-background="new 0 0 800 200" xml:space="preserve">
<g>
	<path d="M124.4731,142.9219l2.1714-3.0732l2.084-3.0898c1.4014-2.0361,2.7163-4.1855,4.0771-6.2705l3.9893-6.3467l3.9253-6.3887
		c2.5947-4.2734,5.1548-8.5664,7.6909-12.874c1.2861-2.1426,2.5127-4.3198,3.7559-6.4873c1.248-2.1646,2.5078-4.3223,3.7124-6.5103
		c1.208-2.1855,2.4692-4.3442,3.6343-6.5518l3.5811-6.5781l3.5347-6.5996c1.1982-2.1909,2.3027-4.4243,3.4868-6.625
		c1.1948-2.1973,2.2451-4.4541,3.3613-6.6895c1.1436-2.2256,2.1216-4.5151,3.1084-6.8076c1.0498-2.2729,1.8477-4.6274,2.7188-6.9678
		c0.2104-0.5869,0.4434-1.1689,0.6348-1.7617l0.4722-1.8042c0.3105-1.2046,0.5977-2.4165,0.8599-3.6309
		c0.0488-0.2383,0.2817-0.3916,0.5195-0.3423c0.2139,0.0439,0.3589,0.2397,0.3511,0.4507v0.001l0.6416,13.479l0.3521,6.7192
		c0.1157,2.2378,0.2573,4.4731,0.4038,6.7065c0.1294,2.2334,0.2671,4.4658,0.4414,6.6948l0.5083,6.6826
		c0.1748,2.2266,0.3955,4.4473,0.6118,6.6675c0.2168,2.2192,0.4189,4.4414,0.6938,6.6523c0.2446,2.2158,0.5547,4.4204,0.856,6.627
		c0.3193,2.2017,0.6069,4.4106,0.9912,6.6001c0.3369,2.2002,0.7886,4.373,1.1768,6.5625c0.4473,2.1729,0.8604,4.3584,1.3916,6.5107
		c0.4888,2.166,1.062,4.3047,1.6157,6.4541c0.6108,2.1289,1.2373,4.2549,1.9375,6.3564c0.3228,1.0625,0.7026,2.1006,1.0928,3.1367
		c0.3916,1.0352,0.7397,2.0928,1.1821,3.1055c0.4302,1.0195,0.8257,2.0605,1.2861,3.0684l1.3931,3.0283l0.0234,0.0508
		c0.2168,0.4707,0.0107,1.0283-0.4604,1.2451c-0.4316,0.1982-0.936,0.042-1.1841-0.3486l-1.8442-2.8955
		c-0.6152-0.9697-1.1182-1.9951-1.6841-2.9932c-0.5723-0.9971-1.0557-2.0322-1.5464-3.0674
		c-0.499-1.0322-0.9878-2.0693-1.418-3.1279c-0.9375-2.0938-1.7051-4.2471-2.4922-6.3965c-0.7236-2.165-1.4746-4.3311-2.062-6.5352
		c-0.6504-2.1924-1.1797-4.4092-1.7437-6.6211c-0.502-2.2227-0.9858-4.4521-1.397-6.6904
		c-0.4478-2.2354-0.8013-4.4814-1.1782-6.7261c-0.3125-2.2524-0.6333-4.5044-0.8872-6.7617
		c-0.2847-2.2549-0.4956-4.5156-0.7207-6.7749c-0.188-2.2622-0.3423-4.5264-0.4707-6.7905
		c-0.1245-2.2646-0.2568-4.5283-0.2832-6.7959c-0.0552-2.2661-0.0737-4.5317-0.083-6.7964c0.019-2.2656,0.0771-4.5303,0.1436-6.793
		c0.0615-2.2627,0.2153-4.5239,0.353-6.7827c0.1343-2.2588,0.3667-4.5142,0.5786-6.7666c0.2568-2.2524,0.5205-4.498,0.9038-6.7422
		v-0.001l0.8706,0.1084c-0.3232,1.2222-0.6216,2.4478-0.8965,3.6802l-0.4063,1.8516l-0.5156,1.8174
		c-0.7065,2.4175-1.3481,4.8701-2.2373,7.2256c-0.8433,2.374-1.6201,4.7827-2.5728,7.1138
		c-0.9302,2.3403-1.7783,4.7271-2.8115,7.0225c-1,2.3115-1.9771,4.6406-3.0469,6.9204l-3.2871,6.8032
		c-1.1641,2.231-2.3198,4.4663-3.5142,6.6816c-1.1714,2.2285-2.4355,4.4019-3.6494,6.6055
		c-1.2158,2.2026-2.4595,4.3877-3.7397,6.5522c-1.2764,2.166-2.5361,4.3428-3.855,6.4834
		c-1.3154,2.1426-2.5859,4.3115-3.9434,6.4277l-4.0513,6.3613c-2.7495,4.21-5.543,8.3926-8.4595,12.4941
		c-1.4951,2.0352-2.9136,4.0908-4.4692,6.1045c-0.7715,1.0039-1.5171,2.0332-2.3076,3.0127l-2.4014,2.8965
		c-0.3335,0.4023-0.9302,0.458-1.3325,0.124c-0.3828-0.3174-0.4521-0.8721-0.1714-1.2715L124.4731,142.9219z"/>
</g>
<g>
	<path d="M142.084,99.4731c0,0,0.1831-0.1357,0.5259-0.3901c0.3633-0.2334,0.812-0.6504,1.5425-1.0337
		c0.7246-0.3687,1.6699-0.9063,2.7163-1.3232c1.0361-0.4229,2.2251-0.939,3.5293-1.3403c1.3003-0.4502,2.7212-0.9058,4.2275-1.3076
		c1.5083-0.4277,3.1021-0.8164,4.7534-1.2031c3.3057-0.7656,6.8413-1.4351,10.3774-2.0425c1.7656-0.2944,3.5317-0.5889,5.27-0.8784
		c1.7358-0.27,3.4448-0.5356,5.0981-0.793c1.6489-0.252,3.2437-0.4951,4.7554-0.7261c1.5044-0.2456,2.9268-0.478,4.2397-0.6919
		c1.3018-0.2451,2.4956-0.4697,3.5532-0.6689c1.022-0.27,1.9404-0.4629,2.6963-0.6431c1.4214-0.4727,2.2905-0.7388,2.29-0.7388
		l0.0796-0.0244c0.2476-0.0757,0.5098,0.0635,0.5854,0.3115c0.0596,0.1943-0.0146,0.3984-0.1689,0.5137
		c0,0-0.187,0.1382-0.5371,0.3979c-0.3584,0.2471-0.8755,0.6494-1.5762,1.0981c-0.7134,0.3755-1.5786,0.8618-2.605,1.3633
		c-1.0317,0.4243-2.1934,0.9644-3.4917,1.4297c-1.2969,0.4268-2.6973,0.9912-4.2046,1.3945
		c-1.5034,0.4263-3.0869,0.918-4.7368,1.3105c-1.6484,0.4268-3.3574,0.8096-5.0933,1.188
		c-1.7417,0.3711-3.5024,0.7231-5.2734,1.0527c-1.7656,0.3418-3.5352,0.6392-5.2759,0.9346
		c-1.7388,0.2759-3.4497,0.5469-5.106,0.8096c-3.3018,0.4761-6.3838,0.9199-9.0249,1.3008
		c-0.6621,0.0889-1.293,0.1816-1.8774,0.2983c-0.5962,0.0938-1.1616,0.1831-1.6929,0.2666
		c-0.5513,0.0713-0.9893,0.1909-1.4292,0.2749c-0.4429,0.084-0.8496,0.1611-1.2173,0.231c-0.7441,0.1563-1.3555,0.3979-1.7617,0.502
		c-0.4121,0.1182-0.6318,0.1812-0.6318,0.1812l-0.0137,0.0039c-0.3184,0.0908-0.6504-0.0933-0.7412-0.4111
		C141.7944,99.873,141.8901,99.6177,142.084,99.4731z"/>
</g>
<g>
	<path d="M214.3564,37.5942c0,0,0.2285,0.3491,0.6567,1.0029c0.1045,0.168,0.2324,0.3374,0.3525,0.5562
		c0.1099,0.2363,0.2295,0.4941,0.3594,0.7725c0.2603,0.5596,0.5781,1.2236,0.7749,1.9404c0.2314,0.7227,0.5127,1.5273,0.6909,2.4121
		c0.2202,0.8833,0.4238,1.8462,0.5679,2.874c0.3618,2.0591,0.5757,4.3848,0.7227,6.9209c0.0894,1.27,0.1021,2.584,0.1592,3.9512
		c0.022,1.3623,0.0181,2.771,0.0093,4.2173c-0.0444,2.8882-0.1133,5.9341-0.3066,9.0674c-0.1733,3.1372-0.3726,6.3706-0.6504,9.6475
		c-0.2871,3.271-0.5786,6.5933-0.8706,9.916c-0.6465,6.6108-1.2925,13.2222-1.8989,19.4204
		c-0.2603,3.0898-0.54,6.0732-0.7334,8.8965c-0.0967,1.4111-0.187,2.7861-0.2495,4.1094c-0.0859,1.3262-0.1401,2.6045-0.1704,3.8281
		c-0.0781,2.4531-0.0708,4.6836-0.0044,6.6465c0.085,1.9609,0.2368,3.6416,0.4404,4.9961c0.0762,0.6914,0.2515,1.248,0.3374,1.7695
		c0.0854,0.5264,0.2178,0.9307,0.3315,1.2549c0.2114,0.6621,0.3242,1.0156,0.3242,1.0156l0.0757,0.2373
		c0.2695,0.8438-0.1963,1.7471-1.0405,2.0166c-0.7861,0.251-1.623-0.1367-1.9521-0.873c0,0-0.189-0.4219-0.5439-1.2139
		c-0.1851-0.3984-0.3999-0.8916-0.562-1.4727c-0.1694-0.5791-0.4326-1.2568-0.5796-2.0068
		c-0.1509-0.749-0.3716-1.5879-0.5098-2.4912c-0.1279-0.9004-0.3027-1.8877-0.3936-2.9277
		c-0.2148-2.084-0.3779-4.4307-0.4038-6.9727c-0.0659-2.5469-0.0161-5.2881,0.1035-8.1787
		c0.1108-2.8906,0.2866-5.9258,0.5381-9.0566c0.2637-3.127,0.5112-6.3574,0.8682-9.6226c0.3477-3.2622,0.7012-6.5762,1.0542-9.8901
		c0.3779-3.3022,0.7559-6.605,1.1279-9.856c0.3418-3.248,0.7432-6.438,1.0356-9.5264c0.3071-3.0889,0.5889-6.0684,0.8101-8.896
		c0.1958-2.8257,0.3647-5.4956,0.4263-7.9536c0.019-1.2271,0.0547-2.4092,0.0234-3.52c-0.001-1.1182-0.0264-2.1753-0.1035-3.1582
		c-0.0352-0.9951-0.1489-1.9043-0.2495-2.748c-0.0688-0.8564-0.2402-1.6025-0.373-2.2896
		c-0.1123-0.7114-0.3052-1.2476-0.4453-1.7466c-0.0713-0.25-0.1377-0.4814-0.1982-0.6938c-0.0801-0.2153-0.1904-0.4141-0.269-0.5903
		c-0.3345-0.7075-0.5132-1.0845-0.5132-1.0845l-0.0039-0.0078c-0.1675-0.354-0.0161-0.7773,0.3379-0.9448
		C213.7832,37.188,214.1655,37.3022,214.3564,37.5942z"/>
</g>
<g>
	<path d="M253.3809,109.6787c0,0-0.2324,0.0186-0.6831,0.0527c-0.4683,0.0264-1.0962,0.0986-1.8887,0.1973
		c-1.6367,0.2305-4.0566,0.6592-6.9785,1.6846c-2.9067,1.0283-6.355,2.6621-9.6792,5.2891
		c-1.6533,1.3096-3.2607,2.8906-4.5747,4.7578c-1.3066,1.8604-2.3208,4.0303-2.5742,6.3164
		c-0.0327,0.2852-0.064,0.5713-0.0601,0.8574l-0.0122,0.4316l0.0215,0.4551c0.0103,0.1689,0.0088,0.377,0.0249,0.5166l0.0464,0.4014
		c0.0146,0.2588,0.0884,0.5645,0.1323,0.8525c0.2285,1.1563,0.6753,2.2305,1.332,3.1953c1.3091,1.9365,3.6357,3.3604,6.3618,4.2832
		c2.7422,0.9131,5.8394,1.3877,9.0513,1.5811c1.5942,0.0977,3.2793,0.1279,4.8833,0.1064c0.4526-0.001,0.8247-0.0244,1.186-0.0479
		c0.3647-0.0117,0.7563-0.0684,1.1372-0.1025c0.7549-0.1006,1.5054-0.2217,2.2031-0.4238c2.8604-0.7646,4.8271-2.4473,5.8164-5.335
		c0.9854-2.8809,1.1816-6.4102,1.2441-10.0332c0.0747-3.6631,0.2339-7.3564,0.041-10.9131l-0.2056-2.6025
		c-0.0645-0.8516-0.0962-1.7012-0.2852-2.4785c-0.0317-0.207-0.105-0.3828-0.1699-0.5664
		c-0.0566-0.1924-0.1353-0.3672-0.2329-0.5254c-0.0825-0.1641-0.186-0.333-0.3267-0.5059c-0.1108-0.1455-0.249-0.3008-0.375-0.415
		c-0.1226-0.1191-0.2578-0.2041-0.3145-0.2246c-0.0864-0.0293,0.0752,0.0596,0.2866-0.0303
		c0.1758-0.0918,0.1255-0.1016,0.0981,0.0156c-0.0313,0.1035-0.0659,0.2695-0.0889,0.4492
		c-0.104,0.7383-0.0327,1.6475,0.0703,2.5234c0.1074,0.8867,0.2676,1.7832,0.4194,2.6816c0.3203,1.7969,0.5864,3.6094,0.7778,5.4355
		c0.4736,3.6621,0.9453,7.3096,1.4136,10.9287c0.9507,7.2852,1.8867,14.4541,2.7925,21.3926
		c0.4497,3.4805,0.9165,6.9033,1.2827,10.29c0.2007,1.6943,0.2759,3.5957-0.0078,5.4189c-0.2563,1.8281-0.8706,3.6289-1.8105,5.2236
		c-1.8828,3.2402-5.0288,5.3633-8.1294,6.5117c-3.1353,1.1748-6.3213,1.5098-9.2979,1.4512
		c-2.9863-0.0684-5.7949-0.5439-8.3804-1.2354c-2.5889-0.6855-4.9648-1.5771-7.1064-2.5889
		c-4.3018-2.001-7.6636-4.4258-10.2373-6.5898c-2.5615-2.1934-4.3384-4.1514-5.5098-5.5059
		c-0.5571-0.7021-1.083-1.1553-1.1787-1.6826c-0.0752-0.2402-0.0654-0.4766-0.0562-0.6367
		c-0.002-0.1514,0.0361-0.2598,0.0303-0.2549c0.0947-0.3066,0.3564-0.5166,0.6543-0.5605l0.0117-0.002
		c-0.0059,0.0049,0.1089-0.0156,0.2568,0.0068c0.1597,0.0137,0.394,0.0352,0.6147,0.1367c0.4863,0.1631,0.8608,0.7041,1.4883,1.2861
		c1.2227,1.1895,3.0776,2.8799,5.6436,4.7314c2.5449,1.8711,5.8306,3.8809,9.833,5.6045c3.9951,1.6904,8.7852,3.0947,14.0229,3.2197
		c2.6045,0.0605,5.3145-0.2266,7.8726-1.0859c2.5425-0.8623,4.9004-2.4053,6.3491-4.707c0.7251-1.1436,1.2363-2.457,1.4844-3.8779
		c0.2749-1.4277,0.2231-2.8848,0.0649-4.5313c-0.2954-3.3125-0.7188-6.7109-1.2314-10.1572
		c-1.0142-6.8984-2.3691-13.9971-3.5166-21.2695c-0.5889-3.6357-1.0942-7.3193-1.4839-11.0566
		c-0.2188-1.8662-0.3159-3.7598-0.2207-5.6826c0.0405-0.9609,0.1265-1.9277,0.2388-2.9063c0.1206-0.9844,0.2451-1.9531,0.5361-3.041
		c0.0815-0.2744,0.1768-0.5586,0.3423-0.8779c0.1655-0.3018,0.3853-0.7266,0.9829-1.0332c0.6362-0.3076,1.3091-0.1172,1.6304,0.0605
		c0.3623,0.1855,0.5967,0.3936,0.8174,0.5879c0.2158,0.2021,0.4009,0.3848,0.5913,0.5947c0.1714,0.1748,0.3423,0.3809,0.5195,0.6045
		c0.3652,0.4277,0.6694,0.8857,0.9463,1.3486c1.1709,1.8574,1.6338,3.8643,1.8281,5.792c0.4209,3.8525,0.4932,7.5713,0.5938,11.248
		c0.0464,1.835,0.0747,3.7451-0.042,5.6689c-0.1094,1.9277-0.3857,3.9111-1.0269,5.9033c-0.6279,1.9805-1.748,4.0039-3.4009,5.5459
		c-1.6465,1.5469-3.6836,2.5137-5.6333,3.041c-1.9458,0.5498-3.9272,0.7354-5.7554,0.7793
		c-1.8301,0.0342-3.5493-0.0381-5.313-0.1563c-3.4966-0.252-6.9663-0.79-10.3027-1.9375c-1.6611-0.5957-3.2954-1.3301-4.7998-2.3545
		c-1.5068-1.0049-2.8745-2.3057-3.9116-3.8398c-1.0308-1.5332-1.7085-3.2695-2.0234-4.9697
		c-0.0674-0.4307-0.1538-0.834-0.186-1.2949l-0.0596-0.6719c-0.0161-0.2178-0.0137-0.3691-0.019-0.5557l-0.0103-0.6123
		l0.0303-0.6309c0.0112-0.4209,0.0625-0.833,0.1201-1.2412c0.4629-3.2881,1.9194-6.0732,3.585-8.3262
		c1.6851-2.2627,3.623-4.0518,5.563-5.5137c3.8887-2.9424,7.8149-4.5518,11.0806-5.5742c3.2871-1.0029,5.9678-1.3838,7.8003-1.5283
		c0.9482-0.0693,1.6563-0.1074,2.0908-0.1084c0.4517-0.0107,0.6851-0.0156,0.6851-0.0156c0.9287-0.0225,1.6992,0.7119,1.7217,1.6406
		C254.9551,108.8594,254.2651,109.6094,253.3809,109.6787z"/>
</g>
<g>
	<path d="M310.2002,130.582c0,0,0.1812,1.1924-0.4717,1.9043c-0.7002,0.5908-1.9067,1.4063-3.4336,2.4023
		c-1.5352,0.9619-3.4653,2.0703-5.855,3.0664c-2.3843,0.9941-5.2773,1.8525-8.6362,2.0352
		c-1.6797,0.0586-3.4766-0.0371-5.3013-0.4795c-1.8213-0.4375-3.665-1.2051-5.3457-2.3271
		c-1.687-1.1133-3.1851-2.5879-4.3936-4.2803c-1.2197-1.6904-2.0894-3.626-2.7085-5.6309
		c-0.5908-2.0186-0.8892-4.1279-0.8906-6.2549l0.0039-0.7979l0.0059-0.208l0.0078-0.0898l0.0156-0.1807l0.0317-0.3623
		c0.0273-0.2529,0.0288-0.4561,0.0781-0.752l0.1553-0.8867c0.2251-1.1787,0.5527-2.1855,0.981-3.2256
		c1.7246-4.0703,4.8779-7.5127,8.7139-9.5596c0.9248-0.582,1.9438-0.9443,2.9209-1.3994l1.5234-0.5068l0.7612-0.25l0.7744-0.1797
		l1.5469-0.3564c0.5151-0.1143,1.0361-0.1602,1.5537-0.2422c0.5181-0.0684,1.0356-0.1563,1.5522-0.207l1.5483-0.0859l0.7725-0.042
		l0.3853-0.0234l0.0967,0.166c0.0542,0-0.0542,0.1719,0.1343,0.1719h0.0459l0.1836-0.167l1.4634-0.0508
		c0.9253-0.0234,2.0493,0.1055,3.1216,0.251c2.1035,0.4014,4.2207,0.9395,6.0845,2.375c1.8506,1.3584,3.269,3.6094,3.4414,5.9678
		c0.1904,2.3398-0.4868,4.5986-1.9639,6.4092c-0.189,0.2246-0.4287,0.4238-0.6465,0.6309c-0.2227,0.2051-0.437,0.4082-0.7319,0.5674
		c-0.2759,0.1689-0.5571,0.3301-0.8394,0.4805l-0.644,0.2646c-0.7734,0.3105-1.5352,0.6172-2.2842,0.918
		c-1.6094,0.5645-3.1758,1.0811-4.6694,1.4648c-2.9961,0.8145-5.8213,1.2793-8.3423,1.4229c-2.5239,0.1348-4.7261-0.0234-6.52-0.209
		c-1.7959-0.1943-3.1899-0.4551-4.1367-0.6748c-0.9487-0.2178-1.4072-0.6426-1.4072-0.6436
		c-0.2446-0.2266-0.2593-0.6094-0.0322-0.8535c0.0625-0.0684,0.1372-0.1182,0.2173-0.1504l0.0513-0.0195
		c0-0.001,0.5166-0.2061,1.4214-0.1719c0.9063,0.0381,2.2485,0.0488,3.9448-0.0771c1.6973-0.1133,3.7422-0.3906,6.0557-0.7861
		c2.3115-0.4209,4.8984-0.9492,7.6748-1.7236c1.4048-0.376,2.7832-0.8867,4.2261-1.373c0.7495-0.2979,1.5117-0.6016,2.2856-0.9092
		l0.5166-0.209c0.0801-0.0605,0.1626-0.1133,0.251-0.1582c0.0928-0.0244,0.1777-0.124,0.2656-0.21
		c0.0864-0.0898,0.1895-0.1523,0.2754-0.2549c0.7158-0.8262,1.1909-2.1514,1.1104-3.4043c-0.0669-1.2666-0.7285-2.418-1.8433-3.3154
		c-2.3169-1.832-6.084-2.293-9.8096-2.1914c-3.7056,0.1475-7.4976,0.875-10.6367,2.7461c-3.1831,1.7705-5.5908,4.7188-6.6646,7.9844
		c-0.2676,0.7949-0.4727,1.6826-0.5547,2.4258l-0.0664,0.5537c-0.0244,0.1836-0.0146,0.4688-0.0244,0.6982l-0.0073,0.3633
		l-0.0034,0.1807l-0.002,0.0908c-0.0029,0.1143,0.0029-0.1045,0.0039-0.0674l0.0024,0.04l0.042,0.6484
		c0.1157,1.7236,0.479,3.3975,1.0439,4.9385c1.0698,3.1104,2.9644,5.6738,5.3052,7.2402c2.3389,1.5967,5.1021,2.1309,7.7163,2.1221
		c2.6328-0.082,5.1133-0.6445,7.2852-1.3242c2.1675-0.708,4.0518-1.4814,5.5718-2.208c1.521-0.708,2.6587-1.3232,3.5127-1.7744
		c0.9146-0.3096,1.9316,0.3379,1.9316,0.3379C310.0889,130.2852,310.1763,130.4297,310.2002,130.582z"/>
</g>
<g>
	<path d="M320.313,37.8926c0,0,0.0996,0.7227,0.2866,2.0776c0.1895,1.353,0.4023,3.3599,0.6636,5.8994
		c0.4673,5.0879,0.9702,12.3643,1.4683,21.1016c0.2642,4.3682,0.4785,9.103,0.646,14.1138
		c0.1582,5.0103,0.2407,10.2964,0.2422,15.7666c-0.0122,5.4707-0.354,11.123-0.7085,16.8662
		c-0.4336,5.751-0.6128,11.5586-1.123,17.4785c-0.064,0.7373-0.1694,1.4961-0.271,2.252l-0.2202,1.1846l-0.1909,0.6758
		l-0.0503,0.168l-0.0254,0.084l-0.0586,0.1455l-0.1069,0.251c-0.0088,0.0391-0.147,0.2969-0.2397,0.4463
		c-0.062,0.0938-0.0845,0.1504-0.1851,0.2705c-0.0986,0.1162-0.207,0.2275-0.3223,0.3301
		c-0.0688,0.0566-0.0894,0.0869-0.2021,0.1592c-0.1265,0.0771-0.2681,0.1465-0.4165,0.1992
		c-0.3027,0.1045-0.5811,0.1563-0.9463,0.084c-0.3384-0.0508-0.7344-0.2578-0.814-0.3477c-0.1494-0.1162-0.2896-0.252-0.4106-0.3945
		c-0.145-0.1934-0.2383-0.3594-0.3345-0.5381l-0.167-0.4004c-0.0835-0.2422-0.1567-0.4746-0.207-0.6855
		c-0.2085-0.8486-0.3057-1.6133-0.3896-2.3838c-0.2798-3.0479-0.2822-6.0039-0.0444-8.9678
		c0.2544-2.9521,0.6919-5.9063,1.7241-8.8018c0.4487-1.2813,0.9927-2.7402,1.6152-4.0469c0.6167-1.3301,1.3057-2.6396,2.1758-3.8857
		c0.8633-1.2422,1.877-2.4502,3.2319-3.4414c0.6621-0.502,1.4609-0.9004,2.2974-1.2109c0.8628-0.2607,1.7856-0.4531,2.7065-0.3848
		c1.8613,0.0635,3.4717,0.8652,4.7412,1.7695c1.2651,0.9355,2.2568,2.0303,3.1021,3.1563c1.6748,2.2656,2.7974,4.6807,3.5864,7.0928
		c0.7969,2.4121,1.2568,4.832,1.4282,7.2031c0.1587,2.3721,0.0073,4.7051-0.5376,6.915c-0.2896,1.1016-0.6582,2.1719-1.1587,3.1738
		c-0.5229,0.9912-1.1338,1.9209-1.8574,2.7334c-1.4517,1.625-3.2744,2.7266-5.0078,3.3232c-1.748,0.585-3.3926,0.7363-4.8145,0.7246
		c-2.8608-0.0215-4.9448-0.5654-6.3408-0.9277c-0.7153-0.1318-1.1802-0.5146-1.4512-0.8955
		c-0.2764-0.3613-0.3662-0.6973-0.3662-0.6973c-0.1528-0.5713,0.0386-1.1533,0.4463-1.5264l0.0332-0.0303
		c0,0,0.2603-0.2373,0.6621-0.4072c0.4116-0.2061,0.9409-0.2539,1.5566-0.0859c1.2471,0.2568,3.1206,0.6104,5.3618,0.4932
		c2.23-0.1094,4.8096-0.7822,6.5996-2.875c1.7891-2.0791,2.731-5.6523,2.4482-9.626c-0.1328-1.9834-0.5137-4.0674-1.1846-6.1289
		c-0.665-2.0566-1.604-4.1201-2.8774-5.9023c-0.6372-0.8828-1.3652-1.6895-2.1567-2.2959
		c-0.7964-0.5801-1.6309-0.9756-2.4146-1.0039c-1.5322-0.1758-3.3525,1.209-4.7803,3.1699c-0.7275,0.9688-1.3652,2.083-1.9497,3.248
		c-0.6045,1.1787-1.0767,2.3252-1.6011,3.6758c-0.9409,2.374-1.4341,5.084-1.7446,7.8232c-0.2827,2.7393-0.4102,5.585-0.1553,8.3115
		c0.0664,0.6709,0.1582,1.3486,0.2935,1.9111c0.0313,0.1426,0.0723,0.2568,0.1025,0.3584c0.0156,0.0332,0.0288,0.0674,0.0396,0.1035
		c-0.0054-0.0225-0.0088-0.0283-0.0522-0.0732c-0.0557-0.0791-0.1304-0.1514-0.2139-0.2051
		c-0.0239-0.0098-0.3179-0.2188-0.5718-0.2393c-0.2769-0.0254-0.4707-0.0127-0.689,0.0566
		c-0.1055,0.0361-0.2046,0.0889-0.2891,0.1504l-0.1025,0.0684c-0.0513,0.0371-0.0967,0.083-0.1318,0.1348
		c-0.0356,0.0557-0.0249,0.0244-0.0361,0.0439c-0.0044-0.0098-0.0308,0.1025,0.0225-0.0313l0.1084-0.25
		c-0.0063,0.0156,0.0532-0.123-0.0073,0.0195l0.0117-0.0479l0.0254-0.0938l0.1089-0.3721l0.1836-0.9609
		c0.0952-0.6855,0.1958-1.3672,0.2617-2.0791c0.5835-5.6738,0.6616-11.5186,0.498-17.2217
		c-0.1182-5.7148-0.4033-11.3418-0.4175-16.7856c0.0015-5.4463,0.0029-10.7114,0.0044-15.7036
		c0.0308-4.9951,0.0601-9.7183,0.0869-14.0776c0.0527-8.7212-0.0273-15.9873-0.0776-21.0732
		c0.002-2.5444,0.0039-4.5435,0.0049-5.9067c0.0132-1.3677,0.02-2.0977,0.02-2.0977c0.0044-0.4507,0.3735-0.813,0.8247-0.8086
		C319.9219,37.1914,320.2588,37.4976,320.313,37.8926z"/>
</g>
<g>
	<path d="M353.3203,105.0283c0.0005,0,0.2173,0.2139,0.5347,0.6416c0.3057,0.4053,0.7441,1.125,1.1147,2.0273
		c0.3843,0.9014,0.7124,2.0342,0.9111,3.3613c0.1968,1.3262,0.4067,2.8193,0.541,4.4541c0.1143,1.6367,0.2163,3.4063,0.188,5.2813
		c-0.0039,1.8721-0.1055,3.8447-0.29,5.8818c-0.2036,2.042-0.4321,4.125-0.9575,6.3086c-0.1533,0.5547-0.2832,1.0957-0.6113,1.7646
		c-0.0645,0.1494-0.2271,0.3857-0.396,0.582c-0.1538,0.1436-0.3125,0.2705-0.5156,0.3682c-0.144,0.0537-0.3081,0.0918-0.4697,0.1025
		c-0.0806,0.0059-0.1606,0.0049-0.2363,0c-0.002,0.0107-0.4736-0.1211-0.2808-0.0703l-0.0225-0.0107l-0.0547-0.0254
		c-0.0801-0.0391-0.1616-0.0879-0.2378-0.1436c-0.1577-0.1123-0.2949-0.2773-0.3037-0.3027
		c-0.0894-0.123-0.1572-0.2422-0.1938-0.3271c-0.0967-0.1973-0.1455-0.3525-0.1948-0.5107
		c-0.3267-1.2119-0.4106-2.2666-0.5093-3.3711c-0.1382-2.1836-0.1255-4.3447-0.0088-6.4785
		c0.1084-2.1328,0.3325-4.2354,0.7207-6.2744c0.3936-2.0371,0.9907-4.0078,1.8848-5.8008c0.8916-1.7842,2.1274-3.3838,3.6128-4.5166
		c1.4673-1.1553,3.1172-1.8447,4.5918-2.1357c1.4805-0.2979,2.7778-0.2803,3.8027-0.1602c1.0293,0.1133,1.8027,0.3184,2.3193,0.4717
		c0.5103,0.1719,0.7822,0.2627,0.7822,0.2627c0.7222,0.2432,1.1108,1.0254,0.8682,1.748c-0.1997,0.5928-0.7622,0.96-1.3569,0.9385
		l-0.0942-0.0029c0,0-0.249-0.0098-0.7158-0.0264c-0.4624-0.0186-1.1348-0.0371-1.9609-0.0156
		c-1.6504,0.0615-3.9258,0.3027-6.1201,1.7783c-1.085,0.752-2.1494,1.8193-3.0767,3.1953
		c-0.9355,1.3672-1.7197,3.0244-2.3252,4.8379c-1.2202,3.6279-1.6323,7.9092-1.1182,12.0029
		c0.1235,1.002,0.2988,2.0713,0.6279,2.873c0.0371,0.0908,0.0825,0.1846,0.1104,0.2197c0.0186,0.0352,0.0234,0.0264,0.0127,0.0098
		c0.0239,0.0332-0.0615-0.0908-0.1709-0.1572c-0.0522-0.0332-0.1094-0.0596-0.166-0.0762c-0.0054-0.001,0.0254,0.0098,0.0361,0.0137
		l0.0234,0.0078c0.208,0.0557-0.249-0.0625-0.2344-0.0596c-0.0435-0.0098-0.0903-0.0156-0.1387-0.0156
		c-0.0967,0.001-0.1958,0.0273-0.2744,0.0703c-0.0938,0.0303-0.1548,0.0635-0.2041,0.1289c-0.02-0.0176-0.0137,0.0107,0.0151-0.0889
		c0.1055-0.2891,0.2095-0.7813,0.2554-1.25c0.2109-1.9336,0.1421-3.9775,0.0127-5.9111c-0.1279-1.9424-0.3472-3.8184-0.5713-5.5869
		c-0.2471-1.7676-0.4683-3.4336-0.7402-4.957c-0.251-1.5264-0.4922-2.917-0.75-4.1377c-0.2754-1.2158-0.4072-2.292-0.46-3.1953
		c-0.0615-0.9053,0.0088-1.5977,0.0361-2.1475c0.0454-0.5303,0.1177-0.8262,0.1182-0.8262
		c0.2065-0.8467,1.0605-1.3662,1.9072-1.1592C352.8721,104.6895,353.125,104.8369,353.3203,105.0283z"/>
</g>
<g>
	<path d="M376.7803,119.7129c0-0.001,0.4946-0.665,1.3091-0.8213c0.8228-0.0762,1.833-0.2617,3.2749-0.3496
		c0.7305-0.0625,1.5396-0.0928,2.4199-0.1377c0.8823-0.0645,1.8369-0.1348,2.8569-0.21c2.0366-0.1826,4.3364-0.418,6.8159-0.7441
		c0.6274-0.0674,1.2388-0.1865,1.8755-0.2715c0.626-0.0957,1.3101-0.1719,1.8672-0.3154c0.2939-0.0625,0.5903-0.126,0.8887-0.1895
		l0.1123-0.0234c-0.0825,0.0293,0.2241-0.0742-0.1782,0.0645l0.0303-0.0127l0.0601-0.0254l0.1211-0.0518l0.0605-0.0244
		l0.0293-0.0127l-0.0327,0.0068c-0.0854,0.0205-0.1675,0.0654-0.228,0.126c-0.0454,0.041-0.0396,0.0205-0.0527,0.043
		c-0.0317,0.0898,0.1406-0.3145,0.1265-0.792c-0.0078-1.0029-0.355-2.2754-0.9248-3.4238
		c-0.5718-1.1611-1.3594-2.2646-2.3389-3.1807c-0.979-0.916-2.1499-1.6396-3.4653-2.0723c-0.6597-0.209-1.3501-0.3535-2.063-0.4219
		c-0.3364-0.0264-0.7646-0.0449-1.0371-0.0449l-1.2476,0.0498c-3.0244,0.1299-6.1519,1.1904-8.439,3.1611
		c-1.1377,0.9932-2.0581,2.21-2.6738,3.5439c-0.6133,1.3359-0.8838,2.7949-0.8188,4.1855c0.0112,0.6211,0.1655,1.5723,0.2788,2.3135
		c0.1182,0.7764,0.2651,1.5576,0.4316,2.3125c0.3252,1.5156,0.7583,2.9639,1.3228,4.2861c0.5552,1.3252,1.2217,2.5439,2.0415,3.542
		c0.3638,0.5449,0.8481,0.9463,1.2583,1.4063c0.4946,0.3604,0.9077,0.8076,1.4385,1.0771c1.9912,1.2949,4.2129,1.792,6.5469,1.9297
		l0.4727,0.0371c0.1421,0.0039,0.2456-0.0137,0.3691-0.0176c0.2368-0.0107,0.4712-0.0205,0.7026-0.0313
		c0.4531,0.0176,0.9487-0.1133,1.4077-0.1494c0.4663-0.0576,0.873-0.2021,1.3066-0.2744c0.4033-0.1357,0.7949-0.2666,1.1743-0.3945
		c1.4688-0.6035,2.6738-1.5068,3.4819-2.4883c0.8174-0.9717,1.2661-1.9336,1.4893-2.5576c0.2256-0.6309,0.5557-0.8662,0.5649-0.8936
		c0.1401-0.3945,0.5742-0.6006,0.9688-0.4609c0.1255,0.0449,0.2324,0.1191,0.3145,0.2129l0.0137,0.0156
		c-0.0005,0,0.1016,0.1152,0.2397,0.4014c0.0718,0.1572,0.106,0.2939,0.1489,0.4873c0.0381,0.1914,0.0605,0.4131,0.041,0.6377
		c-0.0576,0.9316-0.2725,2.2461-0.9731,3.8271c-0.6982,1.5498-1.9404,3.4619-4.1094,4.8535
		c-2.1362,1.3994-5.0806,1.9785-8.0068,1.7646c-0.3164-0.0273-0.6362-0.0537-0.959-0.0811l-0.4873-0.041l-0.0303-0.0029
		c-0.2754-0.0283-0.0962-0.0117-0.1665-0.0195l-0.0698-0.0137l-0.1392-0.0264l-0.2793-0.0537
		c-0.7446-0.1709-1.5122-0.2373-2.269-0.5283c-0.7559-0.2783-1.5415-0.4863-2.2803-0.9072c-0.373-0.1914-0.749-0.3848-1.1274-0.5791
		c-0.3589-0.2324-0.7119-0.4824-1.0688-0.7285c-0.7354-0.4678-1.3267-1.1299-1.9824-1.7188
		c-0.5571-0.6748-1.1816-1.3223-1.6338-2.0781c-1.0015-1.4619-1.7041-3.0879-2.2402-4.7393
		c-0.5449-1.6543-0.895-3.3555-1.1157-5.0605c-0.1147-0.8545-0.2021-1.7031-0.2607-2.5693
		c-0.062-0.9004-0.1167-1.6016-0.1084-2.6494c0.0532-3.8984,2.0283-7.5664,4.9253-9.9443
		c2.9028-2.4297,6.4976-3.6582,10.0952-4.0557l1.2432-0.1143c0.5566-0.0342,0.959-0.0293,1.4463-0.0195
		c0.9365,0.043,1.874,0.1748,2.7891,0.4063c1.8296,0.4766,3.5288,1.3809,4.9404,2.5576c1.3892,1.2002,2.5322,2.6201,3.3311,4.1914
		c0.8027,1.5713,1.3701,3.2334,1.3867,5.1523c-0.0137,0.4922-0.042,0.9873-0.1865,1.54c-0.1221,0.5303-0.3779,1.1514-0.8506,1.7246
		c-0.1362,0.1494-0.2368,0.2734-0.418,0.4258c-0.2041,0.1621-0.4292,0.3096-0.6582,0.4307
		c-0.1514,0.0811-0.1143,0.0527-0.1787,0.083l-0.1216,0.0488l-0.061,0.0234l-0.0303,0.0127
		c-0.4229,0.1465-0.1382,0.0449-0.2417,0.0791l-0.144,0.0283c-0.3838,0.0742-0.7646,0.1484-1.1421,0.2207
		c-0.7788,0.168-1.4385,0.2168-2.1211,0.3037c-0.6748,0.0801-1.3457,0.1621-1.9854,0.2002
		c-2.5747,0.2061-4.9209,0.3252-7.0049,0.4053c-2.0801,0.0811-3.9004,0.1641-5.4053,0.1465c-1.52-0.0371-2.8433-0.1875-3.604-0.3623
		c-0.7695-0.2773-1.1191-1.0049-1.1191-1.0059c-0.0913-0.1904-0.0635-0.4082,0.0547-0.5674L376.7803,119.7129z"/>
</g>
<g>
	<path d="M411.3145,118.2129c0,0,0.7158-1.2715,1.5361-1.377c0.3604-0.0156,0.7695,0.0586,1.2764,0.0928
		c0.54,0.0264,1.1436,0.0859,1.8457,0.0977c1.3857,0.085,3.0977,0.0918,5.0547,0.127c1.958,0.0059,4.1787,0.0254,6.5527-0.0771
		c1.1797-0.0527,2.4238-0.1465,3.5508-0.3408l0.4229-0.0713l0.3457-0.0908c0.1016-0.0273,0.2764-0.0596,0.2734-0.0781
		c0.0176-0.0098,0.0361-0.251,0.0557-0.2549L432.2598,116h0.0166h0.0088c0.0498,0-0.418,0.5195-0.207,0.375l0.1855-0.0254
		c-0.1279,0.0781-0.2422,0.251-0.3184,0.3779c-0.0674,0.082-0.0713,0.1719-0.0742,0.165c0.001,0.0059,0.041-0.1064,0.0352-0.2959
		c0.0166-0.7822-0.3516-2.0107-0.9189-3.0811c-0.5674-1.0996-1.3467-2.1504-2.2842-3.0527c-0.9248-0.917-2.0137-1.6943-3.2305-2.249
		c-0.6035-0.292-1.25-0.4961-1.9092-0.6738c-0.334-0.0752-0.667-0.1592-1.0127-0.2031l-0.2568-0.042l-0.0645-0.0107l-0.0313-0.0049
		c0.0684,0.0029-0.1992-0.0146,0.1445,0.0049l-0.1523-0.0049l-0.6104-0.0225c-0.3838-0.001-0.8682-0.0596-1.1709-0.0137
		c-0.2852,0.0547-0.5703,0.0996-0.8613,0.1328c-0.2803-0.0049-0.6201,0.167-0.9346,0.2568
		c-0.3154,0.1211-0.6553,0.1699-0.9521,0.3594l-0.9229,0.4717c-0.3057,0.1631-0.5781,0.4014-0.8721,0.5947
		c-0.6055,0.3643-1.0869,0.9277-1.6348,1.3926c-1.96,2.1494-3.374,4.9219-3.9199,7.7773c-0.5146,2.8594-0.3457,5.7266,0.7676,8.0947
		l0.457,1.0654c0.1523,0.3398,0.3047,0.6221,0.4541,0.9346c0.2832,0.6094,0.6465,1.207,0.9795,1.7695
		c0.6855,1.1289,1.4648,2.0527,2.2783,2.7129c0.8066,0.668,1.6719,1.0713,2.6885,1.3359c1.0117,0.2607,2.1621,0.4023,3.3428,0.4873
		c0.3291,0.0332,1.2705,0.0723,1.5928,0.0342c0.4014-0.0127,0.8965-0.0586,1.3604-0.1113c0.9297-0.1318,1.8037-0.3408,2.626-0.5713
		c1.623-0.501,3.0225-1.1523,3.9883-1.9297c0.9795-0.7588,1.6055-1.541,1.9473-2.1191c0.1963-0.2803,0.3564-0.498,0.5313-0.6338
		c0.1709-0.1367,0.2871-0.207,0.2871-0.207l0.0996-0.0615c0.3838-0.2354,0.8867-0.1143,1.1221,0.2705
		c0.0205,0.0342,0.041,0.0742,0.0557,0.1094c0,0,0.0537,0.127,0.1045,0.373c0.0313,0.2383,0.0859,0.6152-0.0508,1.0381
		c-0.2227,0.8633-0.7324,2.1016-1.7295,3.4639c-0.9951,1.3545-2.5088,2.8057-4.6006,3.8887
		c-1.0469,0.5254-2.2285,0.9678-3.5293,1.2354c-0.6563,0.1094-1.3105,0.2383-2.0977,0.2607
		c-0.8633,0.042-1.1426,0.0264-2.0508-0.0176c-1.292-0.0889-2.7334-0.1855-4.3125-0.6143c-1.5674-0.4141-3.2637-1.2275-4.625-2.4141
		c-1.3457-1.2002-2.373-2.6289-3.1768-4.0869c-0.3955-0.7383-0.7822-1.458-1.1104-2.2451
		c-0.1641-0.3828-0.3486-0.7891-0.4932-1.1582l-0.4092-1.085c-0.3105-0.792-0.5176-1.7363-0.7578-2.6074l-0.1846-1.3555
		c-0.0693-0.4531-0.1182-0.9063-0.1055-1.3604l-0.0107-1.3633c0.0107-0.4541,0.0801-0.9014,0.1211-1.3525
		c0.0557-0.9092,0.29-1.7832,0.4658-2.6709c0.2109-0.877,0.502-1.7373,0.8037-2.5889c0.3662-0.8281,0.6777-1.6816,1.1426-2.4688
		c0.8018-1.6348,1.9541-3.0938,3.1895-4.4678c0.6914-0.6289,1.3086-1.3311,2.1094-1.8545c0.3887-0.2705,0.751-0.5762,1.167-0.8115
		l1.2705-0.6758c0.4102-0.249,0.8945-0.3633,1.3457-0.5352c0.4707-0.1475,0.8838-0.3447,1.4287-0.4189
		c0.5195-0.0977,1.043-0.1846,1.5654-0.2607c0.5049-0.0645,0.8438-0.0244,1.2734-0.041c3.8604-0.0166,7.4629,1.5605,10.1455,3.9805
		c1.3252,1.2227,2.4189,2.6309,3.2578,4.167c0.8213,1.5586,1.4814,3.1533,1.5508,5.2285c0.0098,0.5205-0.0352,1.1055-0.2432,1.7803
		c-0.0986,0.332-0.2686,0.7012-0.5137,1.083c-0.1865,0.2607-0.4111,0.5098-0.6504,0.7217l-0.2217,0.1768
		c0.1934-0.1309-0.29,0.2012-0.2617,0.1768l-0.0498,0.0264l-0.1025,0.0508l-0.2051,0.0996l-0.416,0.1865
		c-0.3096,0.1416-0.4756,0.165-0.6992,0.2354l-0.6357,0.1758l-0.5684,0.1123c-1.5068,0.2871-2.8477,0.415-4.1455,0.5068
		c-2.585,0.1865-4.9219,0.1895-6.9971,0.0732c-2.0762-0.0996-3.8779-0.3184-5.3721-0.5557c-0.7412-0.1133-1.415-0.2686-1.9922-0.375
		c-0.6035-0.1465-1.1377-0.2393-1.542-0.3857c-0.6934-0.4482-0.7852-1.9023-0.7852-1.9023
		C411.1729,118.5723,411.2207,118.3789,411.3145,118.2129z"/>
</g>
<g>
	<path d="M444.1016,103.625c0,0,0.4053,0.0068,1.165,0.0195c0.7637,0.0088,1.8574-0.0195,3.2881-0.0518
		c1.4727,0.0596,3.2803,0.0049,5.2686,0.0732c1.9873,0.0605,4.2217,0.0977,6.6465,0.2109c2.4268,0.0938,5.0449,0.29,7.7998,0.4844
		c1.3662,0.0811,2.7705,0.1641,4.2051,0.249c0.3457,0.0117,0.6943,0.0244,1.0439,0.0361l0.2627,0.0098l0.1318,0.0049l0.0654,0.002
		l0.3174,0.0322l0.0342,0.0059c-0.0078-0.0254,0.6182,0.1758,0.8203,0.4766c0.2871,0.3486,0.3125,0.5371,0.3564,0.752
		c0.042,0.2002,0.0068,0.5156-0.0205,0.5977c-0.0186,0.0723-0.041,0.1436-0.0684,0.2139c-0.0264,0.0693-0.0586,0.1406-0.0908,0.2021
		l-0.0508,0.0859l-0.1084,0.166c-0.1074,0.1445-0.2041,0.2549-0.2852,0.3428c-0.6348,0.6621-1.1836,1.1123-1.7686,1.6299
		c-2.2871,1.9502-4.6504,3.9648-7.0518,6.0127c-2.3867,2.04-4.7578,4.165-7.0898,6.3252c-2.3457,2.1445-4.626,4.3545-6.7744,6.6123
		c-2.165,2.2432-4.2051,4.5322-6.0127,6.8652c-0.2012,0.2607-0.4863,0.6484-0.8047,0.9727
		c-0.3105,0.3223-0.6475,0.6152-1.0068,0.8721c-0.1787,0.1289-0.3633,0.249-0.5527,0.3604l-0.2832,0.1602l-0.1348,0.0703
		c-0.0234,0.0098-0.127,0.0723-0.0127,0c-0.4902,0.8232,1.123-1.0342-0.1641-2.0439c-1.0039-0.2344-0.3613-0.0645-0.6221-0.1104
		c-0.0059,0-0.0117,0.002,0.0107-0.001l0.1201-0.0195l0.2783-0.0459l0.5615-0.084c1.4902-0.2012,2.9229-0.3057,4.3184-0.3828
		c2.7861-0.1865,5.4092-0.2393,7.8281-0.3018c4.8379-0.0537,8.8643-0.1777,11.6953-0.4297c2.8291-0.2227,4.459-0.5225,4.459-0.5225
		l0.0205-0.0039c1.3975-0.2568,2.7383,0.667,2.9951,2.0645c0.2568,1.3965-0.667,2.7373-2.0645,2.9941
		c-0.4043,0.0742-0.8154,0.0459-1.1855-0.0605c0,0-1.5732-0.459-4.3525-0.8867c-2.7773-0.4434-6.7666-0.8242-11.5498-0.8154
		c-2.3906-0.0234-4.9805,0.0342-7.6953,0.21c-1.3535,0.1094-2.7441,0.2471-4.1172,0.4688l-0.5117,0.0889l-0.2598,0.0498
		l-0.1494,0.0273l-0.124,0.0195c-0.2842-0.0449,0.3359,0.1309-0.6904-0.1084c-1.3203-1.0137,0.3398-2.9004-0.1387-2.083
		l0.5273-0.3086c0.125-0.0781,0.2471-0.1631,0.3652-0.252c0.2363-0.1787,0.4561-0.3809,0.6582-0.6006
		c0.1982-0.2139,0.3525-0.4346,0.6016-0.7754c1.7852-2.4893,3.7861-4.9316,5.915-7.3174c2.1504-2.3652,4.4268-4.6748,6.7646-6.9131
		c2.3506-2.2236,4.7842-4.3486,7.1973-6.4111c2.4111-2.0566,4.8633-4.0059,7.1455-5.9082c0.5537-0.4639,1.1484-0.9746,1.5381-1.377
		l0.0723-0.0791c-0.0127,0.0146-0.0244,0.0322-0.0342,0.0498l-0.0137,0.0283c-0.0234,0.041-0.0469,0.0898-0.0645,0.1387
		c-0.0186,0.0479-0.0332,0.0986-0.043,0.1484c-0.0195,0.0615-0.0615,0.3525-0.0186,0.5303c0.0439,0.1904,0.0684,0.3564,0.332,0.6934
		c0.1836,0.2871,0.7979,0.4639,0.7666,0.4355l-0.0332-0.0059c-0.2646-0.0264,0.3223,0.0303,0.248,0.0244l-0.0713-0.0029
		l-0.1436-0.0059l-0.2852-0.0117c-0.3809-0.0156-0.7598-0.0322-1.1367-0.0479c-1.4531-0.0967-2.874-0.1914-4.2588-0.2842
		c-2.7441-0.1709-5.3301-0.2803-7.7109-0.3281c-1.1895-0.0098-2.332-0.0645-3.4141-0.0342
		c-1.0801,0.0469-2.1045,0.0654-3.0645,0.1279c-1.9199,0.1123-3.5098,0.3818-4.8398,0.5625
		c-1.3584,0.2627-2.4473,0.5625-3.1758,0.749c-0.7305,0.2051-1.1211,0.3145-1.1211,0.3145l-0.0146,0.0039
		c-1.3438,0.377-2.7393-0.4063-3.1162-1.751c-0.3779-1.3438,0.4063-2.7393,1.751-3.1162
		C443.6143,103.6514,443.8652,103.6221,444.1016,103.625z"/>
</g>
<g>
	<path d="M483.3467,106.2324c0,0,0.042,0.6035,0.1191,1.7363c0.0889,1.125,0.1602,2.7676,0.3574,4.8262
		c0.1855,2.0566,0.4785,4.5439,1.1182,7.2773c0.3291,1.3613,0.7617,2.7803,1.373,4.1768c0.6074,1.3955,1.4023,2.7715,2.4756,3.9287
		c1.0488,1.1816,2.3975,2.0977,3.9785,2.6494c0.7959,0.2627,1.6406,0.4551,2.5342,0.5254l0.6729,0.0547l0.042,0.0029
		c-0.0391,0.001,0.1475,0.0029-0.0771,0.0039l0.0947-0.0039l0.1914-0.0068l0.3828-0.0137c0.5107-0.0186,1.0264-0.0371,1.5449-0.0566
		c0.2793,0.0078,0.4697-0.0586,0.6865-0.1016l0.6406-0.1328c0.4287-0.083,0.8652-0.1396,1.2988-0.3408
		c0.4326-0.1709,0.8818-0.3105,1.3115-0.499c0.4063-0.2344,0.8154-0.4707,1.2275-0.708c1.5811-1.0586,2.9385-2.5498,4.0098-4.3242
		c1.082-1.7695,1.8701-3.8135,2.4238-5.958c0.5605-2.1455,0.9141-4.3965,1.0898-6.6777c0.0313-0.5469,0.083-1.1943,0.0781-1.6621
		c-0.0039-0.2881,0.0078-0.6191-0.0088-0.873l-0.0693-0.6816c-0.082-0.4287-0.209-0.9229-0.3213-1.0381
		c-0.04-0.0928-0.0498-0.0029,0.1738,0.0586c0.083,0.0273,0.248,0.0557,0.334,0.0166c0.0664,0.0342,0.1719-0.0879,0.1563-0.043
		c0.0303-0.0234-0.2412,0.2686-0.332,0.6748c-0.1348,0.3828-0.1885,0.8613-0.2256,1.3398
		c-0.0508,0.9277,0.1719,2.1865,0.3428,3.2383c0.8652,4.6523,1.9795,9.4346,2.7324,14.1855
		c0.7949,4.7529,1.252,9.5273,1.2432,14.208c0.0068,1.1689-0.0771,2.3379-0.1201,3.4912c-0.1348,1.1738-0.1787,2.2676-0.3906,3.4756
		c-0.0498,0.2754-0.0791,0.5205-0.1445,0.8203l-0.2178,0.9189c-0.1338,0.6289-0.3438,1.1553-0.5137,1.7324
		c-0.4072,1.1133-0.8682,2.1963-1.4473,3.2051c-2.2393,4.0664-5.8965,7.1357-9.9355,8.4268
		c-2.0146,0.6475-4.0928,0.8555-6.0273,0.6816c-1.9395-0.168-3.7188-0.7061-5.2617-1.4053
		c-3.1162-1.4063-5.249-3.4131-6.8291-5.0908c-1.5801-1.7041-2.5781-3.1924-3.249-4.2031
		c-0.6396-1.0283-0.9805-1.5771-0.9805-1.5771c-0.7285-1.1729-0.3691-2.7139,0.8037-3.4424
		c1.1729-0.7295,2.7139-0.3691,3.4434,0.8037c0.0068,0.0107,0.0127,0.0215,0.0195,0.0322l0.0752,0.126
		c0,0,0.2861,0.4834,0.8242,1.3887c0.5605,0.8838,1.3965,2.1826,2.666,3.6055c1.2646,1.4053,2.9473,3.0244,5.207,4.0879
		c2.2256,1.0889,5.0566,1.5703,7.9629,0.6963c2.8867-0.8496,5.748-3.0693,7.5791-6.2422c0.4746-0.7813,0.8535-1.6348,1.1992-2.5117
		c0.1357-0.4424,0.3359-0.9111,0.4277-1.3379l0.1768-0.6533c0.0576-0.2285,0.1016-0.5225,0.1543-0.7822
		c0.1904-0.9346,0.2646-2.0469,0.4082-3.0791c0.0586-1.0664,0.1621-2.1387,0.1777-3.2334c0.1025-4.377-0.2539-8.9551-0.8896-13.5996
		c-0.6113-4.6631-1.5576-9.3262-2.376-14.1846c-0.1768-1.332-0.3926-2.4697-0.3105-3.96c0.0654-0.7227,0.1611-1.4492,0.4316-2.2051
		c0.2617-0.7334,0.6152-1.5557,1.6201-2.2842c0.2021-0.1787,0.6348-0.3193,0.9697-0.4131c0.3721-0.0635,0.8613-0.0557,1.2197,0.0664
		c0.3584,0.1309,0.7598,0.3271,0.9482,0.5381c0.2305,0.21,0.4697,0.4541,0.5713,0.6533c0.5801,0.8818,0.6719,1.6045,0.8281,2.3389
		c0.0449,0.3672,0.0723,0.7354,0.1025,1.1035c0.0176,0.3418,0.0049,0.6094,0.0088,0.917c-0.001,0.7256-0.0537,1.2666-0.0908,1.9063
		c-0.1934,2.457-0.5752,4.8828-1.1982,7.2451c-0.6221,2.3584-1.4756,4.6699-2.7471,6.7754
		c-1.2539,2.1045-2.9277,3.999-4.9697,5.3701c-0.5322,0.3086-1.0605,0.6152-1.5869,0.9199c-0.5498,0.251-1.124,0.4434-1.6826,0.6602
		c-0.5439,0.2412-1.1572,0.3496-1.7607,0.4648c-0.585,0.0986-1.2432,0.2705-1.7578,0.2861
		c-0.5186,0.0205-1.0332,0.041-1.5439,0.0615l-0.3828,0.0146l-0.1914,0.0078l-0.0947,0.0039
		c-0.2568,0.001-0.1016-0.002-0.1729-0.0029l-0.0527-0.0039l-0.8408-0.0625c-1.1172-0.0879-2.2236-0.3271-3.2803-0.6758
		c-2.1162-0.7197-3.9824-1.9922-5.3379-3.5205c-1.3838-1.5156-2.3281-3.2021-3.0303-4.8301
		c-0.7041-1.6328-1.1768-3.2246-1.5313-4.7236c-0.708-3.001-0.9463-5.6387-1.0791-7.791c-0.1172-2.1563,0.0508-3.8359,0.0645-4.9727
		c0.0098-1.1309,0.1895-1.7334,0.1895-1.7334v-0.0059c0-0.7441,0.4414-1.3428,1.1875-1.3359
		C482.8945,104.9824,483.2969,105.5381,483.3467,106.2324z"/>
</g>
</svg>
